<?xml version="1.0" encoding="utf-8"?>
<!-- Generator: Adobe Illustrator 19.2.1, SVG Export Plug-In . SVG Version: 6.00 Build 0)  -->
<svg version="1.1" id="layer" xmlns="http://www.w3.org/2000/svg" xmlns:xlink="http://www.w3.org/1999/xlink" x="0px" y="0px"
	 viewBox="0 0 652 652" style="enable-background:new 0 0 652 652;" xml:space="preserve">
<style type="text/css">
	.st0{fill:#922F28;}
</style>
<path class="st0" d="M320.7,93.7c-1.2,2.3-6.4,3.5-8,0.8C312.9,90.2,319.6,90.2,320.7,93.7"/>
<path class="st0" d="M319,126.5c-1.9,2.6,1.1,4.4,4,3.2c-0.3,2.8-3.5,2.7-6,3.2C315.4,131.1,316.2,126.3,319,126.5"/>
<path class="st0" d="M328.3,128.1l-0.4,1.2c-0.8,0.4-3.5-0.1-3.2-2C325.9,126.3,327.5,127.5,328.3,128.1"/>
<path class="st0" d="M312.3,132.1c-0.8,0.9-1.3,2.1-2.8,2.4C309.2,132.5,310.3,131.9,312.3,132.1"/>
<path class="st0" d="M407.1,151.3c-1,2.5-4.9,3.1-6.4,0.8C401.8,150,405,150.5,407.1,151.3"/>
<path class="st0" d="M252.6,152.9c-0.8,2.7-5.5,2.4-6-0.4C248.3,151.5,251.4,151.4,252.6,152.9"/>
<path class="st0" d="M415.5,151.7c2,0,2.7,1.3,3.2,2.8c-1.7,0.2-2.7-0.2-3.6-0.8C414.8,152.6,415.7,152.7,415.5,151.7"/>
<path class="st0" d="M238.3,153.3c0.3,2.4-1.6,2.5-3.6,2.4C235.1,154.3,236.6,152.3,238.3,153.3"/>
<path class="st0" d="M423.5,154.1c0.9,2.2,2.4,3.7,2.4,6.8c-4.4,0.1-6.1-2.7-6.8-6.4C420,153.8,422.1,154.3,423.5,154.1"/>
<path class="st0" d="M234.2,155.7c-0.6,3.8-2.4,6.4-6.8,6.4c0-3.1,1.7-4.4,2.4-6.8C231.9,155.3,232.6,154.9,234.2,155.7"/>
<path class="st0" d="M384.3,155.3c-0.2,3.2-5.8,2.1-6.4,0C379.5,155,382.7,154.4,384.3,155.3"/>
<path class="st0" d="M269,156.1c2.3,0,4.7-0.1,6.5,0.4c-0.8,1.7-2.7,2.1-5.2,2C269.9,157.7,269,157.3,269,156.1"/>
<path class="st0" d="M433.9,162.5c1.1,0.1,1.7,0.8,2.8,0.8c0.9,2.9,0.2,6.2-2.4,6.8C432.5,168.3,432.4,164.9,433.9,162.5"/>
<path class="st0" d="M219.8,163.7c1.2,3.2,1.2,5.3-0.8,7.7c-2.5-0.8-3.1-4-2.4-6.8C217.9,164.5,218.4,163.6,219.8,163.7"/>
<path class="st0" d="M439.9,174.9c-1.4,2.1-3.1,5.8-6,5.2c1.6-2.3,0.3-7.4,2.4-9.2C438.4,171.4,439.2,173.1,439.9,174.9"/>
<path class="st0" d="M217.4,172.1c1.7,3.3,0.4,5.3,2,9.2c-3.6-0.2-4.6-3.1-6-5.6C214.7,174.5,214.9,172.1,217.4,172.1"/>
<path class="st0" d="M360.3,194.6c0.4,3.1-4,1.6-6.4,1.9C353.9,193.8,358.1,193.9,360.3,194.6"/>
<path class="st0" d="M429.5,195.7c-0.4,1.1-1.9,1.2-3.2,1.6c-0.6-0.9-0.8-0.8-0.4-2C427.6,194.9,428.7,194.2,429.5,195.7"/>
<path class="st0" d="M227.8,198.2c-1.3,0.6-2.8-0.2-4-0.8C224.3,195.2,227.8,195.6,227.8,198.2"/>
<path class="st0" d="M354.3,209.4c2.1-0.1,1.1,3.3,0.8,4.4C353.6,213.5,354.5,210.8,354.3,209.4"/>
<path class="st0" d="M292.3,211.4c0.7,0.3,1.5,0.7,2.4,0.8v2.8c-0.9,0-1.2-0.7-2.4-0.4V211.4z"/>
<path class="st0" d="M219.4,212.2c1,0.3,0.8,1.8,2,2c-1.8,1.3,1.2,5.7-2.8,5.2C217,217.1,218.4,214,219.4,212.2"/>
<path class="st0" d="M434.7,212.2c2,1.2,3.3,5.3,1.2,7.2C432.4,219.1,433.7,214.1,434.7,212.2"/>
<path class="st0" d="M297.1,218.1c0.1,1.3-0.4,1.8-1.6,1.6C295.3,218.5,295.8,218,297.1,218.1"/>
<path class="st0" d="M435.9,224.2c1.7,1.7,0.9,7.1-2.4,7.2C431.9,228,435.8,227,435.9,224.2"/>
<path class="st0" d="M218.2,224.6c1.7,1.7,3.7,3,3.2,6.8C217.7,231.7,217.9,227,218.2,224.6"/>
<path class="st0" d="M220.2,233c1.5-0.1,0.9,2,2,2.4C221.1,236.6,219.9,234.5,220.2,233"/>
<path class="st0" d="M433.9,233c1.4,0.3,0.2,2.9-1.2,2.8C432.6,234.3,433.9,234.3,433.9,233"/>
<path class="st0" d="M222.6,237.4c0.3,1.4-0.5,1.7-0.8,2.4c-0.8-0.3-1.1-1.1-1.2-2C221.1,237.5,221.7,237.3,222.6,237.4"/>
<path class="st0" d="M433.9,237.8c0.2,1.2-0.4,1.8-1.6,1.6C431.1,238.3,432.8,236.5,433.9,237.8"/>
<path class="st0" d="M316.2,281.8c-1.5-0.1-2.5,1.6-1.6,2.8c2.5-0.7,3.5-4,2.8-6.8h-1.6C315.2,278.6,316.3,280.4,316.2,281.8
	 M327.1,278.2c-1.3,0.7-3.9,0.2-5.2,0.8c-1.1,3.8-1.9,7.8-4,12c-0.9,1.8-1.7,3.7-2.4,5.6c-1.8,4.8-2,8.8-7.2,8.9
	c0.3,1.4,1.9,1.3,2.8,1.6c5.2,1.6,6.2-2.3,10.4-2.4c5.2-0.1,4.6,4.4,7.2,7.2c5.8-1.2,2.2-8.4,7.3-9.2c2.7-0.5,6.4,3.3,9.2,0
	c-4.7-1.7-9.3-1.8-10.8-6c-1.2-3.5,0.8-5.2,1.2-7.2c0.7-3-1.2-6.4-0.4-9.2c0.1-1.6,1.4,0.4,1.2-1.2c-0.1-2.3-0.7-4.1-1.6-5.6
	C329.9,271.2,329.5,276.6,327.1,278.2 M334.2,268.6c0.5,0.4,1.4,0.4,2.4,0.4c-0.2-1.2-0.8-1.8-2-2L334.2,268.6 M335.5,264.6
	c3.1,0.1,6.4,0.3,8.8,1.2c1.4,0.5,2.7,2.9,3.6,1.6c-2.5-3.7-7.4-5.1-14-4.8C333.7,264,335.1,263.8,335.5,264.6 M319.5,262.2
	c-1.4,1.9-1.7,3.9-3.2,5.6c-2.2,2.4-6.5,3.4-6.4,6.8c3.2,4.3,7.1-0.6,10.8-0.8c2.1-0.1,2.9,1.6,5.2,1.2c1.4-0.8,1.3-2.9,2-4.4
	c1.8-0.3,3.5-0.6,4.8-1.2C333.6,262,325.3,260.2,319.5,262.2 M341.9,260.6c2.5,0.3,4.7,1.4,6.8,0.8c-4-2.8-10.9-2.9-18-2.8
	C332.9,261.7,337.4,260.1,341.9,260.6 M327.1,238.6c22.6,15.8,44,32.8,66,49.2c-4.9,10.6-11.5,16.5-23.6,20.4
	c-12.4,4-25.1,2.1-34.4,9.2c-3.2,2.4-5.5,5.4-7.6,8.8c-1.8-1.9-2.8-4.2-4.8-6c-6.7-6.2-15.8-7.7-26.4-9.2c-17.2-2.4-29-11.2-35.6-24
	c2-2.8,5.3-4.4,8-6.4C287.5,266.8,307.7,252.6,327.1,238.6"/>
<path class="st0" d="M428.3,263.4c0,2.3-0.4,2.6,0.4,4c-1.7,1.1-0.5,5.1-3.2,5.2c0.3-2.8-0.2-6.2-2-5.6
	C423.6,264.3,425.7,262.3,428.3,263.4"/>
<path class="st0" d="M225.8,263.4c3.1-0.2,4.3,1.3,4.4,4c-3-0.4-1.7,3.3-2,5.6c-2.4-0.5-1.7-4.1-3.2-5.6
	C226.1,266.2,224.9,265,225.8,263.4"/>
<path class="st0" d="M327.1,263.4c2.7,0,5.3,3,4,4.5C330.6,265.5,327.2,266.1,327.1,263.4"/>
<path class="st0" d="M326.3,266.6c0.1,2.8-4.6,3.6-6.4,2C320.3,266.2,323.9,265.8,326.3,266.6"/>
<path class="st0" d="M331.9,276.6c1.9-0.4,2.2,0.7,2,2.4C332,279.4,331.6,278.3,331.9,276.6"/>
<path class="st0" d="M232.2,291l-2.4,0.4c0.1-2.5-0.9-5.2-3.2-7.2c0-2.1,1.8-2.4,2.8-3.6C232.1,282.3,231.4,287.4,232.2,291"/>
<path class="st0" d="M423.5,280.6c1.8,0.2,2.7,1.3,3.6,2.5c-0.6,3.1-4.3,5-2.8,8l-2,0.4C421,287.6,422.7,283.5,423.5,280.6"/>
<path class="st0" d="M330.3,287l-2.8,1.2c0.1,2-0.2,3.6-2,3.6c-0.7-2.4,0.2-3.8,0-6.8C327.1,283,330.9,282.8,330.3,287"/>
<path class="st0" d="M321.9,289.4c1.4,0.2,0.6,2.7,0.4,3.6c-1.3,0.2-1.6-0.6-2.4-0.8C319.6,290.4,320.9,290,321.9,289.4"/>
<path class="st0" d="M422.3,294.6c1.6,3.2-1.1,8.1-4,5.6C419.9,298.6,419,294.5,422.3,294.6"/>
<path class="st0" d="M231.4,295h0.8c2.1,0.6,3,4.1,2.4,6C231.3,301.5,230.4,297.6,231.4,295"/>
<path class="st0" d="M325.8,297.4c-1,1.7-2.4,2.9-4,4.1c-0.6-1-1-2.2-1.2-3.6C320.9,295.8,325,296.6,325.8,297.4"/>
<path class="st0" d="M388.3,335c-19.4,4.3-41,3.4-62.8,4c-21.2,0.6-42.8-1.1-62-4c1,5.2,0,11.4,0,16.8c8.3,4.9,19.6,6.7,30.8,8
	c33.4,4,70.8,2.7,97.2-10.4c-0.2-5-0.2-8.4,0-11.6c0.1-0.8,0.7-2.8-0.4-3.2C389.6,334.5,389.2,334.8,388.3,335 M443.1,335
	c2.2,0.1,2.6-3.7,0.8-4.4C442.8,331.8,442,333.4,443.1,335 M378.3,328.6c-7.3-0.4-12.9-0.6-11.6,5.2c8.1-0.7,16.7-0.9,24.4-2
	C390.1,329.5,383.6,328.9,378.3,328.6 M277,329c-5.1-0.3-11.9-1.6-14,2c6.2,2.4,13.5,2.1,21.2,2.4c-0.3-1.3-0.6-2.5-0.8-4
	C281.7,328.7,279.4,329.1,277,329 M442,328.6c0.5,0.6,1.7,0.4,2.8,0.4v-2C443.6,327.4,442.4,327.6,442,328.6 M439.9,323.4
	c-9.8,7.5-29.7,4.2-44,4.4c0.2,1.6,2.4,1.1,1.9,3.2c-0.6,1.4-1.8,2.2-1.5,4.4c0.9,2.8,3.8,1.1,6.4,2c0.6,0.8,0.2,2.6,0.8,3.6
	c3.4-0.4,7.7-0.1,11.2,0.4c-0.1,1.2-1.9,0.6-1.6,2c10.4,1.6,22.1,0.8,27.6-4.8c0.2-4.1-0.4-7.3-0.8-10.8c0-1.8,2.6-2.4,1.2-4.4
	H439.9z M208.2,336.2c3.5,4.4,9.1,6.6,16.4,7.2c1.4-0.3,1.1-2.3,2.8-2.4c3,0.2,6,0.6,7.6,2c7.3-2.3,14.6-4.6,24-4.8
	c-0.2-2.1-1.4-4.4-1.2-6.8c0.1-1.6,1.3-2.4,0.8-3.6c-1.4,1.1-3.8-0.2-5.2-1.2c-13.4,3.1-35.6,3.5-44.8-3.6
	C207.7,327.9,209.4,331.5,208.2,336.2 M208.6,318.6c0.3,1.7,1.8,2.2,3.2,2.8c-0.2-1.7,0.3-2.7,0.4-4
	C210.2,317,209.5,317.9,208.6,318.6 M440.7,319.8c1.5-0.5,3.3-0.7,3.2-2.8c-0.2-1-2.7-1.8-3.6-0.8
	C441.2,316.6,440.5,318.7,440.7,319.8 M203.4,315c-1.5,1.9-5.2,1.6-6,4.4c-1.2-0.3-1.2,0.7-2.4,0.4c0.2,1.4-2.3,2.3-1.2,3.2
	c2.7-2.4,5.9-4.4,11.2-3.2c0.1-2.8,2-3.8,3.2-5.6c-2.7-2-7.8-3.7-12.4-2.4C198.1,313.1,201.7,313.1,203.4,315 M447.2,312.6
	c1.1,1.8,3.4,3,1.5,5.6c4.2-1.2,6.7,3.3,9.6,0.8c-2.1-2.8-5.9-3.9-8.8-6c1.2-1.5,4.2-1.1,5.6-2.4
	C452.6,310.1,448.9,311.1,447.2,312.6 M194.6,308.2c0.8-1,2.9-0.7,4.8-0.8c0.2-1.5-0.6-2-1.6-2.4
	C196.6,305.7,194.2,307.3,194.6,308.2 M453.5,306.2c1.4-0.7,3.7,0.1,4.4-0.4c-1.3-0.4-1.3-1.9-2.8-2
	C454.7,304.7,453.8,305.1,453.5,306.2 M455.1,313.8c2.4,1.8,5.4,1.7,7.6,4.4c5,6.1,1.1,18.2-8.8,16c-1.9-1.6-3.6-2.9-3.6-5.2
	c0-3.4,3.8-4.7,5.6-6.8c-2.6-1-6-0.1-8.4,0.4c-1,5.3,1.2,8.8,0.8,12.4c-0.9,6.7-13.8,11-21.2,11.6c-6.8,0.5-13.9-0.5-19.6-2
	c-4.1-1.1-8-3.7-11.6-2.4c-1,2.2,0.1,6.5-0.8,8.8c-21,13.9-67.2,16.7-102.5,12c-5.9-0.7-11.6-1.5-18-3.2c-4.6-1.2-13.2-3.6-14.8-6.4
	c-1.6-2.6-0.5-8.4-0.8-11.6c-5.7-0.9-11.6,1.4-17.6,2.8c-13.2,3-29,2.6-36.4-6.4c-0.1-5.4-0.1-10.7,0.8-15.2
	c-2.6-1.2-8.5-1.5-9.6,1.2c1.2,0.9,4.4-0.1,5.2,1.2c3.8,10.3-11,10.6-12.4,3.6c-1.3-6.3,4.7-11.3,8.4-13.6c-3.7-1.3-6.7-3.2-6.8-7.2
	c0-8.2,15.9-11.4,14.4-0.4c8.1-0.7,13.1,5.7,9.2,13.2c1.4,3.5,6.2,3.2,10,3.6c8.3,0.9,15,1.5,23.2,0c8.4-1.5,21.5-5.1,32-4.4
	c2.9,0.2,6.1,0.7,8.4,2.8c1,3-0.2,8.3,0.8,11.2c9.9,2.2,21.9,2,34,2c13.8,0,28.6,0.3,39.6-2c1.2-3.5-0.9-8.2,1.2-11.2
	c1.7-2.4,6.6-2.6,10.4-2.4c7.5,0.5,16.8,4.3,27.3,4.8c4.3,0.2,8.4-0.2,12.8,0c9.2,0.4,18.4,0.8,23.2-4.8c-1-7.5,1.3-12.1,8.8-12
	c0.9-3,0.1-5,1.6-6.8c3.8-4.6,14.1-0.6,14.4,4.4C462.2,309.9,458.7,312.6,455.1,313.8"/>
<path class="st0" d="M330.3,301.4c0.6,0.8,2,1.8,1.2,2.8C329.4,304.7,329.9,302.5,330.3,301.4"/>
<path class="st0" d="M239,302.6c1.8,1.7,3.4,3.9,6.8,4c-0.1,2.9-4.7,2.7-7.2,2C237.6,306.4,236.8,303.9,239,302.6"/>
<path class="st0" d="M415.1,308.6c-2.7,0.7-7.1,0.8-7.2-2.4c4.2,1.4,7.6-6.8,8.4-1.6C416.6,306.5,415,306.3,415.1,308.6"/>
<path class="st0" d="M210.2,326.6c1.4,0.2,2.1,1.1,3.6,1.2c-0.6,1.5-1.4,2.6-3.6,2.4V326.6z"/>
<path class="st0" d="M411.5,330.6c-2.7,1.2-6.1-0.3-8.8-0.4C405,328.1,408.7,330,411.5,330.6"/>
<path class="st0" d="M426.7,329.8c-0.2,1.8-1.7,1.5-3.2,1.2C423.7,328.9,424.9,329.7,426.7,329.8"/>
<path class="st0" d="M255,330.2c-0.9,1.5-3.2,1.6-5.6,1.6C250.2,330.2,252.6,330.2,255,330.2"/>
<path class="st0" d="M280.7,330.2c2.9,0.6,1.5,3.4-0.8,1.6C279.5,330.7,280.7,331,280.7,330.2"/>
<path class="st0" d="M385.1,331.8c-1.1,1-2.7-0.2-3.6-0.8C381.7,329.8,385.9,329.6,385.1,331.8"/>
<path class="st0" d="M240.6,331c1.2,0.1,2.6-0.2,3.2,0.4C243.1,332.3,240.9,332.6,240.6,331"/>
<path class="st0" d="M210.6,331.8c1.2,0.6,1.2,3.6-1.2,2.8C209.2,333.1,210.2,332.8,210.6,331.8"/>
<path class="st0" d="M398.7,333c0.9-0.8,4.3-0.6,5.2,0C402.8,334.7,400.2,333.3,398.7,333"/>
<path class="st0" d="M432.7,333.4c-1.2,1.3-4.6,0.8-6.4,0.4C427.6,332.5,430.9,333,432.7,333.4"/>
<path class="st0" d="M239.4,333.8c-2.6,1.6-4.7,0.7-8,0.8C232.5,332.1,236.8,334.2,239.4,333.8"/>
<path class="st0" d="M398.7,334.6c1.5-0.1,3,0,4,0.4C402,335.9,398.8,336.5,398.7,334.6"/>
<path class="st0" d="M251.4,335.4c-0.7,1.5-1.9,1-3.2,0.4C248.3,334.6,250.8,334.9,251.4,335.4"/>
<path class="st0" d="M220.2,335.9v3.2h-2c0.2-1.3-1.2-0.9-0.8-2.4C218.3,336.3,218.7,335.6,220.2,335.9"/>
<path class="st0" d="M233.8,337c-1.6,1.8-6.2,0.5-8,0C228,334.8,230.7,336.9,233.8,337"/>
<path class="st0" d="M421.9,335.9c-0.7,1.8-4.1,1-6.4,1.2C416.1,335,419.7,336.1,421.9,335.9"/>
<path class="st0" d="M430.3,338.6h-3.6C427.2,337.1,430.1,336.4,430.3,338.6"/>
<path class="st0" d="M383.1,338.6c-2.3,3.4-0.1,7.7-0.4,12.4c-5.9,5.3-10.2-2.8-14.4-5.2c-1.1,2.9,0.6,6.5,2.4,8
	c-1.8,2.4-7,2.9-10,2.8c-0.1-2,1.8-2,2-3.6c-0.1-2.9,0.3-5.5-0.4-7.6c-0.6-1.8-2.4-2.2-2.4-4c3.2-0.8,6.2-1.9,9.2-1.2
	c3.4,0.9,5.3,5.9,8.4,6.4c-0.3-2.6-0.8-5.1-2.8-6C375.3,337.9,381.2,337.6,383.1,338.6"/>
<path class="st0" d="M239.4,338.6c-0.1,1.1-1.9,1.6-2.8,0.8C237.2,338.8,238.2,338.6,239.4,338.6"/>
<path class="st0" d="M279,348.3c1.5,0.3,2.7,0.8,4.4,0.8c-0.6-1.4-0.6-3.3-1.2-4.4C281.5,346.2,279.7,346.6,279,348.3 M286.2,340.6
	c0.6,6,1.8,11.6,4,16.1c-2.8,1-7,0.1-8.8-1.2c-0.4-1.5,1.4-0.8,1.6-1.6c-1.2-1.9-4.8-2.4-7.2-2c-1.6,0.3,0,1.9-0.8,2.4
	c-2.9-0.3-5.4-1-6.8-2.8c1-1.9,3.2-2,4.8-3.2c2.8-2,5.1-4.8,6.8-8l1.2-0.8C283.4,339.2,284.9,339.9,286.2,340.6"/>
<path class="st0" d="M304.6,341.8c0.3,2.1-1.8,1.8-2.3,3.2c-0.5,3-1.5,5.5-1.2,9.2c1.3,1.6,5.5,2,8,1.2c1.4-1,1.3-3.5,4-3.2
	c1.4,1.6-0.2,4.4-0.8,6.4c-6.9,0.7-14.5,0.4-20-2c3.9-1.6,5.4-11.4,2.4-14.8C296.2,339.4,301.9,341.7,304.6,341.8"/>
<path class="st0" d="M357.9,346.6c-2.2,0.4-2.9-2.2-4.8-2.8c-2.3-0.7-4.9,0.1-7.6,0.4v2.8c1.5,0.9,4.5,0.2,6.8,0.4
	c0.3,1.6-0.4,2.3-0.4,3.6c-1.9,0.2-3.7,0.6-6,0.4c-0.8,0.9-0.4,3.1,0,4c3-0.2,5.2,0.4,7.2-0.4c2.2-0.9,2.1-3.1,4-4
	c2.6,0.4,0.3,3.7,0.8,5.6c-3.4,1.5-9,2.1-14,2.4c-2.2,0.1-5.1,0.6-6.8-0.8c-0.1-1.9,1.9-1.6,2.4-2.8V345c0-1.7-2.3-1.1-2.8-2.4
	c1.6-2.4,7.3-0.9,12-1.2c2.6-0.1,5.5-0.4,7.2-0.8l1.2,0.4C357.4,342.9,358.5,345.1,357.9,346.6"/>
<path class="st0" d="M322.3,344.2c-0.2,3.8,0.5,8.4-0.4,11.6C331.8,360.9,331.6,341,322.3,344.2 M315.1,358.6
	c-0.5-2.2,1.5-1.9,2-3.2c0.5-3.4,0.5-7,0-10.4c-0.5-1.3-3.8-1.3-2.4-3.2c4.6,0.1,9.9-1.4,14.4-0.4c6.5,1.6,8.4,12.3,3.2,16.4
	C327.3,361.8,321.9,358.8,315.1,358.6"/>
<path class="st0" d="M390.7,345.9c0.5,1.2,0.1,1.3-0.4,2.4c-1,0-1.5-0.6-1.6-1.6C389.9,347,389.5,345.5,390.7,345.9"/>
<path class="st0" d="M105.7,476.3h40.4c-7.1-18.1-14-36.3-21.6-54C118.2,440.2,111.8,458.1,105.7,476.3 M140.2,373.5
	c1.5,3.8-4.2,7.1-4.4,11.6c-0.1,2.5,2.1,6.1,3.6,9.6c18.8,43,36.6,85.6,55.7,129.3c1.4,3.2,2.8,7.3,5.2,7.6c2.8,0.3,7.1-4.6,8.8-6
	c3.1-2.8,5.3-5.7,9.2-4.8c0.5,5.7-4.3,10.4-7.6,14.9c-1.6,2.1-3.6,4.2-5.2,6.4c-4.3,5.7-11.7,15.3-22,10c-6.5-3.4-9-11.5-12.4-19.2
	c-5.4-12.2-12.5-27.4-17.6-39.2c-16.2,0-35.7,0-53.2,0c-2.8,6.5-5.1,13.3-7.2,20.4c9.6,1.7,18.2,4.5,26.4,8.8
	c2.6,1.4,6.1,3.4,8.5,3.3c6.2-0.4,6.7-9.8,14.8-7.6c0.8,4-2.8,6.8-4.7,9.6c-6.1,8.5-12.3,18.3-20.5,25.2c-3-1.6-5.9-4.2-9.2-6.8
	c-8.2-6.3-19.7-13.7-33.6-13.6c-9.7,0.1-22.7,7.2-20.4,18.5c1.8,8.5,12.4,13.1,22.8,12.8c3.8-0.1,7-2.1,10.8-1.2
	c-0.9,4.3-7.6,6.4-12,7.2c-16.5,2.9-36.7-7.2-33.6-30c1.1-7.9,7.5-15.1,13.2-19.2c6.6-4.7,13.9-7.6,24.4-7.6
	c6.9-16.9,13.6-38.1,20-57.2c2.2-6.5,5.7-13.2,6-19.6c0.4-7.6-3.6-15.9-10-18.4c-4.4-1.7-9,0.1-14.8-0.4
	c2.6-11.3,23.6-11.3,31.2-4.4c7.7-15.9-4.4-29.6-19.6-30c-5.4-0.1-9,3-14.4,2.4c1.6-6.5,7.6-10.3,13.2-11.6c7-1.6,15.8,0.3,21.2,3.2
	c3.7,2,7.2,6.1,11.6,6C132.8,382.9,130.9,373.1,140.2,373.5"/>
<path class="st0" d="M274.6,385.1c-0.7,9.6-9.3,16.3-10.4,27.2c-0.8,8.1,0,17.9,0,27.6v54.4c0,9.7-1.2,19.6,0,25.6
	c1.1,5.3,5.3,10.1,10.4,10.4c7.4,0.4,10.4-6.5,17.2-3.6c-0.4,4.3-4.8,5.8-7.7,8c-8.2,6.6-15.6,15.2-25.5,20.4
	c-7.8-5.1-9.3-18.6-19.3-20.8c-6.2-1.4-11.2,4.1-17.6,2.4c0.4-5.1,5.7-6.2,9.2-9.2c2.3-2,8.4-7.7,9.2-11.2c0.8-3.6,0-9,0-14
	c0-20.8,0.4-45.6,0.4-68.1c0-9.2,0.5-19.8-2-25.6c-2-4.8-8-6.8-7.6-10.8c3.2-4.3,7.6-1.2,10,0.8c2.6,2.1,5.2,6.4,8,6.4
	c2.9,0,5.4-5.3,8-8.8c3.6-4.8,7.1-12.1,13.6-12.4C271.9,383.8,273.4,383.8,274.6,385.1"/>
<path class="st0" d="M329.9,473.9c-1.1,2.8-0.2,7.6,0,12c0.4,10.9,0.3,21.9,0.4,31.6c0,2-0.8,3.8-0.4,5.2c0.8,2.9,4.8,5.4,7.2,7.2
	c3.3,2.5,6.5,4.7,8.8,5.6c3.2-1.6,10.4-3.7,11.6-7.2c0.9-2.7,0-8.7,0-13.6c0-10-0.1-17.5-0.4-26.8c-0.2-4.9,0.6-10.4-0.4-13.6
	c-1.1-3.4-9.8-9.7-12-10.8C341.6,465.5,331.4,470.1,329.9,473.9 M390.7,461.5c0.7,5.1-6.6,5.1-8.8,9.7c-2.8,5.9-0.8,17.6-1.2,28.4
	c-0.4,9.3-1.8,18.7,0.4,24.4c1.9,5,7.6,5.5,9.2,8.8c-1.5,2.6-5.8,1.6-8.8,1.6c-3.4-0.1-7.1-0.6-9.6-0.4
	c-16.9,1.3-27.3,13.1-37.7,21.2c-4.6-1.8-8.3-5.6-12.8-9.6c-3.5-3.3-8-9.4-12.4-10c-5.1-0.7-8.7,4.3-14.4,3.2
	c0.3-6.2,8.9-6.8,11.2-12c0.5-1.2,1-4.8,1.2-6.8c0.6-7.2-0.4-17.4,0-26.4c0.2-4.4,1-9.3,0.4-12.8c-1.5-8.7-10.5-8.9-12-14.8
	c4.4-1.6,8.9,0.5,13.6,0.8c5.6,0.4,12.3,0.1,17.2-1.6c5.9-2,9.5-5.6,14-8c-6.4-9.3-16.3-19.4-24.5-28.4c-4.7-5.2-8.1-11.4-15.2-14
	c-3.2-1.2-9.9-1.3-10-4.8c0-2.1,3.3-3.4,6-3.6c5.1-0.4,11.9,3.1,14.8,1.6c3-1.6,0.9-17.1,5.6-15.6c4.8,1.5,7.1,9.8,10,14
	c3.4,4.8,8.1,9,12.4,14c9.6,11.1,20.4,23.7,30.8,35.2c2.1,2.4,5.3,5.7,7.2,6C381.9,462.4,387.3,458.7,390.7,461.5"/>
<path class="st0" d="M597.2,465.5c-1.8,7.1-11.9,6.7-14.8,13.3v44.4c0,4.5-0.7,11.4,1.2,13.3c3.9,3.5,10.3-4.4,16.4-2.8
	c0.7,3.6-2.4,4.9-4,6.4c-3.5,3.1-6.4,5.9-10.4,9.6c-1.9,1.7-3.9,4.1-5.6,4.4c-4.2,0.8-8.5-2.2-11.6-4c-4-2.3-8-5.3-8.8-9.6
	c-0.7-3.9,0-9.8,0-15.6c0-10.1,0.4-20,0.4-29.2c-0.1-6,0.6-11.7-0.4-16.1c-1.9-7.8-8.1-11-12.8-15.2c-2.8,1-6.5,3.1-10.4,5.2
	c-3,1.8-7.6,3.5-8.8,6.8c-1,2.9-0.4,10.3-0.4,13.6c-0.1,10.1,0,18.7,0,29.6c0,4.7-0.5,11.3,1.2,13.6c2.7,3.7,9.9,1.6,11.6,5.3
	c-1.8,5-7.8,5.6-11.6,8.3c-3.8,2.8-5.8,7.7-10.4,9.2c-3.6-1.4-5.9-4.7-9.2-7.6c-2.8-2.7-5.6-6.7-9.2-7.6c-3.3-0.9-7.4,1.3-10.8-0.8
	c0.4-4.3,4.8-5.4,7.6-7.2c3.1-2,5.9-4,8-6.8v-38.5c0-8.4,1.2-15.1-4.8-16.8c-4.4-1.3-9.3,2.5-13.2,0.8c0.1-3.7,3.9-5.5,6.8-7.6
	c5.3-3.7,8.6-6.4,12.4-12.4c1.2-2,2.7-5.4,4.4-5.6c2.8-0.3,3.1,2.4,6.1,6c1.5,2,9.6,10.7,12.7,11.2c6.2,1.1,11.4-4.2,17.2-8
	c5.5-3.6,10.5-7.1,14.8-10.4c4.4-3.3,5.6,5.2,8,8.4c1.9,2.5,8.3,7.9,11.6,9.6c2.3,1.2,5.8,2.2,8.4,2.4
	C591.2,465.3,594.1,463.8,597.2,465.5"/>
<path class="st0" d="M456,477.9c-2.4-4.3-4.7-12.5-8.4-14c-3.4-1.4-7.2,0.7-10,2.8v34.8c8.9-2.8,19-4.5,26-9.2
	C461.8,488.3,459.1,483.7,456,477.9 M487.1,490.7c-14.4,8.2-31.8,13.3-48.8,18.8c-0.1,4.5-1.5,10.7,0,14.4c1.2,3.2,6.9,5.2,9.2,6.4
	c3.5,1.9,7.7,5.6,12.8,4.4c9.3-2.3,15-18.4,25.6-12.4c-1,4.4-4.9,7.3-8,10c-6.2,5.3-12.3,10.1-19.6,15.6c-2.6,2-7.8,6.7-10.8,6.8
	c-2.2,0.1-6-2.3-8.8-4c-5.9-3.5-9.3-6.5-15.2-10.4c-2.6-1.7-6.2-4-8.4-4.4c-5.5-0.9-10.6,3.7-17.3,2.5c0.8-8.7,14.1-7.4,15.6-16.5
	c1.2-6.3,0-15.6,0-24.4c0-7.8,1-17.3-0.7-22.4c-2.5-7.3-11.7-7.5-12.8-14c7.2-2.2,12.8,0.7,18.8,0.3c17.4-0.9,30.7-9.8,42.8-15.5
	c4-1.9,6.6,7.6,8,10.8c3.6,7.8,7.8,15.8,11.6,22.8C483.3,483.4,485.2,486.9,487.1,490.7"/>
<path class="st0" d="M225,258.6c-1.8,5.1-3.4,12-2.4,18.8c0.5,3.3,3,6.1,2.4,9.2c-0.7,0.2-2.4-0.5-2,0.8c-0.1,3.9,1.3,7.7,2.8,10.8
	c1.4,2.8,3.3,6.5,5.6,8c2,1.3,5.2,0.6,6,3.6c-0.4,1.2-2.4,0.9-2,2.8c7.7,4.7,24.3,3.1,26-4.8c-2.5-3-6.4,0.1-8,1.6
	c-2.7-0.9-5.8-1.4-6.4-4.4c-5.9-1-10.8-7.1-6.8-13.2c-2.6-2-6-3.3-6.8-7.2c2.4-3.3,1-5.9,2.4-10c-0.7-2-3-2.4-3.2-4.8
	c1.6-2.8,2.7-7.1,0.8-10.4C230.6,259.1,227.8,258.8,225,258.6 M419.5,261.4c-0.1,2.5,1.4,4.2,2,6.8c-0.7,2-2.8,2.5-3.2,4.8
	c-0.1,0.6,0.7,1.8,0.8,3.2c0.1,1-0.5,2.3-0.4,2.8c0.4,1.6,2.4,2.5,2,4c-1.2,3.1-4,4.8-6.8,6.4c2.5,5.2,1.6,9.9-3.2,13.2
	c-1,0.7-2.5,0.8-3.6,1.6c-1.4,1-2.1,2.9-3.6,3.6c-5.5,2.6-8.6-2.2-12.4,0c0,4.4,6.9,6.6,12.4,6.8c5.8,0.2,12.4-1.3,14.8-4.4
	c0.5-2.1-1.9-1.2-1.6-3.2c1.6-2.4,4.4-1.8,6.4-3.2c2.2-1.5,3.8-5.1,5.2-8c1.5-3.1,3.1-7,2.9-10.8c0.2-1.1-2.2,0.3-2-0.8
	c2.3-7.7,4.4-18.9,0.8-26.8C424.3,256.3,419.7,256.3,419.5,261.4 M305.4,219.8c1.3-0.2,1.4,0.7,2.8,0.4c0-1.4-0.9-2-2-2.4
	C306.6,219.1,305.6,219,305.4,219.8 M349.5,222.2c2.6,0.2,3.7,0,6.8,0c-0.1-2.3-1-3.8-2.4-4.8C352.6,219.2,350.7,220.3,349.5,222.2
	 M407.9,220.1c-0.5,4.9,2.8,6,4,9.2c2.2-1.5,4.2,1.3,5.6,0.4c-0.4-5-6.3-4.4-6.4-9.6c-2.9-0.8-4.4-3.1-5.6-5.6
	c-1.1,0.4-2.2-1.2-2.8,0C404.4,216.4,405.8,218.7,407.9,220.1 M250.2,215c-0.8,2.7-2.4,4.5-5.2,5.2c0.3,5.4-7.1,5.2-6,10
	c1.9-0.4,2.8-1.8,5.2-0.8c1.4-3.1,4.7-4.4,4-9.6c2.5-1.1,3.8-3.4,5.1-5.6C251.9,214.1,251.5,214.9,250.2,215 M216.6,232.2
	c-0.1,1.7-1.6,1.9-1.6,3.6c0.9,2.3,1,4.2,2.4,5.6c2.7,2.7,7.5,2,10.4,4.4c0.5,2.2-2.1,3-0.7,4.8c8.4,3,17.9-3.7,14.8-12.4
	c-2.5,0.3-3.3,2.3-6,2.4c-0.6,1.7,0.1,4.6-1.6,5.2c-1.1-1.2-1.4-3.1-2.4-4.4c-1.4-0.6-3.2-0.8-4.8-1.2c-1.4-1.4-1.9-3.4-1.2-6
	c-2.1-1.1-1.1-3.3-1.6-5.2c-0.3-1.3-1.1-1.8-1.2-2.8c-0.6-4.6,0.5-10.1,1.6-14.4c-3.4,0.2-4.9-1.5-7.6-2
	C214.6,215.9,214.4,225.6,216.6,232.2 M439.5,234.6c-0.1-1.4-1.4-1.5-1.6-2.8c2.7-6.5,2.2-15.9,0-22.4c-2.7,0.4-4.4,1.9-7.6,2
	c1.4,4.6,1.1,9.5,1.6,14.5c-0.8,1.8-2.3,3.4-1.2,6c-2.4,0.6-1.1,5-2,7.2c-1.4,0.8-3.2,1.4-5.2,1.6c-1.6,1.1-1.4,4-3.2,4.8
	c-1.2-1.7-1.1-2.3-1.2-4.8c-2.1-0.8-3.6-2.3-6-2.8c-3.4,9,6.3,15.3,14.8,12.4c0.5-2.4-1.8-3.5-0.8-5.2
	C432.6,242.9,439.8,242.5,439.5,234.6 M283.5,207.7c1.2-0.3,0.7-0.3,2,0c-0.2-0.7,0.5-2.4-0.4-2.4
	C284.5,206.2,283.1,206.1,283.5,207.7 M257.4,210.2l1.6-0.8c-0.3-1.4,0.5-3.7-0.4-4.4C258.3,206.4,256.8,209,257.4,210.2
	 M397.1,208.9c-0.1-2-0.5-3.7-1.6-4.8C395.5,206.3,395.1,208.9,397.1,208.9 M347.9,205.4c1.6,0.6,2.1-1.9,1.2-2.4
	C348.7,203.8,347.9,204.1,347.9,205.4 M356.3,204.1c-0.9,1.6-1.3,3.5-3.2,4l-2.4-1.2c0,1.7-1.7,1.8-1.2,4c1.6,0.4,1.9-0.8,3.1-0.8
	c-0.6,1.2-0.6,4.7,0,6c1-0.3,1.9-0.6,3.2-0.4c0.9,2,1.8,4.1,2.8,6c-1,1.7,0.4,4,2,4.4c1.4-0.9-0.5-2.8,1.2-3.6
	c1.5,0.4,2.1,1.7,2.8,2.8c3.8-0.4,4.4,2.5,6.4,4c2.4-5.2-0.7-10.7-4.4-12.4c0.7-0.6,1.6-1,1.6-2.4c-0.1-2.8-3.4-2.2-3.6-4.8
	c1.9,0,3.2-0.4,3.2-2.4c-2.6-0.5-0.4-4-2-6C362.5,202.1,361.3,205,356.3,204.1 M289,207c-0.9,1.5-1.1,3.7-1.2,6
	c0.8,1.7,3.2,1.9,3.2,4.4c-1,1-4.2-0.2-5.2,0.8c-0.8,2.8,2,1.8,2,3.6c-0.6,0.9-1.7,2-2.8,3.2c-0.8,0.8-3.5,2.1-2,2.8
	c2.6,0.2,2.6-2.2,5.2-1.9c0.1-1.6,0.6-2.7,2-2.8c2.3,0,2.1,2.5,4.4,2.4c0.9-0.9,0.4-3,1.2-4c3.3-1.4,4,2.1,7.2,2
	c-0.7-2.8,0.6-3,1.2-5.2c-0.5-1.1-1.2-1.9-1.5-3.2c0.5-3.1-1.4-6-2-8.8c-0.5-2.1,0.4-5.4-2.4-6C297.4,204.6,295.1,207.7,289,207
	 M302.3,195.7c0-0.9-1.5-0.2-2-0.4C299.7,196.6,302.5,197.3,302.3,195.7 M300.3,192.9c3.5,0,6.2,0.7,10,0.4
	C308.4,190.6,302.6,190.6,300.3,192.9 M366.7,191.4l0.4,0.8c4.4,0.2,7.9,1.1,10.4,3.2C376.4,191.9,371,188.9,366.7,191.4
	 M288.7,190.2c-0.9,1.9-1.4,3.5-2.8,4.8c-2.3,2-7.4,1.2-7.2,5.6c3.9-0.5,4.3,2.4,7.6,2.4c1.9-1.4,5.2-2.1,8.4-1.2
	c1.7-1,3.7-3.8,2.4-6.4c-2.7,0.3-6.7,2.3-8.4,0c1.1-4.6,8.7,1.3,8.4-5.2C294.8,189.2,291.1,190,288.7,190.2 M356.7,189.8
	c-1.7,3-4.5,4.8-7.1,6.8c-1.6,0.5-3.2,0.9-3.3,2.9c0.9,0.3,1.4,1,2.8,0.8c0.3,0.7,0,2.2,1.2,2c1.7,0.4,1.9-0.8,3.2-0.8
	c4.6,2.5,10.6-0.2,11.2-5.3c1,0.2,1.7-0.1,1.6-1.2C364.6,191.7,361.7,188.4,356.7,189.8 M363.9,188.6c2.9,1.3,9.7,0.3,13.6,0
	C373.4,187,367.2,185.6,363.9,188.6 M298.6,189.3c1.7,0.9,3.6-0.9,6-1.2c2.4-0.3,5.1,0.7,6.4-0.4C308,186.1,298.4,185.5,298.6,189.3
	 M376.7,173.7c-2.5,0.3-5.5,0.5-6.4,2.4c8.3,0.3,17.6-0.5,25.2,0.4c0.9,7.9-1.3,14.9,0,21.2c0.7,3.6,5.1,8.8,7.6,11.2
	c1.6,1.6,3.9,2.7,6,4c2.2,1.4,4.4,3.5,6.4,4c2.2,0.6,5.9-1.1,6.4,2.4c-0.6,2.1-3.6,1.8-4.4,3.6c3,3,3.5,8.6,6.8,11.2
	c2.5-2.4,0.1-5.9,0.4-9.6c4.9-1.4,1.8-9,0.8-12.4c-13-1-20.9-7.2-20.8-21.2c0.6-1,1.9-1.4,2.4-2.4c-0.8-3.1-4.8-2.9-5.6-6
	c1-2.3,0.2-3.5-0.4-6C396.1,173.3,384.8,172.8,376.7,173.7 M272.6,173.3c-7.8-0.4-16,0.7-19.6,3.6c-0.5,2.7-0.8,3.5,0,6
	c-1.2,2.3-4.1,2.8-5.6,4.8c0.2,2.2,2,2.2,2.4,4c1.2,5-2.1,11.3-5.2,14.4c-4.1,4.2-10.6,5.8-16,6c-0.4,3.6-1.9,6.1-1.6,10.4
	c0.4,1.5,2.8,0.9,2.8,2.8c0,2.9-2.2,7.5,0.8,8.8c2.5-3.5,3.9-8.1,6.4-11.6c-1.5-1.4-4.6-1-4.4-4.1c1.6-2.5,5.1-1.1,7.6-1.9
	c0.6-0.2,1.7-1.3,2.8-2c6.1-3.7,14.8-10.6,16-17.6c1.1-6-1.2-13.7,0.4-20.8c8.1-0.2,17.3,0.6,24.8-0.4
	C281.7,173.8,277,173.6,272.6,173.3 M249.5,172.5c-1.2,0.1-1.4-1.5-2.4-0.4c-1.9,1.9-2.3,4-4.4,5.6c-2.1,1.5-5.8,1.5-6,4.8
	c2.2,1.2,3.3-0.6,5.2-0.8c1.1-0.1,0.8,1.3,2.4,0.8c3-2.7,3.7-6.2,7.2-8.5c3.7-2.2,9.7-2.8,15.2-3.1c2.7-0.2,7.6,0.6,9.2-0.8
	c-4.6-1.2-11.2-1.8-15.6,0C258,165.8,251.5,170.9,249.5,172.5 M393.1,170.1c-4.5-2.4-11.6-1.5-16,0.4c9.4,0.1,18.3,0.7,25.2,3.2
	c2.9,2.4,4.6,6.1,7.2,8.8c1.7,0.4,1.3-1.3,2.8-1.2c1.3,1.3,3,1.9,4.8,0.9c-0.5-3.6-4.7-3.2-6.8-4.8c-2.1-1.7-1.6-4.9-4.4-5.6
	c-0.5-1.2-0.8,1.2-1.9,0.8C402.3,169.9,395.3,166.1,393.1,170.1 M315.1,165.3c0.9,0.2,2.4,0.8,3.2,0c0.2-2-1.4-2-3.2-2V165.3z
	 M418.3,167.8c-2.1-3-2.5-5.3-6-5.6c-2.3-0.2-4.6,1.4-6.8,1.2c-2.2-0.2-3.8-2.1-5.6-2.4c-2.5-0.4-4.6,0.8-7.1,0.8
	c-1.7,0-3.4-1.1-4.8-0.8c-2.7,0.5-2.9,3.1-6,3.2c-2.6,0.1-4-1.4-5.6-2c-3.3,5.5-10.7,2-16.8,4c-1.9,0.6-3.2,3.9-6,4.4
	c-2.1,0.4-3.2-0.4-5.6-0.8c-0.6,1-0.3,2.8-1.2,3.6c-2.3,0.5-5,0.6-5.6,2.8c6,0.3,8.6-1.8,13.2-3.6c9.2-3.5,20.1-6.5,31.2-7.2
	c4.2-0.2,10.3-1,14.8,0.4c1.4,0.4,2.6,2.1,4.4,2.8c3.2,1.1,6.7-0.1,9.6,2c0.8,2.5-2.9,2-1.6,3.6c5.3,3,9.6,7.1,14.4,10.4
	c-0.1-2.6,0.5-3.5,0-5.5c-1.5-1.4-1.9-4-4-4.9c-0.8-1.2-0.9-3.3-0.8-5.6C420.4,168.9,419.7,168,418.3,167.8 M270.3,164.1
	c-2.1-0.2-3.3-2.8-5.6-3.2c-1.8-0.3-2.6,0.7-4.8,0.8c-4.8-2.9-9.4,1.4-12.8,1.6c-2.5,0.2-4.8-1.6-7.2-1.2c-4.2,0.8-4,7.7-9.2,6.4
	c0.2,2.5-0.3,4.2-0.8,6c-0.5,0.4-1.1,0.5-2,0.4c-0.7,3.6-3.3,4.9-2,9.6c4.8-3.9,10-7.3,14.8-11.2c-0.9-0.6-2.9-1.5-2-2.8
	c2.9-2.2,6.4-0.9,9.7-2c1.8-0.7,3.2-2.4,4.8-2.8c4.6-1.3,10.2-0.6,14.4-0.4c11.2,0.7,22.5,3.9,31.2,7.2c4.7,1.8,8.2,4.5,13.2,3.2
	c-0.9-2-4.1-1.8-6-2.8c-1-0.3,0.4-3.1-1.3-2.8c-1.6-0.5-3.4,1.1-6,0.4c-1.7-0.4-2.6-3.1-4.4-4c-3.5-1.6-9.1,0.1-13.2-1.2
	c-2.2-0.7-2.7-2.3-4.8-3.2C274.1,163.5,272.5,164.4,270.3,164.1 M323.5,155.7v4.4c-1.2,0.8-3,1-3.6,2.4c1.1,1,3.7,0.6,4.4,2
	c-0.4,1.4-2.4,1-2.4,2.8c3.5,0.1,2.5,5.3,1.2,7.2c0.6,2,4.7,2.3,4.8-0.4c-0.7-1.1-1.9-1.8-2-3.6c1.2-0.5,2.1,0.3,4,0
	c0.8-1.4-0.7-2-0.4-4c1.9,0.1,4.7,1,6.4,0c0.1-2.7-2.9-2.2-3.2-4.4c-0.2-1.3,1.2-0.9,0.8-2.4c-0.3-2.3-3.7-2-2.4-4.8
	C328.4,154.9,325.8,154.1,323.5,155.7 M330.6,152.1c0.6,0.9,2.3,0.6,3.3,1.2c-0.4-1.8-1.4-3.1-2.8-4
	C330.5,149.9,330.6,151.1,330.6,152.1 M238.2,149.3c-5.2-0.6-8.4,4.8-12,2c-3.7,2.7-6.6,6.1-9.2,10c-1.6,0.4-1.6-0.8-2.8-0.8
	c-2.1,4.6-4.4,10-4,16.1c0.3,5,3.7,8.3,4,12.8c-0.8,0.7-2.7,0.3-3.6,0c0.2,5.4,7.4,3.8,9.2,7.6c-0.1,1.1-0.7,1.7-2,1.6
	c0.7,1.3,1.8,3.1,3.2,3.6c4.5,1.5,7.4-2.1,11.2-3.2c3.5-1,6.9-0.3,6.8-3.6c-3-1.1-5.1,2.5-8.4,1.2c-1.4-2.4-4.4-4.6-8.4-3.2
	c-0.3-6.1-2.1-12.5,0.8-16.4c-0.4-0.9-0.4-1.6-0.4-3.6c3.2,0.3,1.6-4.2,2-6.8c2.3-0.5,4-3.3,7.2-1.6c1.9-1.2,1.9-4.4,4-5.6
	c3.8-0.4,5.6-2.7,9.6-2.8c1.5,0.2,1.4,2.1,2.8,2.4c1.7-0.3,2.8-2.4,5.1-2.8c1.4-0.1,4.3,0.9,6.8,0.9c1.9,0,3.7-0.7,4.8-0.4
	c2.9,0.7,3.1,3.9,4.8,4.8c1.6,0.5,3.2-1,4.8-1.2c6.5-0.8,9.4,2.3,14.4,2.8c5.8,0.6,9,0.6,10.8,4c1.9-0.1,1.1-3,3.2-2.8
	c2.8,3.3,8.6,2,6.4-3.6c-9.6-2.5-21.3-2.1-30.8-1.6c-0.9-0.7-0.5-2.9-1.2-4c-5.8-1.5-13.4-2.5-20.4-1.6c0.1-1.2,1.1-2.5,0.4-3.2
	c-5.7-2-12.6,0-18,0.8C238.4,151.1,239.8,148.7,238.2,149.3 M319.9,151.3c-0.3-2-2.8-2.8-4.8-1.6c-1.9,1.2-1.9,5.3-3.6,6.1
	C316.9,156.4,320.5,154.6,319.9,151.3 M395.5,149.3c-0.6,1.4,1.2,2.6,0,3.2c-6.8-1-14.7-0.2-20,1.6c-0.8,0.8,0,3.3-1.2,3.6
	c-6.5,0.4-13.9,0.7-21.2,2c-3.7,0.7-9.3,1-9.6,4.4c1.9,2.8,5.4,0,6.8-1.2c1.5,0.5,1.4,2.6,2.8,3.2c1.7-1.9,4-3.9,7.2-4.4
	c0.8-0.2,1.8,0.4,2.8,0.4c3.4,0,6.5-2.4,10-2.8c4.2-0.5,7.3,0.5,9.6,1.2l0.8-0.4c1.7-0.9,1.8-3.7,4.4-4.4c1.2-0.4,3.1,0.5,5.6,0.4
	c2.8-0.1,5.5-1.2,7.2-0.8c2.2,0.6,2.7,3.1,4.4,2.8c1.1-0.5,0.8-2.4,2.4-2.4c4.3,0,6.4,2.4,10.4,2.8c0.9,1.7,1.6,3.7,2.8,5.1
	c2.2,0.3,3.4-0.5,4.8,0c1.1,0.5,1.2,2.4,2.7,2.4c-0.2,2.2,0.4,4.4,0,5.6c0.5,0.5,2,0.2,2,1.2c0.4,1.4-0.5,2.8,0,4.4l1.2,1.6
	c0.6,4.4-0.1,9.5-1.2,13.2c-5.4-1.8-6.1,3-8.4,3.6c-3.1,0.8-4.3-2.3-8-1.2c0.4,2.7,2.9,3.4,6.4,3.2c3.2,1.9,6.3,3.9,11.6,3.6
	c1.1-1.2,2.7-1.8,3.2-3.6c-1.1-0.2-2.3-0.4-2-2c2.7-3.1,9.1-2.4,9.6-7.6c-1.3,0.3-3.1,1.5-4,0c0.4-4,3.5-7.1,4-11.6
	c0.7-7.5-1.9-12.3-4-16.8c-0.6-1-1,1.6-2.8,0.8c-2.2-4.1-5.6-7-8.8-10c-4.6,2.2-7.6-2.7-12.8-2.4c-1.2-0.2,0.3,2.2-0.9,2
	C407.9,149,401,147.2,395.5,149.3 M333.9,147.7c-1.1,5.9,17.4,11.9,14.8,2c-2.8,1.3-7.7,4.5-10.4,1.2c-0.3-2.8,1.5-3.3,2-5.2
	C337.3,144.8,334.3,145.5,333.9,147.7 M303,119.3l1.6,0.8l0.8-2.8C303.8,117.2,302.9,117.7,303,119.3 M335.9,121.3
	c3.4-0.6,5.7-2.3,6.4-5.6C338.7,114.4,334.2,117.3,335.9,121.3 M304.6,115.3c2.1,0.5,3.9,1.3,5.2-0.4c-0.1-1.3-0.3-2.6-1.6-2.8
	C308.2,114.3,305.3,113.7,304.6,115.3 M329.5,114.1c-1.1,0.6-2.4,1.1-4,1.2c-0.1,1.6-0.5,2.7-1.2,4.4h-3.6c0.2,1.5-0.4,2.3-0.8,3.2
	c-1,0.1-1.5,0.6-2.8,0.4l-0.8,2.4c-3.7-1-5,0.9-7.2,2.4c0.3,1.6-0.7,2.6,0,3.2c-2.9,3.5-2.5,12.1-2.4,17.2c-1.3,0.8-3.2,0.9-4,2
	c-0.8-0.6-3.3-1.6-3.6,0c4.9,1.6,9.8,0.9,12-2.4c1-1.6,1.3-4.5,2.4-6.4c1.2-2.1,2.2-4.3,4.4-4.8c2.2,1.1,2,4.6,2,8
	c0.6,1.6,4.9,3.8,6,1.2c-0.8-1.3-3.4-0.9-3.6-2.8c0.9-0.9,2.3-1.5,2.4-3.2c-0.6-1.8-3.3-1.5-3.6-3.6c1.3-3.8,4.4,0.2,5.6,1.2
	c2.2-1.9-1.9-3.4-0.8-5.2c1.7-0.3,5,2.5,8,0.8c0-2.3-2.6-2-2.8-4c0.2-1.9-0.6-2.9-0.8-4.4c-1.1-0.7-3.2-0.5-3.6-2
	c0.6-1.3-0.1-1.6,0-3.2c2.5-1,5.5,0.7,7.2-1.2c-0.3-3.8,1.8-9.1-4.4-8.4C329.5,112.2,329.7,112.1,329.5,114.1 M332.7,91.3
	c1.1,1.2,2.5,1.4,3.6,0C335.6,90.7,333.1,89.7,332.7,91.3 M336.6,88.1c-0.8-0.7-2.1-1-3.6-1.2C332.8,88.6,335.7,89,336.6,88.1
	 M340.3,85.7c0.9,2,3.3,2.5,5.6,3.2C345.9,86,343,84.6,340.3,85.7 M319.9,86.9c-3.5-2.6-4.7-0.6-7.6,1.2c-1,0.6-2.2,0.8-2.8,1.2
	c-0.8,0.7-1.4,2.4-2.4,3.2l-2.4,1.2c-1.8,1.7-2.5,4.3-4.4,4.8c-0.1,2-0.9,3.4-1.6,4.8c3.2,0,3.7,2.7,5.2,4.4l1.6-0.4
	c0.7-0.9,0.4-2.8,1.6-3.2h2.4c1.8-1.8,5.2-2,7.6-3.2c1.1,0.6,1.5,1.9,2.4,2.8c2.1-0.7,2.2-3.4,6-2.4c0.4-2.8,2.2-4.2,2-7.6
	c-3.2-0.3-7.1-3.6-4.8-6.8c2.3-0.7,4.6,2.4,5.6,0.4c0.4-1.5-1.6-0.6-2.4-0.8c-1.6-1.2-2.6-2.9-5.2-3.2
	C320.6,85.3,321.5,86.1,319.9,86.9 M327,81.6c1.8,0.2,1.8,2.3,4,2c0.9-0.5,1.7-1.3,1.6-2.8C330.9,80.4,327.8,80,327,81.6
	 M308.7,70.5c6,0.7,9.2,4.4,13.6,6.8c6.7-3.1,14.9-5.1,25.6-4.4c7.2,0.5,14.7,2.6,20.8,5.7c6,3,13.1,6.7,13.6,12.8
	c-7.9-2.4-14.6-8.6-25.2-9.2c-3.8-0.2-7.6,0.5-12,0.8c1,3.2,5.4,2.1,8,2.4c11.6,1.3,20.3,6.8,27.3,13.6c2,2,5.8,4.8,4,8
	c-3.3,0.5-4.4-3.1-6.4-5.2c-6-6.1-16.5-9.2-26-10c-1.5-0.1-3-0.7-4.4-0.4c-2.7,0.6-3.5,3.7-6.4,4.8c3,5.8,6.4,8.7,5.6,17.2
	c-0.3,2.8-1.7,5.2-2.4,8c-1.2,4.7-2.2,10.8-2,14.8c0.3,6,4.6,7.9,8,12c8.7-1.3,15-5,22.8-7.2c1.4-0.3,1.9,0.4,2.8,0.8
	c4.4-0.4,9.5-4,15.2-4.4c1-0.1,1.7,0.7,2.8,0.8c5.5,0.5,17-4.4,22,0c7.7,0.2,13,2.8,18.8,4.8c2,5.4,8,6.7,11.6,10.4
	c0.5,1.3-0.1,1.1,0,2.8c4.6,6.3,9.1,13.8,8.8,23.3c-0.3,11.7-7.2,20.2-12.8,26.4c1.1,2.2,2.4,4,3.6,6c0.2,7.8,3.8,12.2,2.8,21.2
	c0.2,1.6-1.7,1.2-2,2.4c-0.9,6.9-4.2,11.6-6.4,17.2c-0.8,0.7-2.3,0.7-3.2,1.2c-1.8,2.2-0.9,4.8-0.4,9.2c0.3,3-0.1,6.4,0.4,8
	c0.9,3.6,4.4,4.9,4.4,7.2c-1.3,0.1-3.3-0.3-4,0.4c-1.1,6.5-2,15.4,0,21.6c-1.6,0.3-1.6-1.1-3.2-0.8c-4.4,4.2-8.8,8.3-9.2,16.4
	c-2.2,0.2-3.4-0.6-4.8-1.2c-7.6,6.4-27,9.5-34.4,1.2c-5.3-5.9-1.1-16.1,6.8-16c2.9,0.1,4.3,2,5.9,4.4c1.6-0.3,2.7-1,4.8-0.8
	c1-2.9,2.7-5.1,5.6-6c0-1.8-1.5-2.2-1.2-4.4c0.6-2.7,3.2-2.2,2-6c1.1-1.8,2.5-3.4,4.4-4.4c-5.3-3.4,1.3-8.1,1.2-12
	c0-2.1-1.2-2-2.1-4V255c-5.5-2.8-8.5-6.8-9.5-14.4c-0.3-2.3,0.2-4.6-0.4-6.8c-1-3.6-5.3-5-4.4-9.2c1.4-1.2,3.2,0.7,4-0.8
	c0.2-6.7-3.6-9.4-7.6-12V225c0,4.1-1.1,9.2,0,12.8c0.6,1.9,3.1,2.6,4.4,4.4c1.6,2.1,1.9,5.3,3.2,8c1.8,3.7,4.5,5.8,6.8,8
	c-4,5.4-1.5,17.2,0.4,22.8c-1.6,0.6-2.8,1.7-4.4,2.4c0.1,2-0.2,3.5-1.1,4.4c-2.8-1.6-3.6-5.3-4.1-9.2c-1-1.2-1.3,1.6-2.4,0.4
	c0-10,1.9-22.2-2.4-28.8c-0.9,2.8-0.1,7.3-0.4,10.8c-22.8-16-45.1-32.6-67.2-49.2C304.9,227.9,282.5,245,259,261v-10.4
	c-8.2,9,0.8,26.8-3.2,38.4c-4.7-1.9-5.1,1.5-10,1.2c0.9-2,1.1-4.8,1.6-7.2c-0.2-1.8-2-1.8-3.2-2.5c1.6-3.1,3.5-5.8,3.2-10.8
	c-0.4-0.9-2.5-0.1-3.6-0.4c0.6-3.3,3-5.4,4.4-8.4c1.5-3.2,1.8-6.4,2.7-10c1.9-6.6,5-12.5,8-17.7V215c-2.4,2.4-7.6,5.8-8.4,11.2
	c1.4,0.7,3.8-0.5,4.8,1.2c-0.1,2.9-1.9,4-2.8,6c1.8,13.6-5.2,21.8-14,26.1c0.3,2.6,1.5,2.9,1.2,5.6c-0.2,1.8-2.4,3.4-2.4,4
	c0,1,2.4,2.8,2.7,4c0.3,1.2-0.3,3-0.4,4.8c0,2.5,1.1,3.5-0.4,5.6l-1.6,1.2c0,0.7,2.9,2.5,3.6,3.6c2.8,4.4,1.6,11.2,7.2,12.8
	c0.9,2.3,3.1,5,6.4,3.6c1.5-0.6,0-2.1,0.8-3.6c9.1-6.7,18.4,4.2,12,12.4c-2.9,3.7-10.9,6.5-17.6,7.2c-11.2,1.1-21.6-2.8-26-8.8
	c-1.9,0.2-2.6,1.6-4.4,2c-1.2-1,0.1-3,0-4.8c0-3-1.1-6.4-1.2-9.2c-1.1-1.2-2.9,0.5-4-0.4c3-4.6,3.6-11.6,2.8-18.8
	c-0.5-1.3-3.1-0.6-4.4-1.2c0.1-1.4,4.5-3.4,4.8-6.4c0.2-2,0.1-5.1,0.4-8c0.4-3,1.4-5.8,1.2-6.8c-0.6-2.7-3.6-3.8-5.6-4.4
	c-4.2-3.9-4.2-12.1-8.4-16c-1.8-7.4-0.1-15.8,2.4-21.2c0-1.3-0.7-2-0.4-3.6c1.6-2.2,3.3-4.2,4.8-6.4c-2-2.3-4.8-3.8-6.8-6.4
	c-9.3-11.7-9.4-34,0.8-44.4v-2.8c3.2-3.8,9.8-4.2,12-8.8c3.1-1.2,6.3-2.2,9.6-3.2c1.3,0,1.3-1.5,2.4-2c4.1-1.8,11.5,0.7,14.8-2
	c6.5,0.4,12.4,3.2,17.6,3.6c2.9,1.1,5.6,2.4,8,4c1.4,0.4,1.5-0.6,2.8-0.4c6.1,3.1,12.7,5.4,18.8,8.4c0.3-2.1-2.8-4.1-4.8-5.2
	c-0.3-3.4,1.9-4.6,3.2-4.8c4.3-0.9,6.6,4.4,10,3.2c3-1,1.9-4.1,2.4-8.4c1.4-12.1,12.5-16.8,18-25.2c-0.8-3.3-3.9-6.1-7.6-4
	c0.2,3-0.7,4.9-0.4,8c-2.4,1.6-4.4,3.7-6.9,5.2c-0.3,3-2.2,4.5-3.2,6.8c-0.5-3.3-4.9-7.1-4.4-10.4c0.4-2.5,3.6-3.1,6-4.8
	c-4.3-3.2-12.6-2.7-13.6-8.4c-0.7-4.7,4.7-9.1,8-12.4c3.9-3.9,7.9-7,10.8-9.2C309.2,78.6,308.1,74.9,308.7,70.5"/>
</svg>
