<svg xmlns="http://www.w3.org/2000/svg" viewBox="0 0 1953.07 535.75"><defs><style>.cls-1{fill:#000101;fill-rule:evenodd;}</style></defs><title>carmina-seeklogo</title><g id="Page_1" data-name="Page 1"><g id="Layer_1-2" data-name="Layer 1"><polygon class="cls-1" points="234.6 335.09 234.6 382.47 233.64 382.47 229.35 378.28 224.59 374.36 219.82 370.69 215.05 367.29 209.8 364.02 204.56 361.13 199.31 358.39 194.07 356.03 182.62 352.1 170.7 349.23 158.78 347.65 146.86 347.13 137.8 347.39 129.22 348.18 120.16 349.75 111.57 352.1 102.99 354.99 94.89 358.65 86.78 362.97 79.63 367.81 75.82 370.3 72.95 373.05 69.61 375.93 66.76 378.94 63.89 382.08 61.51 385.48 59.13 389.02 57.22 392.68 53.41 400.27 51.97 404.2 50.07 412.31 49.11 416.5 48.63 420.69 48.63 428.55 49.59 435.88 50.07 439.41 51.97 446.48 54.84 453.29 56.26 456.56 60.08 462.84 61.99 465.85 66.76 471.61 69.14 474.23 72 476.71 75.82 479.86 79.63 482.87 83.44 485.62 87.74 488.23 96.8 492.81 105.86 496.61 115.39 499.49 124.92 501.45 134.94 502.5 144.48 502.63 157.35 502.37 169.75 500.93 181.67 498.05 187.87 496.22 193.59 494.12 199.31 491.64 205.03 488.76 210.76 485.75 216 482.47 221.25 478.81 226.01 474.88 230.78 470.82 235.07 466.51 236.5 466.51 236.5 514.28 226.01 519.25 215.53 523.58 204.56 527.37 193.59 530.38 182.62 532.74 171.18 534.44 159.74 535.36 148.29 535.75 145.43 535.62 131.6 535.36 117.3 533.79 103.47 531.17 89.64 527.37 76.29 522.53 70.09 519.78 63.42 516.64 57.22 513.23 51.02 509.57 45.3 505.77 39.57 501.72 34.81 498.18 30.99 494.52 26.7 490.59 22.89 486.4 19.55 482.08 16.21 477.5 13.35 472.79 10.49 467.81 8.11 462.84 4.29 452.37 2.86 447 0.95 436.01 0.48 430.51 0 424.88 0 419.38 0.95 414.41 1.43 409.44 2.86 404.59 3.82 399.75 5.72 395.04 7.16 390.33 9.53 385.75 11.92 381.29 14.3 376.97 16.69 372.79 20.03 368.73 22.89 364.8 26.22 361.13 30.04 357.6 33.38 354.2 37.67 350.93 43.39 346.48 49.59 342.29 55.79 338.36 62.47 334.69 69.14 331.29 75.82 328.28 82.97 325.4 90.12 322.92 104.42 318.86 118.73 315.98 133.99 314.41 148.77 314.15 159.74 314.41 171.18 315.45 182.15 317.16 193.11 319.38 203.61 322.39 214.09 326.06 224.59 330.25 234.6 335.09 234.6 335.09"/><path class="cls-1" d="M170.43,1957.78v210H122.74v-29.06h-.95l-4.77,4.06-4.29,3.8-4.77,3.4-4.77,3.14L98,2156l-5.25,2.75-10.49,4.84-11,3.93-11,2.88-11.45,2.09-11.44,1-11.92.13-9.06-.26-9.54-.65-9.06-1.18-9-1.83-9.06-2.36-9.06-2.75-8.58-3.4-8.59-3.93-6.68-3.4-6.19-3.8-6.2-4.19-5.72-4.71-5.25-5.1-4.77-5.37-4.77-5.76-4.29-6-3.81-6.28-3.34-6.55-2.86-6.81-2.39-6.93-1.9-7.2-1.43-7.2-1-7.33-.47-7.33v-5.89l.47-5.89,1.91-11.52,1.43-5.76,1.91-5.63,4.77-10.73,2.86-5.24,2.86-5.1,3.34-4.85,3.34-4.58,3.81-4.58,4.29-4.19,4.29-3.92,4.3-3.8,5.24-3.66,5.24-3.41,5.25-3.27,5.72-3,11.44-5.23,11.92-4.19,11.93-3.28,12.39-2.22,12.4-1.18,12.88-.13,12.87.26,12.87,1.57,12.88,2.88,12.4,3.93,6.19,2.49,5.73,2.74,5.72,2.88,5.72,3.28,5.72,3.53,5.25,3.8,4.76,4,5.25,4.32h.95v-30ZM31.67,1985l-12.88.66-12.87,2.22-6.2,1.71-6.2,2.09-6.19,2.49-5.73,2.75-4.29,2.35-4.29,2.62-3.82,3-3.81,3.14-3.81,3.41-3.34,3.66-2.86,3.93-2.86,4-2.86,4.32-3.82,8.91-1.91,4.71-2.85,14.53v9.29l1,8.38,1.9,8.37,1,4.06,1.9,4.06,1.43,3.8,1.91,3.92,2.39,3.67,2.38,3.53,2.39,3.41,2.85,3.27,2.87,3.14,2.86,3,3.33,2.75,6.68,4.84,7.63,4.32,7.63,3.53,7.63,2.88,8.1,2.36,8.58,1.44,8.11.79,8.58.13,10.5-.26,10-1.18,10-2.1,10-2.88L78.4,2132l5.24-2.49,5.25-3,5.25-3.27,4.76-3.8,4.29-4.06,3.82-4.45,3.81-4.71,3.34-5.1,2.86-5.24,2.86-5.5,1.91-5.62,2.86-11.78.48-5.89v-10.35l-.95-8.37-1.92-8.12-1.42-4.06-1.43-3.92-1.91-3.8-1.91-3.66-2.39-3.54-2.38-3.4-2.86-3.27-2.86-3.14-2.86-2.88-3.34-2.75-3.34-2.49-7.15-4.45-7.63-3.8-7.62-3.27-8.11-2.62-8.11-2-8.58-1.44-8.11-.65-8.58-.14Z" transform="translate(381.26 -1637.87)"/><polygon class="cls-1" points="672.32 319.9 672.32 342.68 673.27 342.68 675.66 340.72 680.9 335.61 686.15 330.9 692.35 326.45 698.55 322.52 702.84 320.43 707.13 318.6 716.19 315.98 725.73 314.41 735.26 314.15 735.74 314.15 746.23 314.93 757.2 316.89 767.68 319.9 777.7 323.96 755.29 356.56 747.18 352.24 742.41 350.01 737.17 348.44 731.92 347.52 726.68 347.13 720.96 347.39 712.85 348.44 705.22 350.67 701.88 352.37 698.55 354.2 695.21 356.42 691.87 358.78 689.49 361.66 686.63 364.67 684.24 367.81 680.43 374.62 677.56 381.95 676.61 385.75 675.18 390.59 674.23 395.43 673.75 400.27 673.27 405.25 672.8 410.09 672.32 415.06 672.32 529.86 625.12 529.86 625.12 319.9 672.32 319.9 672.32 319.9"/><polygon class="cls-1" points="860.19 319.9 860.19 342.68 861.14 342.68 864.48 339.28 867.82 336.14 871.64 332.99 875.45 330.25 879.26 327.63 883.08 325.14 891.66 321.08 900.25 317.81 909.31 315.58 918.84 314.41 928.37 314.15 936.48 314.41 944.59 315.19 952.69 316.63 960.8 318.73 967.48 320.69 973.68 323.31 979.87 326.45 985.6 329.98 991.32 334.04 996.08 338.62 1000.85 343.6 1005.14 348.96 1009.43 343.73 1014.2 338.88 1019.45 334.56 1025.17 330.77 1032.33 326.71 1039.95 323.31 1047.58 320.43 1055.69 318.07 1063.79 316.24 1072.38 314.93 1080.48 314.28 1089.07 314.15 1098.12 314.28 1107.18 315.19 1116.24 316.76 1125.31 318.99 1131.98 321.34 1138.66 324.23 1144.85 327.89 1150.58 332.08 1153.44 334.43 1155.82 336.92 1158.2 339.54 1160.59 342.29 1164.41 348.05 1168.22 354.33 1170.6 359.96 1172.51 365.72 1174.42 371.61 1175.85 377.63 1176.8 383.78 1177.28 389.8 1177.76 395.95 1177.76 529.86 1130.55 529.86 1130.55 408 1130.08 401.32 1130.08 394.51 1129.12 387.84 1128.16 381.29 1126.26 374.75 1124.83 371.08 1123.4 367.55 1121.01 364.28 1118.63 361.13 1115.77 358.39 1112.91 355.9 1109.57 353.81 1106.23 351.97 1099.56 349.75 1092.88 348.18 1086.2 347.39 1079.53 347.13 1072.85 347.39 1065.22 348.05 1057.6 349.75 1049.97 352.5 1043.29 356.03 1039.47 358.65 1036.62 361.4 1033.28 364.54 1030.89 367.94 1028.51 371.61 1026.12 375.4 1024.7 379.33 1023.26 383.52 1020.4 396.48 1018.97 409.83 1018.97 529.86 971.29 529.86 971.29 399.49 970.34 391.63 969.86 387.84 968.91 383.91 967 376.32 965.57 372.79 964.14 369.38 962.23 366.24 959.85 363.23 957.46 360.35 954.6 357.86 951.74 355.51 948.88 353.41 942.2 350.53 935.53 348.57 928.85 347.39 921.7 347.13 915.5 347.39 907.39 348.18 899.77 349.88 892.62 352.5 885.46 356.03 882.12 358.65 878.79 361.53 875.45 364.8 872.59 368.34 870.21 372 867.82 376.06 866.39 380.12 864.96 384.44 863.53 388.88 861.62 398.05 861.14 402.76 860.66 407.34 860.19 412.05 860.19 529.86 812.51 529.86 812.51 319.9 860.19 319.9 860.19 319.9"/><polygon class="cls-1" points="1312.7 348.18 1312.7 529.86 1265.49 529.86 1265.49 348.18 1312.7 348.18 1312.7 348.18"/><polygon class="cls-1" points="1445.73 319.9 1445.73 345.43 1446.68 345.43 1453.36 339.41 1460.03 333.91 1467.19 329.2 1475.3 325.01 1483.4 321.48 1491.51 318.6 1500.09 316.37 1508.67 314.93 1517.26 314.15 1526.32 314.15 1537.76 314.41 1549.68 315.58 1560.65 317.81 1572.09 320.95 1578.76 323.44 1585.44 326.84 1591.16 330.77 1594.03 332.99 1596.88 335.35 1599.27 337.97 1602.13 340.59 1604.04 343.33 1606.42 346.35 1608.33 349.36 1610.23 352.5 1611.67 355.64 1613.09 359.04 1615.48 364.54 1616.91 370.17 1618.34 375.93 1619.3 381.69 1620.25 387.58 1621.2 399.36 1621.2 529.86 1573.52 529.86 1573.52 397.66 1572.57 390.85 1571.61 384.17 1570.18 377.5 1569.23 375.27 1568.75 373.05 1566.36 368.99 1563.98 365.06 1561.12 361.53 1557.78 358.39 1553.97 355.64 1549.68 353.41 1545.38 351.71 1538.23 349.62 1530.61 348.05 1522.5 347.26 1514.87 347.13 1505.33 347.52 1495.8 348.7 1487.69 350.53 1480.06 353.28 1476.72 354.99 1472.91 356.95 1469.57 359.17 1466.71 361.66 1463.37 364.67 1460.51 367.94 1458.13 371.48 1455.74 375.14 1453.36 378.94 1450.5 387.05 1449.55 391.37 1448.59 396.08 1446.68 405.77 1446.21 410.61 1445.73 415.59 1445.73 529.86 1398.05 529.86 1398.05 319.9 1445.73 319.9 1445.73 319.9"/><path class="cls-1" d="M1571.81,1957.78v210h-47.2v-29.06h-1.43l-4.29,4.06-4.77,3.8-4.77,3.4-4.77,3.14-5.25,2.88-4.76,2.75-10.49,4.84-11,3.93-11.45,2.88-11.44,2.09-11.44,1-11.45.13-9.53-.26-9.06-.65-9.54-1.18-9.06-1.83-9.06-2.36-8.58-2.75-9.06-3.4-8.11-3.93-6.67-3.4-6.68-3.8-5.72-4.19-5.72-4.71-5.72-5.1-4.77-5.37-4.77-5.76-4.29-6-3.82-6.28-3.34-6.55-2.86-6.81-2.38-6.93-1.91-7.2-1.43-7.2-1-7.33-.47-7.33v-5.89l.47-5.89,1-5.76,2.87-11.52,1.9-5.63,1.91-5.36,2.38-5.37,2.86-5.24,2.87-5.1,3.33-4.85,7.63-9.16,3.82-4.19,4.29-3.92,4.76-3.8,4.77-3.66,5.25-3.41,5.72-3.27,5.25-3,11.44-5.23,11.92-4.19,11.92-3.28,12.4-2.22,12.87-1.18,12.4-.13,12.87.26,13.35,1.57,12.4,2.88,12.4,3.93,6.2,2.49,5.72,2.74,6.2,2.88,5.25,3.28,5.72,3.53,5.24,3.8,5.25,4,4.77,4.32h1.43v-30ZM1433.06,1985l-12.88.66-12.87,2.22-6.2,1.71-6.2,2.09-5.72,2.49-6.2,2.75-4.29,2.35-4.29,2.62-3.82,3-3.81,3.14-3.82,3.41-3.34,3.66-2.86,3.93-2.86,4-2.38,4.32-2.38,4.46-1.92,4.45-1.42,4.71-1.43,4.84-1,4.84-.48,4.85-.47,5v4.32l1,8.38,1.91,8.37,2.86,8.12,1.43,3.8,1.91,3.92,2.38,3.67,2.39,3.53,2.38,3.41,2.86,3.27,2.86,3.14,2.86,3,3.34,2.75,7.15,4.84,7.15,4.32,7.64,3.53,8.1,2.88,8.11,2.36,8.11,1.44,8.58.79,8.1.13,10.49-.26,10-1.18,10-2.1,10-2.88,5.72-2.09,5.25-2.49,5.24-3,5.25-3.27,4.76-3.8,4.3-4.06,4.29-4.45,3.81-4.71,3.34-5.1,2.87-5.24,2.38-5.5,1.91-5.62L1526,2073l.48-5.89.48-6-.48-4.32v-4.18l-1-4.19-1.91-8.12-1.43-4.06-1.43-3.92-1.9-3.8-1.92-3.66-2.38-3.54-2.38-3.4-2.86-3.27-2.86-3.14-2.87-2.88-3.34-2.75-3.33-2.49-7.15-4.45-7.63-3.8-7.63-3.27-8.11-2.62-8.1-2-8.59-1.44-8.1-.65-8.58-.14Z" transform="translate(381.26 -1637.87)"/><path class="cls-1" d="M888.52,1974.4l-15.73,2.49-16.21.79-15.74-.66-16.21-2.36-5.25-1.3-5.72-1.84-5.24-2.22-5.25-2.75-4.77-3-4.77-3.54-4.29-3.79-4.29-4.19-3.82-5.24-3.33-3.14-3.34-3.4-1.91-2.75-1.9-2.88-1.91-3-2.86-6-1.43-3.27-1.43-3.14-1-3.28-1-3.4-.48-3.27-1-3.41v-3.4l-.48-3.4v-10.34l.48-4.06.47-4.19.48-3.93,1.91-8.11,1.91-7.86,1.43-3.92.95-2.88,2.86-5.76,1.43-2.75,5.72-8,5.73-7.86,6.2-7.46,6.67-7.2,6.68-6.8,7.15-6.55,7.63-6.15,8.11-5.63,12.87-9.16L849.9,1772l6.2-4.32,5.24-4.71,5.72-4.71,5.73-4.85,5.24-5.1,8.58-9.43,3.34-4.45,5.72-9.68,1-3,1-3.14.48-3.15.48-3.27-.48-1.7v-.26l.48-1.31.47-3.66v-11l-.47-2.49-1.91-4.71-1-2.09-1.9-2.1-1.91-1.57-2.38-1.18-2.87-.78-5.71-.4-5.25.66-6.2,1.57-6.2,2.09-5.72,2.75-5.25,2.49-5.72,2-3.81.79-1.43-.13.95-6.81,1-3.14,1.9-3,1.43-2.09,1.91-1.84,1.91-1.57,2.38-1.18,2.86-1.3,2.86-1.58,1.91-2.09,1-1.18.48-1.18,1.91-5.62,1.43-2.88,1-2.75,1.91-2.75,1.43-2.75,1.43-1.7,1.43-1.44,1.43-1.31,1.91-1,4.29-1.83,4.29-1.31,4.77-.65,4.29-.27,5.25.27,4.76.91,4.77,1.57,4.77,2.1,2.86,2.35,2.86,2.88,1.43,1.18,2.86,3,2.39,3.27,2.38,3.41,1.91,3.66,1.43,3.93,1,3.93.47,4.05v8.51l-.47,4.32-1.92,8.64-1,4.19-2.86,8.11-1.9,3.93-2.39,4.32-3.82,6.81-8.58,13.35-4.77,6.41-9.53,12.31-5.25,5.89-5.72,5.76-4.29,3.92-4.29,3.54-4.77,3.27-5.25,2.88v.13l-1.9,1.57-7.15,6.55-7.16,6.8-6.67,6.94-6.68,7.07-6.67,7.2-6.68,7.33-12.4,15.18-2.38,3.27L806,1846l-2.38,3.53-1.91,3.53-.48,1L798.4,1859,796,1863.8,792.21,1874l-1.44,5.23-.95,5.37-.48,5.37-.47,5.49v6.29l.47,3.14.48,3,.95,3.14,1,3,1.9,5.76,1.44,2.88,1.9,2.75,1.43,2.62,3.82,5,2.38,2.23,4.77,4.18,4.29,3.54,4.77,3.14,4.29,2.88,5.24,2.62,1.92.65,8.58,2.49,9.06,1.7,9.53.65,9.06-.26,3.82-.52.47-.26.48-.13v-.53l-.48-.13-1.43-.65-11-3.54-6.19-2.35-6.2-3-6.2-3.54-5.72-4.06-3.34-3.27-3.34-3.79-1.43-2-1-2.09-1.43-2.23-1-2.22-.47-2.23-.48-2.35-.48-2.49-.47-2.36v-7.33l.47-2.35,1-6.28.47-.79.48-4.06.95-4.06,1.44-4,2.85-7.86,1.44-3.79,1.9-3.8,1.91-3.66,1.91-3.54,2.38-3.53,4.77-6.81,2.38-3.14,2.87-3.14,5.72-5.89,9-7.59,9.07-7.07,9.54-6.55,10-5.89,10-5.36,11-4.72,10.49-4.05,11-3.41,12.4-3.53,12.4-3,12.4-2.75,12.4-2.1,13.35-1.3,13.35-.26,13.35.78,13.35,1.83,5.72,1.44,6.2,2L1054,1790l5.25,3.14,2.85,2.23,2.87,2.75,2.38,2.88,1.91,3.27,1.9,3.4,1,3.67,1,7.59-1,8.9-1,4.45-1.43,4.32-1.42,3.4-1.92,3.28-2.85,4.32-3.34,4-3.82,3.93-3.81,3.54-3.82,3.4-4.29,3-4.29,2.88-4.77,2.49,3.82,3.66,1.9,2,1.44,2.1,1.43,2.22,2.86,4.72,1,2.48.48,2.88,1,3v3l-1,6-1,2.88-1.44,2.75-1.43,2.49-3.34,4.45-3.81,4.06-4.29,3.53-4.29,3.14-9.54,5.5-10,5-10,4.19-10.49,3.54v.78l.47,1,1.43,2.49,1.44,2.35,4.76,6.42,8.58,13.35,4.3,6.94,1.42,3.14,2.87,6.54,1,3.4v1.84l.47,1.83v1.83l-.47,1.7v1.18l-.48.13v-.13l-.95-.39-4.29-2.62-5.72-3.53-6.2-3.27-5.72-3-6.2-2.74-12.88-4.59-12.87-3.66L946.22,1973l-13.35-1.31-13.35-.26-13.35.92-17.65,2.09Zm84.88-99.74,15.73-6.41,15.26-7.33,14.78-7.86,14.31-8.77,4.77-3.27,4.29-3.53,4.29-3.93,4.29-4.06,2.86-4.45,1.43-2.48.95-2.62.48-1.57.48-1.7V1815l-.48-1.7v-1.7l-.95-1.57-.48-1.44-1-1.44-2.39-2.62-1.9-.91-6.68-2-6.68-.91-11-.13-10.5.65-11,1.44L993.9,1805l-21.93,6-21.46,7.06-21,8.25L919,1830.81l-10,4.71-6.67,3.41-6.68,3.79-6.19,3.93-6.21,4.19-5.71,4.58-5.73,4.84-5.72,5-5.24,5.23-2.87,3.14-2.38,3.28-4.77,7.06-1.91,3.8-1.42,3.8-1.43,3.92-1.44,4.06-.47,3.27-.48,3.41v6.93l.95,6.81,1.91,6.55,4.77,3.92,5.72,3.4,8.11,4.19,8.58,3.28,9.06,2.48,9.54,1.57,9.06.79,9.06-.13,9.53-1,9.06-1.83,7.16-1.83,7.15-2.1,12.87-3.53,12.4-4.32,11.92-5.11,11.45-5.89,5.24-2.88,4.29-3.27,4.29-3.8,3.82-4.05,2.38-3,1.91-3.41,1-1.83,1-3.66.48-2v-2.75l-1.43-1.3-1.9-2-2.87-1.7-2.38-1.44-2.86-1-5.25-1.7-5.72-1.31-5.72-.78-5.24-.26-12.4-1-1.91-.39-.48-.14v-.78l1-.26,4.3-.92Z" transform="translate(381.26 -1637.87)"/></g></g></svg>