<svg width="690" height="150" viewBox="0 0 690 150" fill="none" xmlns="http://www.w3.org/2000/svg">
<path fill-rule="evenodd" clip-rule="evenodd" d="M624.391 43.7906L623.105 44.2192C618.096 33.345 610.94 24.6836 601.636 18.2397C592.476 11.801 580.959 8.58678 567.074 8.58678C559.35 8.58678 551.974 10.2314 544.963 13.5255C537.951 16.6651 531.796 21.1749 526.504 27.0456C521.345 32.7673 517.199 39.7091 514.054 47.8718C510.905 56.0251 509.33 65.0405 509.33 74.9178C509.33 84.7903 510.905 93.8056 514.054 101.963C517.199 110.117 521.35 117.134 526.504 123.004C531.796 128.726 537.946 133.161 544.957 136.31C551.974 139.46 559.35 141.035 567.074 141.035C580.815 141.035 591.977 138.887 600.564 134.596C609.291 130.156 616.661 123.428 622.676 114.413L623.962 114.841L623.533 128.581C620.24 132.015 616.447 135.09 612.156 137.815C607.865 140.392 603.216 142.61 598.202 144.473C593.339 146.183 588.255 147.469 582.962 148.331C577.665 149.333 572.372 149.836 567.075 149.836C556.057 149.836 545.536 148.046 535.519 144.473C525.502 140.89 516.701 135.882 509.116 129.443C501.526 122.86 495.518 114.986 491.081 105.831C486.645 96.5266 484.428 86.2255 484.428 74.9178C484.428 63.6101 486.647 53.3788 491.087 44.2139C495.52 34.9142 501.526 26.9707 509.116 20.3927C516.701 13.8041 525.502 8.79576 535.519 5.36196C545.536 1.78883 556.057 0 567.07 0C572.367 0 577.665 0.428563 582.962 1.28077C588.255 2.14281 593.339 3.50308 598.202 5.36196C603.211 7.08151 607.86 9.2989 612.156 12.0198C616.447 14.5969 620.24 17.6014 623.533 21.0355L624.391 43.7906Z" fill="black"/>
<path fill-rule="evenodd" clip-rule="evenodd" d="M151.341 84.7948C149.768 85.5074 148.268 86.4345 146.838 87.5809C145.407 88.7269 144.694 90.2969 144.694 92.3053V118.713C137.82 128.585 129.015 136.245 118.281 141.688C107.548 147.12 95.671 149.841 82.6501 149.841C71.629 149.841 61.1096 148.051 51.0895 144.473C41.072 140.895 32.2732 135.882 24.6867 129.443C17.1016 122.86 11.09 114.986 6.65446 105.836C2.21702 96.5266 0 86.2255 0 74.9178C0 63.6151 2.21929 53.3841 6.65976 44.2188C11.0923 34.9195 17.1016 26.976 24.6867 20.3927C32.2728 13.8041 41.0716 8.80106 51.0895 5.36726C61.1092 1.78883 71.629 0 82.6501 0C87.9424 0 93.2381 0.428563 98.5304 1.28569C103.83 2.14774 108.909 3.50308 113.769 5.36726C118.783 7.08151 123.435 9.29928 127.727 12.0198C132.02 14.5969 135.814 17.6014 139.105 21.0355L139.967 43.7903L138.676 44.2188C133.672 33.3446 126.518 24.6882 117.213 18.2442C108.049 11.8055 96.5292 8.5864 82.6498 8.5864C74.9205 8.5864 67.5509 10.231 60.5364 13.5251C53.526 16.6697 47.3751 21.1798 42.0798 27.0453C36.9268 32.7718 32.7745 39.7136 29.6242 47.8714C26.4747 56.0297 24.8998 65.045 24.8998 74.9175C24.8998 84.6453 26.4047 93.591 29.416 101.749C32.5605 109.907 36.7091 116.924 41.8598 122.789C47.1586 128.511 53.3125 133.016 60.3221 136.31C67.3343 139.459 74.7789 141.034 82.6498 141.034C97.5336 141.034 110.271 138.174 120.859 132.452V92.3049C120.859 90.3014 120.073 88.7265 118.499 87.5805C117.068 86.4341 115.64 85.507 114.209 84.7895L114.402 83.7128C115.116 83.8476 116.405 83.9922 118.268 84.1418C120.131 84.2762 122.062 84.4159 124.063 84.5753H142.526C144.245 84.4409 145.891 84.3008 147.462 84.1418C149.036 84.0123 150.253 83.8673 151.109 83.7128L151.341 84.7948Z" fill="black"/>
<path fill-rule="evenodd" clip-rule="evenodd" d="M306.831 4.5056C305.401 5.21848 303.97 6.15057 302.542 7.29693C301.109 8.44292 300.32 10.5907 300.177 13.7405C300.046 17.1739 299.902 21.5345 299.749 26.8321C299.749 31.9851 299.684 37.8559 299.556 44.4392C299.556 51.0228 299.49 58.174 299.359 65.9036V89.9493C299.227 99.2486 298.083 107.192 295.922 113.776C293.778 120.364 290.916 125.871 287.338 130.301C283.902 134.742 280.038 138.25 275.746 140.821C271.595 143.398 267.445 145.332 263.294 146.617C259.287 148.048 255.495 148.91 251.916 149.199C248.338 149.627 245.547 149.842 243.541 149.842C235.383 149.842 227.512 148.77 219.926 146.622C212.342 144.619 205.687 141.325 199.964 136.745C194.241 132.165 189.662 126.225 186.227 118.929C182.793 111.627 181.074 102.757 181.074 92.3064V45.7199C181.074 38.8527 181.008 32.7029 180.877 27.266C180.877 21.6845 180.811 17.1739 180.679 13.7405C180.553 10.5907 179.766 8.44292 178.319 7.30678C176.89 6.15549 175.461 5.2234 174.03 4.5056L174.223 3.43457C174.937 3.56405 176.085 3.70867 177.665 3.86275C179.382 3.99261 181.097 4.13723 182.812 4.29132C184.675 4.29132 186.462 4.35643 188.174 4.48591H195.906C197.627 4.35643 199.415 4.29132 201.275 4.29132C203.136 4.1573 204.855 4.01722 206.428 3.86275C208.142 3.72873 209.358 3.58373 210.072 3.43457L210.27 4.5056C208.698 5.21848 207.195 6.15057 205.76 7.29693C204.473 8.44292 203.758 10.5907 203.616 13.7405C203.484 17.1739 203.342 21.6792 203.187 27.2607V92.3064C203.187 107.905 206.837 119.427 214.137 126.867C221.435 134.313 232.241 138.035 246.549 138.035C250.7 138.035 255.422 137.532 260.715 136.525C266.012 135.384 270.951 133.091 275.53 129.658C280.253 126.224 284.189 121.36 287.338 115.061C290.631 108.767 292.275 100.39 292.275 89.9493C292.275 78.6413 292.211 68.9785 292.078 60.965C292.078 52.8067 292.012 45.8699 291.881 40.1388C291.881 34.2729 291.816 29.2596 291.684 25.1133C291.555 20.967 291.413 17.1743 291.255 13.7413C291.127 10.5914 290.341 8.44368 288.896 7.29769C287.465 6.15625 286.037 5.22416 284.606 4.50636L284.798 3.43533C286.375 3.71927 288.164 4.00813 290.165 4.29737C292.17 4.42193 294.033 4.48667 295.752 4.48667C297.321 4.48667 299.109 4.42193 301.115 4.29737C303.259 4.00813 305.12 3.72457 306.697 3.43533L306.831 4.5056Z" fill="black"/>
<path fill-rule="evenodd" clip-rule="evenodd" d="M462.603 43.7906L461.316 44.2192C456.303 33.345 449.147 24.6836 439.846 18.2397C430.687 11.801 419.166 8.58678 405.282 8.58678C397.558 8.58678 390.189 10.2314 383.175 13.5255C376.161 16.6651 370.008 21.1749 364.715 27.0456C359.56 32.7673 355.409 39.7091 352.264 47.8718C349.114 56.0251 347.539 65.0405 347.539 74.9178C347.539 84.7903 349.114 93.8056 352.264 101.963C355.409 110.117 359.56 117.134 364.715 123.004C370.008 128.726 376.159 133.161 383.169 136.31C390.187 139.46 397.558 141.035 405.282 141.035C419.024 141.035 430.186 138.887 438.773 134.596C447.503 130.156 454.875 123.428 460.886 114.413L462.173 114.841L461.745 128.581C458.453 132.015 454.658 135.09 450.366 137.815C446.078 140.392 441.427 142.61 436.415 144.473C431.549 146.183 426.47 147.469 421.176 148.331C415.878 149.333 410.583 149.836 405.289 149.836C394.265 149.836 383.744 148.046 373.728 144.473C363.713 140.89 354.912 135.882 347.325 129.443C339.741 122.86 333.73 114.986 329.293 105.831C324.855 96.5266 322.634 86.2255 322.634 74.9178C322.634 63.6101 324.855 53.3788 329.293 44.2139C333.734 34.9142 339.745 26.9707 347.325 20.3927C354.911 13.8041 363.713 8.79576 373.728 5.36196C383.748 1.78883 394.268 0 405.289 0C410.583 0 415.876 0.428563 421.17 1.28077C426.468 2.14281 431.547 3.50308 436.408 5.36196C441.421 7.08151 446.074 9.2989 450.366 12.0198C454.658 14.5969 458.453 17.6014 461.745 21.0355L462.603 43.7906Z" fill="black"/>
<path fill-rule="evenodd" clip-rule="evenodd" d="M689.092 146.183C688.374 146.054 687.164 145.914 685.444 145.76C683.874 145.76 682.155 145.695 680.291 145.561C678.432 145.561 676.643 145.5 674.929 145.371H662.052C660.333 145.5 658.613 145.64 656.893 145.795C655.319 145.924 654.107 146.069 653.25 146.223L653.051 145.366C654.482 144.649 655.907 143.716 657.342 142.57C658.772 141.429 659.56 139.281 659.704 136.131C659.833 132.698 659.903 129.12 659.903 125.397C660.033 121.675 660.097 117.453 660.097 112.734V36.9589C660.097 32.2296 660.033 28.0779 659.903 24.4999C659.903 20.7772 659.833 17.2037 659.704 13.7703C659.575 10.6205 658.787 8.47802 657.347 7.33165C655.916 6.04104 654.486 5.03891 653.056 4.32641L653.25 3.46436C654.107 3.75323 655.318 3.96751 656.893 4.11213C658.612 4.11213 660.332 4.17195 662.046 4.30634C663.905 4.44074 665.699 4.50548 667.414 4.50548H674.929C676.643 4.37146 678.427 4.30634 680.286 4.30634C682.155 4.17195 683.874 4.03225 685.444 3.87778C687.163 3.7483 688.374 3.60368 689.092 3.44922L689.291 4.31127C687.716 5.02907 686.212 6.02552 684.781 7.31651C683.496 8.45795 682.778 10.6057 682.633 13.7502C682.504 17.189 682.359 20.7674 682.205 24.4897V125.387C682.34 129.105 682.479 132.678 682.633 136.112C682.762 139.261 683.476 141.409 684.781 142.555C686.207 143.696 687.711 144.628 689.291 145.346L689.092 146.183Z" fill="black"/>
</svg>
