<?xml version="1.0" encoding="utf-8"?>
<!-- Generator: Adobe Illustrator 19.2.1, SVG Export Plug-In . SVG Version: 6.00 Build 0)  -->
<svg version="1.1" id="layer" xmlns="http://www.w3.org/2000/svg" xmlns:xlink="http://www.w3.org/1999/xlink" x="0px" y="0px"
	 viewBox="0 0 652 652" style="enable-background:new 0 0 652 652;" xml:space="preserve">
<g>
	<polygon points="208.9,311 182.2,311 182.2,285.5 168.9,285.5 168.9,356.6 182.2,356.6 182.2,323.1 182.2,323.1 208.9,323.1 
		208.9,356.6 222.2,356.6 222.2,285.5 208.9,285.5 	"/>
	<path d="M399,356.6h-48.2v-71h12.6v58.3l-0.5,0.6h24.2c6.5,0,9.1-0.5,11.8-2.3V356.6z"/>
	<path d="M20.5,329.6c-0.3,9.4,2.4,17.1,7.1,22.1c4.1,4.2,10.3,6.5,17,6.5c13.2,0,19.8-8.9,22.3-12.9v-60H54.1v44.8
		c0,12.3-4.5,15.8-10.8,15.8c-2.9,0-5.8-1.5-7.3-3.2c-3.5-3.9-4.5-8.8-3.6-17.4l0.5-2.9L20.5,329.6z"/>
	<g>
		<path d="M94.7,348.1c-5.8-7-8.8-16.1-8.8-27c0-10.9,3-20,8.9-27.1c5.6-6.7,13.3-10.1,22.9-10.1s17.1,3.5,22.7,10.1
			c5.9,7.1,8.9,16.2,8.9,27.1c0,10.9-3,19.8-8.9,26.8c-5.8,7-13.3,10.1-22.9,10.1C108,358.2,100.4,354.9,94.7,348.1z M136,321.4
			c0-16.2-7.9-25.6-18.5-25.6c-10.5,0-18.5,9.4-18.5,25.3c0,15.8,7.9,25.1,18.5,25.1C128,346.3,136,336.7,136,321.4z"/>
	</g>
	<g>
		<path d="M419.4,348.1c-5.9-7-8.8-16.1-8.8-27c0-10.9,3-20,8.9-27.1c5.6-6.7,13.3-10.1,22.9-10.1c9.5,0,17.1,3.5,22.7,10.1
			c5.9,7.1,8.9,16.2,8.9,27.1c0,10.9-3,19.8-8.9,26.8c-5.8,7-13.3,10.1-22.9,10.1C432.8,358.2,425.2,354.9,419.4,348.1z
			 M460.8,321.4c0-16.2-7.9-25.6-18.5-25.6c-10.5,0-18.5,9.4-18.5,25.3c0,15.8,7.9,25.1,18.5,25.1
			C452.8,346.3,460.8,336.7,460.8,321.4z"/>
	</g>
	<path d="M535.8,317l-0.8-0.3l0.9-0.3c5.6-1.7,8.3-9.1,7.3-15.5c-1.7-10.3-9.1-15.5-26.1-15.5h-23.5v71h27.6
		c17.4,0,26.2-6.8,26.2-21.1C547.4,324.8,541.7,319,535.8,317z M506.1,296.6H519c6.5,0,11.4,1.5,11.4,7.3l0,0
		c0,5.9-4.8,7.3-11.4,7.3h-12.9V296.6z M520,345.5h-13.9v-23h11.8c9.5,0,15.5,3.6,15.5,11.2C533.3,343.5,526.4,345.5,520,345.5z"/>
	<polygon points="285.7,332.5 285.7,285.5 298.7,285.5 298.7,356.6 285.7,356.6 259.5,312 258.4,309.5 258.4,356.6 245.4,356.6 
		245.4,285.5 258.4,285.5 284.6,330.1 	"/>
	<path d="M608.6,317l-0.8-0.3l0.9-0.3c5.6-1.7,8.3-9.1,7.3-15.5c-1.7-10.3-9.1-15.5-26.1-15.5h-23.5v71h27.7
		c17.4,0,26.2-6.8,26.2-21.1C620.4,324.8,614.7,319,608.6,317z M579.1,296.6H592c6.5,0,11.4,1.5,11.4,7.3l0,0
		c0,5.9-4.8,7.3-11.4,7.3h-12.9V296.6z M592.9,345.5h-13.9v-23h11.8c9.5,0,15.5,3.6,15.5,11.2C606.4,343.5,599.2,345.5,592.9,345.5z
		"/>
</g>
</svg>
