<?xml version="1.0" encoding="utf-8"?>
<!-- Generator: Adobe Illustrator 19.1.0, SVG Export Plug-In . SVG Version: 6.00 Build 0)  -->
<svg version="1.1" id="Livello_1" xmlns="http://www.w3.org/2000/svg" xmlns:xlink="http://www.w3.org/1999/xlink" x="0px" y="0px"
	 viewBox="0 0 175.7 74.3" style="enable-background:new 0 0 175.7 74.3;" xml:space="preserve">
<style type="text/css">
	.st0{clip-path:url(#SVGID_2_);}
</style>
<g>
	<defs>
		<rect id="SVGID_1_" y="0" width="175.7" height="74.3"/>
	</defs>
	<clipPath id="SVGID_2_">
		<use xlink:href="#SVGID_1_"  style="overflow:visible;"/>
	</clipPath>
	<path class="st0" d="M167.6,24.3C167.6,24.3,167.6,24.3,167.6,24.3l0,0.1c0,0,0,0.1,0.1,0.1c0.1,0.1,0.2,0.2,0.3,0.2
		c0.1,0.1,0.2,0.2,0.2,0.3c0,0.1,0.1,0.3,0.1,0.4c0,0.1,0,0.1,0,0.2l0,0.1c0.1,0.1,0.1,0.2,0.2,0.3c0.1,0.1,0.2,0.2,0.3,0.3
		c0.1,0,0.1,0.1,0.2,0.1c0.1,0,0.2,0,0.2-0.1l0,0l0-0.1c0-0.1,0-0.1,0-0.2c-0.1-0.3-0.2-0.5-0.3-0.8c-0.1-0.1-0.1-0.2-0.2-0.3
		c0,0-0.1-0.1-0.1-0.1l-0.1-0.1l-0.2-0.3c-0.1-0.1-0.2-0.2-0.2-0.2C167.9,24.2,167.8,24.2,167.6,24.3"/>
	<path class="st0" d="M8.1,24.3c-0.1-0.1-0.3-0.1-0.4,0c-0.1,0.1-0.2,0.1-0.2,0.2c-0.1,0.1-0.1,0.2-0.2,0.2l-0.1,0.1l0,0
		c0,0-0.1,0-0.1,0.1C7,25,7,25.1,6.9,25.2c-0.1,0.2-0.2,0.5-0.3,0.8c0,0.1,0,0.1,0,0.2l0,0.1l0,0c0.1,0,0.1,0.1,0.2,0.1
		c0.1,0,0.1,0,0.2-0.1c0.1-0.1,0.2-0.2,0.3-0.3c0.1-0.1,0.1-0.2,0.2-0.3l0-0.1c0-0.1,0-0.1,0-0.2c0-0.1,0-0.3,0.1-0.4
		c0-0.1,0.1-0.2,0.2-0.3C7.9,24.7,8,24.6,8,24.5c0,0,0.1-0.1,0.1-0.1L8.1,24.3C8.1,24.3,8.1,24.3,8.1,24.3"/>
	<path class="st0" d="M10.5,51C10.5,51,10.5,51,10.5,51c0,0.1-0.1,0.1-0.1,0.1l0,0c-0.1,0-0.1,0-0.2,0c-0.1,0-0.1,0.1-0.1,0.1
		c0,0.1,0,0.1-0.1,0.2c0,0,0,0.1,0,0.1c0,0.1-0.1,0.1-0.2,0.2c-0.1,0-0.2,0-0.3,0c-0.2,0-0.4,0-0.6-0.1c-0.1,0-0.2,0-0.4-0.1
		c-0.1,0-0.1,0-0.2,0c-0.1,0-0.1,0.1-0.1,0.1c0,0.1-0.1,0.1-0.1,0.2c0,0.1-0.1,0.2-0.1,0.2c0,0-0.1,0.1-0.1,0.1c0,0-0.1,0.1-0.1,0.1
		c0,0,0,0-0.1,0c0,0-0.1,0-0.1,0c0,0,0,0-0.1-0.1c0-0.1,0-0.1-0.1-0.2l-0.1-0.3l0-0.1c0-0.1,0-0.2,0-0.3c0-0.2,0.1-0.3,0.1-0.4
		c0-0.1,0.1-0.2,0.1-0.2c0.1-0.2,0.1-0.4,0-0.5c-0.1-0.1-0.2-0.3-0.3-0.4c0,0-0.1-0.1-0.1-0.1c0,0,0,0,0-0.1l0-0.1l0-0.1
		c0-0.1,0-0.1,0-0.2l0,0C7.1,49.4,7,49.3,7,49.2C7,49.1,7,49,7,49c0-0.1,0.1-0.1,0.2-0.2c0.1,0,0.1,0,0.2,0c0.1,0,0.1,0,0.2,0.1
		C7.6,49,7.7,49,7.7,49.1c0,0.1,0,0.1,0.1,0.2c0,0.1,0,0.1,0.1,0.2c0,0,0.1,0.1,0.1,0.1c0,0,0.1,0,0.1,0c0.1,0,0.1,0,0.2,0
		c0,0,0.1,0,0.1,0c0.1,0,0.1,0,0.2,0.1c0,0.1,0.1,0.1,0.1,0.2c0,0.1,0,0.2,0,0.3c-0.1,0.2-0.1,0.3-0.1,0.5c0,0.1,0,0.2,0.1,0.3
		c0.1,0.1,0.1,0.2,0.2,0.2c0.1,0,0.2,0,0.3,0c0.1,0,0.3-0.1,0.4-0.1c0,0,0.1,0,0.1-0.1c0,0,0-0.1,0.1-0.1c0-0.1,0-0.1,0-0.2
		c0-0.1-0.1-0.2-0.1-0.3l-0.1-0.1c-0.1-0.1-0.1-0.3-0.1-0.4c0-0.1,0-0.1,0-0.2c0-0.1,0.1-0.1,0.2-0.1c0.1,0,0.2,0,0.2,0
		c0.1,0,0.2,0.1,0.2,0.2l0,0c0.1,0.2,0.1,0.3,0.2,0.5c0.1,0.2,0.1,0.4,0.1,0.6C10.5,50.9,10.5,50.9,10.5,51 M165.4,50.3
		c0.1-0.2,0.1-0.4,0.2-0.5l0,0c0-0.1,0.1-0.1,0.1-0.2c0.1,0,0.1,0,0.2,0c0.1,0,0.1,0,0.2,0c0.1,0,0.1,0.1,0.2,0.1c0,0.1,0,0.1,0,0.2
		c0,0.1,0,0.3-0.1,0.4c-0.1,0.1-0.1,0.3-0.2,0.4c0,0.1,0,0.1,0,0.2c0,0,0,0.1,0,0.1c0,0,0.1,0.1,0.1,0.1l0,0c0.1,0,0.2,0.1,0.4,0.1
		c0.1,0,0.2,0,0.3,0c0.1,0,0.2-0.1,0.2-0.1c0-0.1,0.1-0.1,0.1-0.2c0-0.1,0-0.3,0-0.4l0-0.1c0-0.1,0-0.2,0-0.4c0-0.1,0-0.1,0.1-0.2
		c0,0,0.1-0.1,0.2-0.1c0.1,0,0.1,0,0.2,0c0,0,0.1,0,0.1,0c0,0,0.1,0,0.1,0c0,0,0.1-0.1,0.1-0.1c0-0.1,0-0.1,0.1-0.2
		c0-0.1,0.1-0.2,0.1-0.4c0-0.1,0.1-0.1,0.1-0.1c0,0,0.1,0,0.1,0c0.1,0,0.1,0,0.2,0c0.1,0,0.2,0.1,0.2,0.2c0,0.1,0,0.1,0,0.2
		c0,0.1,0,0.2-0.1,0.3c0,0.1,0,0.1,0,0.2l0,0.1l0,0.1c0,0,0,0,0,0.1c0,0,0,0.1-0.1,0.1l0,0c-0.1,0-0.2,0.1-0.2,0.2
		c-0.1,0.1-0.1,0.3-0.2,0.4c0,0.1,0,0.2,0.1,0.3c0.1,0.2,0.2,0.4,0.3,0.6c0,0.1,0,0.2,0,0.3l0,0.1l0,0.1c0,0.1,0,0.2-0.1,0.3
		c0,0.1,0,0.1-0.1,0.2c0,0,0,0-0.1,0.1c0,0-0.1,0-0.1,0c0,0-0.1,0-0.1,0c0,0-0.1-0.1-0.1-0.1c-0.1-0.1-0.1-0.2-0.2-0.2l-0.1-0.2
		c0-0.1-0.1-0.1-0.1-0.1c-0.1,0-0.1-0.1-0.2-0.1l-0.1,0c-0.2,0-0.3,0-0.5,0.1c-0.2,0-0.3,0-0.5,0c-0.1,0-0.2,0-0.3-0.1
		c-0.1,0-0.1-0.1-0.2-0.2c0-0.1,0-0.1-0.1-0.2c0-0.1,0-0.1-0.1-0.2c0-0.1-0.1-0.1-0.2-0.1c0,0-0.1,0-0.1,0c0,0-0.1,0-0.1,0
		c0,0,0,0,0-0.1c0-0.1,0-0.1,0-0.2C165.3,50.6,165.3,50.5,165.4,50.3 M170.5,27.4L170.5,27.4c0.1-0.1,0.1-0.1,0.2-0.1
		c0,0,0.1,0,0.1,0c0,0,0.1,0,0.1,0.1c0,0,0,0.1,0,0.1c0,0.1,0,0.2,0,0.2c0,0.2,0,0.3-0.1,0.5c0,0.1-0.1,0.3-0.1,0.4
		c0,0.1-0.1,0.1-0.1,0.2c0,0-0.1,0.1-0.2,0.1l-0.1,0l0,0l0,0l0,0c0,0,0-0.1,0-0.1c0-0.1,0-0.3,0-0.4c0-0.2,0.1-0.5,0.2-0.7
		C170.5,27.5,170.5,27.4,170.5,27.4 M165.1,23.1c0.1-0.1,0.1-0.1,0.2-0.2l0.1,0c0.1-0.1,0.3-0.1,0.5-0.1c0.2,0,0.3,0.1,0.5,0.2
		c0.1,0.1,0.2,0.2,0.3,0.3c0.1,0.1,0.2,0.2,0.3,0.3c0.1,0.1,0.2,0.1,0.3,0.1c0.8,0.2,1.5,0.6,2.1,1.1l0,0c0.1,0.2,0.2,0.3,0.3,0.5
		c0.1,0.1,0.1,0.2,0.2,0.4c0,0.1,0.1,0.1,0.2,0.2c0,0,0.1,0.1,0.1,0.1l0.1,0l0,0.1c0,0.1,0,0.1,0.1,0.2c0,0.2,0.1,0.5,0,0.7
		c0,0.4-0.1,0.8-0.2,1.1c0,0.1-0.1,0.3-0.2,0.4c-0.1,0.1-0.1,0.1-0.2,0.1l-0.1,0c-0.2,0-0.5,0-0.7-0.2c-0.1-0.1-0.2-0.2-0.4-0.3
		l-0.1-0.1c-0.1-0.1-0.1-0.1-0.2-0.1c-0.1,0-0.2,0-0.3,0.1c-0.1,0.1-0.2,0.1-0.2,0.2c0,0.1-0.1,0.1-0.1,0.2c0,0.1-0.1,0.1-0.1,0.2
		c0,0-0.1,0-0.1,0c0,0-0.1,0-0.1,0c0,0,0-0.1,0-0.1l0-0.1c0-0.1,0-0.3,0-0.4c0-0.3,0.1-0.7,0.1-1c0-0.2,0-0.4-0.1-0.6
		c-0.1-0.2-0.2-0.3-0.3-0.4c-0.2-0.1-0.4-0.3-0.6-0.4c-0.3-0.4-0.6-0.8-0.7-1.2c0-0.1,0-0.1-0.1-0.2l0,0l-0.1-0.1
		c-0.1-0.1-0.1-0.1-0.2-0.2c-0.1-0.1-0.1-0.1-0.2-0.2c0-0.1-0.1-0.1-0.1-0.2C165.1,23.2,165.1,23.1,165.1,23.1 M167.5,29.1
		c0,0,0,0.1-0.1,0.1c0,0-0.1,0.1-0.1,0c-0.1,0-0.1-0.1-0.1-0.1c0,0,0,0,0-0.1l0,0l-0.1,0c0,0-0.1,0-0.1-0.1c0,0,0,0-0.1-0.1l0,0
		c0,0,0,0,0-0.1c0,0,0-0.1,0.1-0.1c0.1-0.1,0.2-0.1,0.3-0.1c0.1,0,0.2,0.1,0.3,0.2C167.5,28.9,167.5,29,167.5,29.1 M164.5,27.1
		c0.1,0.2,0.2,0.3,0.2,0.5c0,0.1,0,0.1,0,0.2c0,0,0,0.1,0,0.1c0,0,0,0.1-0.1,0.1c0,0-0.1,0-0.1,0c-0.1,0-0.1,0-0.2-0.1
		c-0.1,0-0.1-0.1-0.2-0.1c-0.1-0.1-0.1-0.1-0.2-0.1c-0.1,0-0.2,0-0.3,0.1c-0.1,0.1-0.1,0.1-0.2,0.2c-0.1,0.2-0.2,0.3-0.3,0.5
		c0,0.1-0.1,0.1-0.1,0.1c-0.1,0-0.1,0-0.2,0c-0.1,0-0.2,0-0.3,0c-0.1,0-0.2,0-0.3,0c-0.1,0-0.2,0-0.2,0.1c0,0-0.1,0.1-0.1,0.1
		c-0.1,0.2-0.1,0.4-0.2,0.6c-0.1,0.1-0.1,0.3-0.2,0.4c0,0.1-0.1,0.1-0.2,0.2c-0.1,0-0.2,0.1-0.3,0c-0.1,0-0.2-0.1-0.2-0.1l-0.1-0.1
		c-0.2-0.2-0.4-0.4-0.6-0.7c-0.2-0.3-0.2-0.7,0-1.1c0.1-0.2,0.2-0.3,0.3-0.4c0.3-0.2,0.6-0.4,1-0.5c0.7-0.2,1.4-0.3,2.2-0.3
		c0.2,0,0.3,0,0.5,0.1C164.3,27,164.4,27,164.5,27.1C164.5,27.1,164.5,27.1,164.5,27.1 M163,39.7L163,39.7c0-0.2,0-0.3,0.1-0.4
		c0.1-0.1,0.1-0.1,0.2-0.2c0.1,0,0.3,0,0.4,0c0.1,0,0.2,0,0.3,0c0.3,0,0.6-0.1,0.9-0.2c0.1-0.1,0.2-0.1,0.3-0.2
		c0-0.1,0.1-0.1,0.1-0.2c0-0.1,0.1-0.2,0.1-0.3c0.2-0.2,0.4-0.4,0.7-0.4c0,0,0.1,0,0.1,0c0.1,0,0.2,0,0.3,0.1c0.1,0,0.2,0.1,0.2,0.2
		c0,0.1,0.1,0.2,0,0.3c0,0.2-0.2,0.4-0.3,0.5c-0.1,0.1-0.2,0.1-0.3,0.1c-0.1,0-0.1,0-0.2,0c-0.1,0-0.2,0.1-0.2,0.2
		c-0.1,0.2-0.3,0.3-0.4,0.5c-0.1,0.1-0.2,0.3-0.3,0.5l0,0.1c0,0.1-0.1,0.3-0.2,0.4c-0.1,0.1-0.3,0.2-0.5,0.2c-0.1,0-0.2,0-0.2,0
		l-0.5-0.1c-0.3,0-0.5,0-0.8,0c-0.3,0.1-0.6,0.3-0.7,0.6c-0.1,0.1-0.1,0.2-0.1,0.3c0,0.1-0.1,0.2-0.1,0.4c0,0.1,0,0.1-0.1,0.2
		c0,0,0,0.1-0.1,0.1c0,0-0.1,0-0.1,0c0,0-0.1,0-0.1,0c-0.1,0-0.1-0.1-0.2-0.2c0,0,0-0.1-0.1-0.1c0-0.1,0-0.2,0-0.3
		c0-0.4,0.2-0.8,0.5-1c0.1-0.1,0.2-0.2,0.3-0.2c0.1,0,0.2-0.1,0.3-0.1c0.1,0,0.3-0.1,0.4-0.2c0.1-0.1,0.2-0.1,0.2-0.2
		C163,39.9,163,39.8,163,39.7 M158.7,25.6c0-0.1,0.1-0.2,0.1-0.3c0.1-0.1,0.1-0.1,0.2-0.1c1.1-0.2,2.3-0.1,3.4,0.1
		c0.3,0.1,0.6,0.2,0.8,0.3c0.1,0.1,0.2,0.2,0.3,0.3c0,0,0,0.1,0.1,0.1l0,0.1c0,0,0,0.1-0.1,0.1l-0.1,0c-0.1,0-0.1,0-0.2,0
		c-0.2,0-0.4,0-0.6-0.1c-0.4-0.1-0.9-0.2-1.3-0.2c-0.2,0-0.4,0-0.5,0l-0.1,0c-0.2,0.1-0.4,0.2-0.6,0.3c-0.2,0.2-0.4,0.3-0.5,0.5
		c-0.1,0.1-0.2,0.1-0.3,0.2c-0.1,0-0.1,0-0.2,0.1c-0.1,0-0.1,0-0.2-0.1L159,27c-0.2-0.2-0.3-0.4-0.3-0.7
		C158.7,26.1,158.6,25.9,158.7,25.6 M162.3,32.9c-0.1,0-0.2,0-0.3-0.1c-0.1-0.1-0.1-0.1-0.2-0.2c-0.1-0.1-0.1-0.2-0.2-0.3
		c-0.1-0.2-0.2-0.4-0.2-0.6c0-0.1-0.1-0.2-0.1-0.3c0-0.1,0.1-0.3,0.2-0.4c0,0,0.1-0.1,0.1-0.1c0.4-0.2,0.9-0.2,1.3,0.1
		c0.3,0.2,0.4,0.6,0.2,0.9c-0.1,0.2-0.1,0.3-0.3,0.4c-0.1,0.1-0.3,0.3-0.4,0.4C162.4,32.9,162.4,32.9,162.3,32.9 M154.2,20.3
		C154.2,20.3,154.2,20.2,154.2,20.3c0.1-0.1,0.1-0.1,0.1-0.1c0.3-0.1,0.7-0.1,1-0.1c0.5,0.1,0.9,0.2,1.3,0.4c0.3,0.1,0.7,0.3,1,0.4
		l0.1,0c0.3,0.1,0.7,0.2,1,0.4c0.5,0.3,1,0.5,1.6,0.7c0.1,0,0.2,0.1,0.3,0.1l2,0.3c0.4,0.1,0.8,0.2,1.1,0.3c0.1,0.1,0.3,0.1,0.4,0.2
		c0.1,0.1,0.1,0.1,0.2,0.2c0,0,0,0.1,0,0.1c0,0.2,0.1,0.3,0,0.5c0,0.2-0.1,0.3-0.2,0.4c-0.1,0.1-0.2,0.2-0.4,0.2
		c-0.2,0.1-0.5,0.1-0.8,0.1c-0.7,0-1.4-0.1-2.1-0.3l-0.6-0.1c-0.4-0.1-0.7-0.2-1-0.5c-0.2-0.1-0.3-0.3-0.4-0.4
		c-0.1-0.2-0.3-0.3-0.4-0.4c-0.2-0.1-0.5-0.2-0.8-0.3c-0.7-0.1-1.4-0.3-2-0.7c-0.4-0.2-0.8-0.5-1.2-0.8c-0.1-0.1-0.2-0.2-0.2-0.3
		c0,0,0-0.1,0-0.1C154.2,20.4,154.2,20.3,154.2,20.3 M11.4,23.2L11.4,23.2c0-0.1,0.1-0.2,0.1-0.2c0.1-0.1,0.2-0.2,0.3-0.2
		c0.2-0.1,0.5-0.2,0.8-0.3c0.7-0.2,1.5-0.3,2.3-0.4l0.3-0.1c0.4-0.1,0.9-0.3,1.3-0.5c0.4-0.2,0.9-0.4,1.3-0.6c0.1,0,0.2-0.1,0.3-0.1
		c0.3-0.1,0.6-0.2,0.9-0.3c0.4-0.2,0.9-0.3,1.4-0.4c0.3-0.1,0.7-0.1,1,0l0.1,0c0,0,0.1,0,0.1,0.1c0,0,0,0.1,0,0.1c0,0,0,0.1,0,0.1
		c0,0.1-0.1,0.2-0.1,0.2c-0.2,0.2-0.4,0.4-0.6,0.5c-0.8,0.6-1.6,1-2.5,1.1c-0.1,0-0.1,0-0.2,0c-0.3,0-0.6,0.1-0.8,0.3
		c-0.1,0.1-0.3,0.3-0.4,0.4c-0.1,0.2-0.3,0.3-0.5,0.5c-0.3,0.2-0.6,0.3-0.9,0.4c-0.8,0.2-1.7,0.4-2.6,0.4c-0.3,0-0.6,0-0.8-0.1
		c-0.2,0-0.3-0.1-0.4-0.2c-0.1-0.1-0.2-0.3-0.2-0.5C11.4,23.5,11.4,23.4,11.4,23.2 M16.8,26.9L16.8,26.9c-0.1,0.1-0.1,0.2-0.2,0.2
		c-0.1,0-0.1,0-0.2,0c-0.1,0-0.1-0.1-0.2-0.1c-0.1-0.1-0.2-0.2-0.4-0.3c-0.2-0.2-0.4-0.3-0.6-0.5c-0.1-0.1-0.2-0.1-0.4-0.2
		c-0.1,0-0.3-0.1-0.4,0c-0.4,0-0.7,0.1-1.1,0.1c-0.3,0.1-0.6,0.1-0.9,0.1c-0.1,0-0.2,0-0.3,0c0,0-0.1,0-0.1,0c0,0,0,0-0.1,0
		c0,0,0,0,0-0.1l0-0.1c0.1-0.1,0.1-0.2,0.3-0.3c0.2-0.1,0.4-0.2,0.6-0.3c0.6-0.2,1.3-0.3,2-0.3c0.6,0,1.2,0,1.8,0.1
		c0.1,0,0.2,0.1,0.3,0.2c0.1,0.1,0.1,0.2,0.1,0.4C17.1,26.2,17,26.6,16.8,26.9 M11,27.6c0-0.2,0.1-0.3,0.2-0.5
		c0-0.1,0.1-0.1,0.1-0.1c0.1-0.1,0.2-0.1,0.3-0.1c0.2-0.1,0.5-0.1,0.7-0.1c0.8,0,1.6,0.2,2.4,0.5c0.2,0.1,0.4,0.2,0.6,0.4
		c0.1,0.1,0.1,0.1,0.2,0.2c0.1,0.3,0.2,0.5,0.1,0.8c-0.1,0.2-0.2,0.5-0.4,0.7c-0.1,0.1-0.2,0.2-0.3,0.3c-0.1,0.1-0.2,0.1-0.2,0.2
		c-0.1,0-0.1,0-0.2,0c-0.1,0-0.1-0.1-0.2-0.1c-0.1-0.1-0.1-0.2-0.2-0.3c-0.1-0.2-0.2-0.4-0.2-0.6l-0.1-0.2c-0.1-0.1-0.2-0.2-0.3-0.2
		c-0.1,0-0.2,0-0.3,0l-0.3,0c-0.1,0-0.1,0-0.2,0c0,0-0.1,0-0.1-0.1c0,0,0,0,0-0.1c-0.1-0.2-0.1-0.3-0.2-0.5
		c-0.1-0.1-0.1-0.1-0.2-0.2c-0.1-0.1-0.2-0.1-0.3-0.1c-0.1,0-0.2,0.1-0.2,0.1c-0.1,0.1-0.2,0.1-0.3,0.2c0,0-0.1,0-0.1,0
		c0,0,0,0-0.1,0c0,0-0.1,0-0.1-0.1c0,0,0-0.1,0-0.1C11,27.8,11,27.7,11,27.6 M12.8,40c0,0.1,0.1,0.2,0.2,0.2
		c0.1,0.1,0.2,0.1,0.4,0.2l0.4,0.1c0.2,0.1,0.5,0.3,0.6,0.5c0.1,0.2,0.2,0.5,0.2,0.8c0,0.1,0,0.1,0,0.2c0,0,0,0.1-0.1,0.1
		c-0.1,0.1-0.1,0.1-0.2,0.2c0,0-0.1,0-0.1,0c0,0-0.1,0-0.1,0c0,0,0,0-0.1-0.1c0,0-0.1-0.1-0.1-0.1c0-0.1-0.1-0.2-0.1-0.3l0-0.1
		c-0.1-0.3-0.3-0.5-0.5-0.7c-0.2-0.2-0.5-0.3-0.8-0.3c-0.2,0-0.5,0-0.7,0.1l-0.1,0c-0.1,0-0.3,0-0.4,0c-0.1-0.1-0.3-0.2-0.3-0.3
		c-0.1-0.1-0.1-0.2-0.1-0.3c-0.1-0.1-0.1-0.3-0.2-0.4l-0.5-0.6l-0.1-0.1C10,39.1,10,39,9.9,39c-0.1,0-0.1,0-0.2,0
		c-0.1,0-0.2-0.1-0.3-0.1c-0.2-0.1-0.3-0.3-0.3-0.5c0-0.1,0-0.2,0-0.3c0-0.1,0.1-0.1,0.2-0.2c0.1,0,0.2-0.1,0.3-0.1
		c0.2,0,0.3,0.1,0.5,0.2c0.2,0.1,0.3,0.2,0.4,0.4c0,0,0.1,0.1,0.1,0.2c0,0.1,0.1,0.2,0.2,0.2c0.1,0.1,0.3,0.2,0.4,0.2
		c0.3,0.1,0.6,0.2,0.9,0.2l0.1,0c0.1,0,0.3,0,0.4,0c0.1,0,0.2,0.1,0.2,0.1c0.1,0.1,0.1,0.2,0.1,0.4C12.8,39.8,12.8,39.9,12.8,40
		 M13.2,32.8c-0.1-0.1-0.3-0.2-0.4-0.4c-0.2-0.2-0.3-0.4-0.3-0.6c-0.1-0.4,0.1-0.7,0.4-0.9c0.4-0.2,0.8-0.2,1.2,0
		c0.1,0,0.2,0.1,0.2,0.2c0.1,0.1,0.1,0.2,0.1,0.3c0,0.1,0,0.2-0.1,0.3c-0.1,0.2-0.1,0.4-0.2,0.6c-0.1,0.2-0.1,0.3-0.2,0.4
		c-0.1,0.1-0.1,0.1-0.2,0.2c-0.1,0-0.2,0.1-0.3,0C13.4,32.9,13.3,32.8,13.2,32.8 M5.4,26.2c0-0.1,0-0.2,0.1-0.2c0,0,0-0.1,0-0.1
		l0.1,0c0.1,0,0.2-0.1,0.2-0.1c0.1-0.1,0.1-0.2,0.2-0.2L6.2,25c0.1-0.1,0.1-0.2,0.2-0.3c0.4-0.5,1-0.8,1.6-1
		c0.2-0.1,0.4-0.1,0.5-0.2c0.1,0,0.2-0.1,0.3-0.2c0.1-0.1,0.2-0.2,0.3-0.3c0.1-0.1,0.2-0.2,0.3-0.3c0.2-0.1,0.4-0.1,0.5-0.1
		c0.1,0,0.2,0.1,0.3,0.1c0.1,0,0.2,0.1,0.2,0.2c0,0,0.1,0.1,0.1,0.2c0,0.1,0,0.1,0,0.2c0,0.1-0.1,0.1-0.2,0.2
		c-0.1,0.1-0.2,0.2-0.3,0.3c0,0-0.1,0.1-0.1,0.1l0,0.1c0,0.2-0.1,0.4-0.2,0.5c-0.2,0.4-0.5,0.8-0.9,1.1c-0.1,0.1-0.2,0.2-0.3,0.2
		c-0.1,0.1-0.3,0.2-0.3,0.4c-0.1,0.2-0.1,0.4-0.1,0.6c0,0.3,0,0.7,0.1,1c0,0.1,0,0.3,0,0.4c0,0,0,0.1,0,0.1c0,0,0,0.1-0.1,0.1
		c0,0-0.1,0-0.1,0c0,0-0.1,0-0.1-0.1c0,0,0-0.1,0-0.1C8,28.2,7.9,28.1,7.8,28c-0.1-0.1-0.1-0.1-0.2-0.1c-0.1,0-0.2,0-0.3,0
		c0,0-0.1,0-0.1,0.1l-0.4,0.3c-0.1,0.1-0.3,0.2-0.5,0.2c-0.1,0-0.2,0-0.3,0c-0.1,0-0.2,0-0.2-0.1c-0.1-0.1-0.2-0.2-0.2-0.3
		c-0.1-0.3-0.2-0.5-0.2-0.8C5.4,27,5.4,26.6,5.4,26.2 M9,28.8C9,28.9,9,28.9,9,28.8l-0.1,0.1c0,0-0.1,0-0.1,0.1l-0.1,0l0,0
		c0,0,0,0,0,0.1c0,0.1-0.1,0.1-0.2,0.1c0,0-0.1,0-0.1-0.1c0,0,0-0.1,0-0.1c0-0.1,0-0.2,0.1-0.3c0.1-0.1,0.2-0.1,0.4-0.1
		c0,0,0.1,0,0.1,0.1C8.9,28.7,8.9,28.8,9,28.8L9,28.8z M5.1,28.7c-0.1,0-0.1-0.1-0.2-0.2c0-0.1-0.1-0.2-0.1-0.3l0-0.1
		c0-0.2-0.1-0.4-0.1-0.6c0-0.1,0-0.1,0-0.2c0,0,0-0.1,0.1-0.1c0,0,0.1,0,0.1,0c0,0,0.1,0,0.1,0c0,0,0.1,0.1,0.1,0.1l0,0
		c0,0,0,0.1,0.1,0.1c0.1,0.1,0.1,0.3,0.1,0.4c0,0.2,0.1,0.4,0.1,0.7c0,0.1,0,0.1,0,0.2l0,0.1l0,0l-0.1,0C5.3,28.7,5.2,28.7,5.1,28.7
		 M11.2,44.1c-0.1-0.1-0.3-0.1-0.4-0.2c-0.1-0.1-0.1-0.1-0.2-0.2c-0.4-0.6-1-1.1-1.8-1.3c-0.6-0.2-1.2-0.3-1.8-0.3
		c-0.2,0-0.4,0-0.5,0.1c-0.2,0.1-0.4,0.3-0.5,0.5l-0.4,0.5c0,0-0.1,0.1-0.1,0.1l-0.1,0c0,0,0,0-0.1,0c-0.1,0-0.2,0-0.3,0
		c-0.1,0-0.2,0.1-0.3,0.2c0,0-0.1,0.1-0.1,0.2l0,0.1c0,0.3-0.1,0.5-0.3,0.7c-0.2,0.2-0.4,0.3-0.6,0.4l-0.5,0.2l0,0
		c-0.1,0.1-0.2,0.1-0.4,0.1c-0.1,0-0.3,0-0.4-0.1c-0.1-0.1-0.2-0.2-0.3-0.4C2.1,44.6,2,44.3,1.9,44c0-0.1-0.1-0.2-0.1-0.3
		c-0.2-0.5-0.3-1-0.2-1.5c0-0.3,0.1-0.6,0.1-0.9c0-0.1,0.1-0.1,0.1-0.2c0.1,0,0.1-0.1,0.2-0.1C2.1,41,2.2,41,2.4,41l0.7,0
		c0.1,0,0.1,0,0.2,0l0.1,0l0,0l0,0c0-0.1-0.1-0.2-0.1-0.3c-0.1-0.1-0.2-0.1-0.2-0.1c-0.2-0.1-0.3-0.1-0.5-0.1
		c-0.1,0-0.2-0.1-0.3-0.1c0,0-0.1,0-0.1-0.1l0,0C2,40,1.9,39.9,1.9,39.9c0-0.1,0-0.2,0.1-0.3c0.1-0.1,0.1-0.1,0.2-0.2l0.3-0.2
		l0.1-0.1c0,0,0.1-0.1,0.1-0.1c0-0.1,0.1-0.1,0.1-0.2c0.1-0.1,0.1-0.3,0.2-0.4C3,38.3,3,38.3,3.1,38.2c0.3-0.2,0.6-0.5,0.7-0.9
		c0.1-0.2,0.1-0.4,0.1-0.6c0-0.1,0-0.2-0.1-0.2c0,0-0.1-0.1-0.1-0.1c0,0-0.1,0-0.1,0c-0.1,0-0.1,0-0.1,0.1c0,0-0.1,0.1-0.1,0.1
		c0,0.1-0.1,0.2-0.1,0.3l0,0.1c0,0.3-0.1,0.5-0.2,0.7c-0.1,0.1-0.1,0.2-0.2,0.3c-0.1,0.1-0.2,0.1-0.3,0.1c-0.1,0-0.2,0-0.2,0
		c-0.2,0-0.3,0.1-0.5,0.1c-0.1,0-0.1,0.1-0.2,0.1c-0.1,0.1-0.1,0.1-0.1,0.2c0,0.1,0,0.1,0,0.2c0,0.1,0,0.1,0,0.2c0,0,0,0.1,0,0.1
		l0,0c0,0.1-0.1,0.2-0.2,0.2c0,0-0.1,0.1-0.1,0.1c-0.1,0-0.1,0-0.2,0c0,0-0.1-0.1-0.1-0.1c-0.1-0.1-0.1-0.2-0.2-0.3
		c-0.1-0.1-0.1-0.3-0.2-0.4c0,0,0-0.1,0-0.1c0-0.1,0-0.2,0.1-0.3c0.1-0.4,0.3-0.7,0.5-1.1c0.1-0.3,0.3-0.5,0.5-0.7
		c0,0,0.1-0.1,0.1-0.1l0,0c0.3-0.1,0.6-0.4,0.9-0.6C2.9,35.5,3,35.3,3,35l0,0c0-0.1,0.1-0.1,0.1-0.2C3.4,34.5,3.6,34.2,4,34
		c0.1-0.1,0.2-0.1,0.3-0.1c0,0,0.1,0,0.1,0c0,0,0,0,0.1,0c0.1,0,0.1,0.1,0.2,0.1c0,0.1,0,0.1,0,0.2c0,0.1,0,0.2,0,0.3
		c0,0.1,0,0.2,0,0.4c0,0.1,0,0.2,0,0.2c0,0.1,0.1,0.1,0.1,0.2c0.4,0.2,0.8,0.4,1.3,0.5c0.3,0,0.5,0,0.8-0.1c0.2-0.1,0.3-0.2,0.4-0.3
		c0.3-0.4,0.7-0.6,1.1-0.6l0.1,0c0.1,0,0.2,0,0.3,0c0,0,0.1,0,0.1-0.1c0,0,0.1-0.1,0.1-0.2c0,0,0-0.1-0.1-0.1
		c-0.1-0.1-0.2-0.2-0.3-0.3l0,0c-0.1-0.1-0.2-0.1-0.4-0.1c-0.2,0-0.3,0-0.5,0c-0.1,0-0.2,0-0.3,0c-0.1,0-0.1,0-0.1-0.1
		c0,0,0,0-0.1-0.1c-0.1-0.1-0.1-0.2-0.2-0.3c-0.1-0.1-0.1-0.1-0.2-0.2c-0.1-0.1-0.2-0.1-0.3,0c-0.1,0-0.2,0-0.2,0c0,0-0.1,0-0.1,0
		c0,0-0.1,0-0.1-0.1c0,0,0-0.1,0-0.1c0-0.1,0-0.1-0.1-0.2l-0.1-0.1c-0.1-0.1-0.2-0.2-0.3-0.2c-0.1-0.1-0.2-0.1-0.4,0
		C5,32.5,5,32.6,4.9,32.8c0,0,0,0.1,0,0.1c0,0.1,0,0.2,0,0.3c0,0,0,0.1-0.1,0.1c0,0.1-0.1,0.1-0.2,0c-0.1,0-0.1-0.1-0.1-0.1l0,0
		c-0.2-0.2-0.3-0.5-0.2-0.8c0-0.4,0.2-0.7,0.4-1C4.8,31.2,5,31,5.2,30.8c0.1-0.1,0.2-0.1,0.2-0.1l0.1,0c0.2,0,0.4-0.1,0.6-0.2
		c0.2-0.1,0.3-0.3,0.4-0.5c0.1-0.2,0.2-0.4,0.4-0.6c0.1-0.1,0.2-0.2,0.3-0.3C7.3,29,7.5,29,7.6,29c0,0,0.1,0,0.1,0.1
		c0,0,0.1,0.1,0.1,0.1c0.1,0.1,0.1,0.2,0.2,0.3c0,0.1,0.1,0.2,0.2,0.2c0,0,0.1,0.1,0.2,0.1c0,0,0.1,0,0.1,0c0.1,0,0.1-0.1,0.2-0.1
		c0.1-0.1,0.2-0.2,0.3-0.3c0.1-0.1,0.2-0.2,0.2-0.2c0,0,0.1-0.1,0.1-0.1l0.1,0c0.1,0,0.1,0,0.2,0.1c0,0,0.1,0.1,0.1,0.1
		c0.1,0.1,0.1,0.1,0.2,0.2c0.1,0.1,0.3,0.1,0.4,0.1l0.1,0c0.1,0,0.2,0,0.2-0.1c0-0.1,0.1-0.1,0.1-0.2c0-0.1,0-0.1,0.1-0.2
		c0,0,0-0.1,0.1-0.1c0,0,0.1,0,0.1,0c0,0,0.1,0,0.1,0c0,0,0.1,0,0.1,0.1c0,0,0,0.1,0.1,0.1c0,0.1,0,0.2,0,0.3c0,0.3,0,0.5-0.1,0.8
		c0,0.1,0,0.2,0,0.3c0,0,0,0.1,0,0.1l0,0.1l0,0c0.1,0,0.1,0,0.2,0c0,0,0.1,0,0.1,0c0.1,0,0.1-0.1,0.1-0.1c0-0.2,0.1-0.3,0.3-0.3
		c0.1,0,0.1,0,0.2,0c0,0,0.1,0.1,0.1,0.1c0,0.1,0.1,0.2,0.1,0.3c0,0.1-0.1,0.2-0.2,0.3c-0.1,0.1-0.2,0.1-0.3,0.2l-0.2,0.1
		c-0.1,0-0.1,0.1-0.1,0.2c0,0.1,0,0.2,0,0.2l0,0.2l0,0.1l0,0.1c-0.1,0.1-0.2,0.2-0.2,0.3c0,0.1,0,0.1-0.1,0.2c0,0.1,0,0.1,0.1,0.2
		c0,0.1,0.1,0.1,0.1,0.2l0.1,0.1c0.1,0.1,0.2,0.1,0.3,0.2c0.2,0.1,0.4,0.1,0.6,0.1l0.6,0c0.1,0,0.1,0,0.2,0l0.1,0
		c0.1,0.1,0.2,0.3,0.2,0.5c0,0.2-0.1,0.3-0.1,0.4c-0.1,0.3-0.3,0.5-0.5,0.7l-0.1,0c-0.1,0-0.1,0.1-0.2,0.1c-0.1,0-0.2,0-0.2-0.1
		c-0.1,0-0.1-0.1-0.2-0.2l-0.1-0.2c0,0,0-0.1-0.1-0.1c0,0,0,0-0.1,0c0,0-0.1,0-0.1,0c0,0,0,0-0.1,0.1l0,0.1c0,0,0,0.1,0,0.1
		c0,0.1,0.1,0.3,0.1,0.4c0.1,0.3,0.2,0.5,0.3,0.8c0,0.1,0.1,0.2,0.1,0.3c0,0,0,0.1,0,0.1c0,0,0,0.1,0,0.1l-0.1,0c-0.1,0-0.1,0-0.2,0
		c0,0-0.1,0-0.1-0.1c0,0-0.1-0.1-0.1-0.2c0-0.1-0.1-0.1-0.1-0.2c0-0.1-0.1-0.1-0.2-0.1c-0.1,0-0.1,0-0.2,0c-0.4,0-0.8,0.1-1.2,0.3
		c-0.2,0.1-0.4,0.2-0.5,0.3c-0.1,0.1-0.2,0.2-0.2,0.4c0,0.1,0,0.1-0.1,0.2l0,0c-0.1,0.3-0.4,0.4-0.7,0.5c-0.2,0-0.4,0-0.6,0
		l-0.5-0.1l-0.1,0c-0.1,0-0.2,0-0.3,0c0,0-0.1,0-0.1,0.1c0,0-0.1,0.1-0.1,0.1l0,0.1l0,0.1c0,0,0,0-0.1,0c0,0-0.1,0-0.1,0
		c-0.1,0-0.2,0-0.2-0.1c-0.1,0-0.1-0.1-0.2-0.2c0-0.1-0.1-0.1-0.1-0.2l0-0.1l0,0c0,0,0,0-0.1,0c0,0-0.1,0-0.1,0l-0.2,0
		c0,0-0.1,0-0.1,0c0,0-0.1,0-0.1-0.1c-0.1-0.2-0.2-0.3-0.4-0.4c-0.1,0-0.1,0-0.2,0c-0.1,0-0.1,0.1-0.2,0.1c0,0.1-0.1,0.1-0.1,0.2
		c0,0.1,0,0.2,0.1,0.2c0.1,0.1,0.1,0.2,0.2,0.2c0.2,0.1,0.4,0.2,0.6,0.3l0.4,0.2L5.9,38c0.1,0.1,0.2,0.2,0.2,0.3
		c0.1,0.1,0.1,0.2,0.2,0.2c0,0,0.1,0.1,0.2,0.1c0,0,0.1,0,0.1,0c0,0,0.1,0,0.1,0l0.1,0.1c0,0,0.1,0.1,0.1,0.1c0,0,0.1,0,0.1,0l0,0
		c0.2,0,0.3,0,0.5,0c0.1,0,0.2,0,0.3,0.1C8,38.9,8,38.9,8.1,39c0,0.1,0.1,0.1,0.1,0.2c0.1,0.2,0.2,0.3,0.4,0.4
		c0.1,0.1,0.3,0.1,0.5,0.1c0.1,0,0.3,0,0.4,0c0.1,0,0.1,0,0.2,0c0.1,0,0.1,0,0.2,0c0,0,0.1,0,0.1,0.1c0,0,0,0.1,0,0.1
		c0,0,0,0.1,0,0.1l0,0.2c0,0,0,0.1,0,0.1c0,0,0,0.1,0,0.1c0,0,0,0,0.1,0l0,0c0.3,0.1,0.5,0.2,0.7,0.3c0.1,0.1,0.2,0.1,0.3,0.2
		c0.1,0.1,0.1,0.2,0.1,0.3c0,0.1,0,0.2-0.1,0.3l0,0c0,0.1-0.1,0.1-0.2,0.1c-0.1,0-0.1,0-0.2,0c-0.1,0-0.3-0.1-0.4-0.2
		c-0.4-0.3-0.8-0.6-1.2-0.9c-0.4-0.3-0.8-0.6-1.2-0.9c-0.1-0.1-0.2-0.1-0.4-0.2c-0.1,0-0.1,0-0.2,0c0,0-0.1,0-0.1,0l-0.1,0
		c-0.1,0.1-0.1,0.2-0.1,0.2c0,0.1,0,0.2,0.1,0.2c0.1,0.2,0.2,0.3,0.4,0.4c0.1,0.1,0.2,0.2,0.4,0.2c0,0,0.1,0,0.1,0
		c0.2,0,0.4,0.1,0.6,0.2c0.1,0.1,0.2,0.1,0.2,0.2c0,0,0,0.1,0.1,0.1l0,0c0,0.1,0,0.2,0,0.3c0,0.1,0,0.1,0.1,0.1c0,0,0.1,0.1,0.2,0.1
		c0.1,0,0.1,0,0.2,0l0,0c0,0,0.1,0,0.1,0c0.1,0,0.2,0,0.2,0.1c0.2,0.1,0.4,0.3,0.6,0.4c0.4,0.3,0.7,0.7,1,1.1
		c0.1,0.1,0.1,0.2,0.1,0.3l0,0.1c0,0.1,0,0.2,0,0.2c0,0,0,0.1-0.1,0.1c0,0-0.1,0.1-0.1,0.1C11.3,44.2,11.3,44.1,11.2,44.1 M5.1,33.7
		c0.1-0.1,0.2-0.2,0.3-0.2c0.1,0,0.2,0,0.3,0c0.1,0,0.2,0.1,0.2,0.1c0.1,0.1,0.1,0.2,0.1,0.3c0,0.3-0.2,0.5-0.4,0.6
		c-0.1,0-0.2,0-0.4,0c-0.1,0-0.2-0.1-0.2-0.2C5,34.1,5,33.9,5.1,33.7 M11.4,49.8c-0.1,0-0.3,0-0.4-0.1c0,0-0.1-0.1-0.1-0.1
		c0,0-0.1-0.1-0.1-0.1c-0.1-0.1-0.1-0.3-0.1-0.4c0-0.1,0-0.3,0.1-0.4c0.1-0.1,0.2-0.2,0.4-0.2c0.1,0,0.2,0,0.4,0.1
		c0.1,0,0.1,0,0.2,0.1c0.2,0.1,0.3,0.4,0.2,0.7C11.8,49.5,11.6,49.7,11.4,49.8 M13.8,49.5c-0.1,0.2-0.3,0.4-0.6,0.5
		c-0.3,0.1-0.6,0.3-0.9,0.3l-0.2,0.1c-0.1,0-0.2,0.1-0.3,0.1c0,0-0.1,0-0.1,0l-0.1,0c0,0,0,0,0-0.1c0,0,0,0,0-0.1c0,0,0-0.1,0.1-0.1
		c0.1-0.1,0.2-0.2,0.3-0.3l0,0c0,0,0-0.1,0-0.2c0-0.2,0-0.4,0-0.5c0-1-0.1-2.1-0.2-3.1l0-0.5c0-0.1,0-0.2,0-0.2c0-0.1,0-0.2,0-0.4
		c0-0.1,0-0.1,0-0.2c0-0.1,0.1-0.2,0.2-0.2c0.1,0,0.2,0,0.2,0l0.1,0c0,0,0.1,0,0.1,0c0,0,0,0,0,0.1c0,0,0,0.1,0,0.1
		c0,0.1,0,0.2,0,0.2c0,0.2,0.1,0.4,0.3,0.5c0.1,0,0.1,0.1,0.2,0.1c0.1,0,0.1,0.1,0.2,0.1c0.1,0.1,0.2,0.2,0.2,0.4
		c0.2,0.4,0.3,0.8,0.4,1.3c0.1,0.5,0.1,0.9,0.1,1.4C14,49,13.9,49.3,13.8,49.5 M17.3,49.4c0,0.1-0.1,0.1-0.2,0.1c-0.1,0-0.2,0-0.3,0
		c-0.3-0.1-0.6-0.2-0.9-0.2c-0.1,0-0.2,0-0.3,0c-0.1,0-0.1,0-0.2,0c-0.1,0-0.1,0.1-0.2,0.2c0,0.1,0,0.1,0,0.2c0,0.1,0,0.2,0,0.3l0,0
		c0,0.1-0.1,0.2-0.1,0.2c0,0,0,0.1-0.1,0.1c0,0-0.1,0-0.1,0c0,0-0.1,0-0.1,0c0,0-0.1,0-0.1-0.1c-0.1-0.1-0.1-0.1-0.2-0.2l0,0
		c-0.1-0.1-0.1-0.1-0.1-0.2c0-0.1,0-0.2,0-0.3c0.1-0.1,0.1-0.2,0.2-0.3l0.1-0.1c0,0,0,0,0-0.1c0-0.1,0-0.1,0-0.2
		c0-0.2,0-0.3-0.1-0.5c-0.2-0.7-0.4-1.4-0.7-2L14,46c0-0.1-0.1-0.2-0.1-0.4c0-0.1,0-0.1,0-0.2c0-0.1,0.1-0.1,0.1-0.2
		c0.1,0,0.1,0,0.2,0l0,0c0,0,0.1,0,0.1,0.1l0,0.1c0,0.1,0,0.1,0.1,0.2c0.1,0.2,0.2,0.3,0.3,0.4c0.1,0.1,0.2,0.1,0.3,0.2
		c0.3,0.1,0.6,0.3,0.8,0.5c0.5,0.5,0.9,1.1,1.2,1.7c0.1,0.1,0.1,0.3,0.2,0.5c0,0.1,0.1,0.2,0.1,0.3C17.4,49.3,17.4,49.3,17.3,49.4
		 M138.8,63.5c-16,7.2-33.4,10.8-50.9,10.4C70,74.3,52.4,70.6,36.2,63.1c-6.2-2.9-11.6-7.1-16.1-12.2c-0.8-0.9-1.4-1.8-2-2.8
		c-0.9-1.5-1.6-3.1-2.2-4.8c-0.1-0.2-0.1-0.3-0.2-0.5c0-0.1,0-0.1-0.1-0.2c-0.5-1.8-0.8-3.6-0.8-5.4c0.1-5,2-9.9,5.3-13.7
		c4.6-5.4,10.4-9.7,16.9-12.6c16-7.2,33.4-10.8,50.9-10.4c17.8-0.4,35.5,3.3,51.7,10.8c6.2,2.9,11.6,7.1,16.1,12.2
		c0.3,0.3,0.5,0.6,0.7,0.9c1,1.5,2,3,2.8,4.7c1.1,2.5,1.7,5.3,1.8,8.1c-0.1,5-2,9.9-5.3,13.7C151,56.3,145.3,60.6,138.8,63.5
		 M161.7,46.1l-0.1,0.1c-0.3,0.7-0.5,1.4-0.7,2.1c0,0.2-0.1,0.3-0.1,0.5c0,0,0,0.1,0,0.1c0,0,0,0.1,0,0.1c0.1,0.1,0.2,0.2,0.3,0.3
		c0,0.1,0.1,0.2,0.1,0.3c0,0.1,0,0.2-0.1,0.3l0,0l-0.2,0.3c0,0-0.1,0.1-0.1,0.1c0,0-0.1,0-0.1,0c0,0-0.1,0-0.1,0c0,0-0.1,0-0.1-0.1
		c-0.1-0.1-0.1-0.2-0.1-0.2c0-0.1,0-0.2,0-0.3c0-0.1,0-0.1,0-0.2c0-0.1,0-0.1-0.1-0.1c0,0-0.1-0.1-0.2-0.1c0,0-0.1,0-0.1,0
		c-0.3,0-0.6,0-0.9,0.1c-0.1,0-0.2,0.1-0.2,0.1c-0.1,0-0.2,0.1-0.2,0c-0.1,0-0.1,0-0.2-0.1c0,0-0.1-0.1-0.1-0.2c0-0.1,0-0.2,0-0.3
		c0-0.1,0-0.1,0-0.2c0.1-0.2,0.2-0.4,0.3-0.6c0.3-0.6,0.7-1.1,1.1-1.6c0.2-0.2,0.5-0.4,0.7-0.5c0.2-0.1,0.4-0.2,0.5-0.3
		c0.1-0.1,0.2-0.2,0.2-0.4l0-0.1l0-0.1c0,0,0,0,0.1,0c0.1,0,0.1,0,0.2,0c0.1,0,0.1,0,0.1,0.1c0,0,0,0.1,0.1,0.1c0,0.1,0,0.1,0,0.2
		C161.8,45.9,161.8,46,161.7,46.1 M164.1,50.5L164.1,50.5c-0.1,0-0.1,0-0.2,0c-0.1,0-0.1,0-0.2-0.1c-0.3-0.1-0.6-0.2-0.9-0.3
		c-0.2-0.1-0.5-0.2-0.6-0.4c-0.2-0.2-0.3-0.5-0.3-0.8l0-0.1c0-0.8,0.2-1.6,0.4-2.4c0.1-0.2,0.1-0.4,0.2-0.5c0-0.1,0.1-0.1,0.2-0.2
		l0.1,0c0.1-0.1,0.3-0.2,0.4-0.3c0.1-0.1,0.1-0.2,0.1-0.4c0-0.1,0-0.2,0-0.2c0,0,0-0.1,0-0.1c0,0,0-0.1,0-0.1c0,0,0.1,0,0.1,0
		c0.1,0,0.2,0,0.3,0c0.1,0,0.1,0,0.2,0.1c0,0,0.1,0.1,0.1,0.2c0,0.1,0,0.2,0,0.3l0,0.4l0,0.1c-0.1,1.1-0.2,2.3-0.2,3.4
		c0,0.2,0,0.5,0,0.7c0,0.1,0,0.1,0,0.2l0.1,0.1c0.1,0.1,0.2,0.2,0.3,0.4c0,0,0,0.1,0.1,0.1L164.1,50.5
		C164.1,50.4,164.1,50.5,164.1,50.5 M164.5,48.5c0.1,0,0.2,0,0.3,0c0.1,0.1,0.2,0.1,0.2,0.2c0.1,0.1,0.1,0.3,0,0.5
		c0,0.1,0,0.2-0.1,0.3c0,0,0,0.1-0.1,0.1c-0.1,0.1-0.3,0.1-0.4,0.2c-0.2,0-0.4-0.2-0.5-0.4c-0.1-0.2-0.1-0.5,0.1-0.7
		c0,0,0.1-0.1,0.1-0.1C164.3,48.6,164.4,48.5,164.5,48.5 M175.2,38.7c-0.1,0.2-0.1,0.3-0.2,0.5c0,0.1-0.1,0.2-0.2,0.2
		c0,0-0.1,0.1-0.1,0.1c-0.1,0-0.1,0-0.2,0c0,0-0.1-0.1-0.1-0.1c0-0.1-0.1-0.1-0.1-0.2c0,0,0-0.1,0-0.1c0,0,0-0.1,0-0.1
		c0-0.1,0-0.1,0-0.2c0-0.1,0-0.1,0-0.2c0-0.1-0.1-0.1-0.1-0.1c-0.1-0.1-0.2-0.1-0.3-0.1c-0.1,0-0.2-0.1-0.3-0.1c-0.1,0-0.2,0-0.3,0
		c-0.2,0-0.3-0.1-0.4-0.3c-0.1-0.2-0.2-0.3-0.2-0.5c0-0.1-0.1-0.3-0.1-0.4c0-0.1-0.1-0.2-0.1-0.4c0-0.1,0-0.1-0.1-0.2
		c0,0-0.1-0.1-0.1-0.1c0,0-0.1,0-0.1,0l-0.1,0c0,0-0.1,0-0.1,0.1c0,0.1-0.1,0.1-0.1,0.2c0,0.2,0,0.4,0.1,0.6
		c0.1,0.3,0.4,0.6,0.7,0.8l0,0c0.1,0.1,0.3,0.3,0.3,0.5l0.1,0.3c0,0.1,0.1,0.1,0.1,0.1l0,0c0,0,0.1,0.1,0.2,0.1
		c0.1,0.1,0.2,0.1,0.3,0.2c0.1,0,0.1,0.1,0.2,0.2c0,0.1,0.1,0.2,0,0.3c0,0.1-0.1,0.2-0.1,0.3c0,0-0.1,0.1-0.1,0.1
		c-0.1,0-0.2,0.1-0.3,0.1c-0.2,0-0.3,0.1-0.5,0.1c-0.1,0-0.2,0.1-0.3,0.1c-0.1,0-0.1,0.1-0.2,0.2c0,0,0,0.1,0,0.1l0,0l0,0l0.1,0
		c0.1,0,0.2,0,0.3,0c0.2,0,0.5,0,0.7,0c0.1,0,0.2,0,0.3,0.1c0.1,0,0.1,0.1,0.2,0.1c0,0,0.1,0.1,0.1,0.2c0,0.3,0.1,0.6,0.1,0.8
		c0,0.5,0,1-0.2,1.4l0,0.1c-0.1,0.1-0.1,0.3-0.2,0.4c-0.1,0.3-0.2,0.5-0.4,0.8c-0.1,0.1-0.2,0.3-0.3,0.4c-0.2,0.1-0.4,0.2-0.6,0.1
		c-0.1,0-0.1,0-0.2-0.1c-0.1-0.1-0.3-0.2-0.4-0.2c-0.2-0.1-0.4-0.2-0.6-0.4c-0.2-0.1-0.3-0.3-0.3-0.6c0-0.1,0-0.1,0-0.2
		c0-0.1,0-0.1,0-0.2c-0.1-0.1-0.1-0.1-0.2-0.2c-0.1-0.1-0.2-0.1-0.4-0.1l-0.1,0l-0.1,0c0,0,0,0-0.1,0c-0.1,0-0.1-0.1-0.1-0.1
		l-0.4-0.5c-0.1-0.2-0.3-0.3-0.5-0.4c-0.2-0.1-0.3-0.2-0.5-0.1c-0.7,0-1.4,0.1-2,0.3c-0.6,0.2-1.2,0.6-1.6,1.2
		c0,0.1-0.1,0.1-0.1,0.2c-0.1,0.1-0.2,0.2-0.4,0.2c-0.1,0-0.1,0-0.2,0c-0.1,0-0.1,0-0.1-0.1c0,0,0-0.1-0.1-0.1c0-0.1,0-0.1,0-0.2
		l0,0c0-0.1,0-0.1,0.1-0.2c0.1-0.2,0.2-0.3,0.3-0.5c0.3-0.4,0.7-0.8,1.2-1.1c0.1-0.1,0.2-0.1,0.3-0.2c0.1,0,0.1,0,0.2,0
		c0,0,0.1,0,0.1,0c0.1,0,0.1,0,0.2,0c0,0,0.1,0,0.1,0c0,0,0.1-0.1,0.1-0.1c0-0.1,0.1-0.1,0.1-0.2c0-0.1,0-0.2,0-0.3c0,0,0-0.1,0-0.1
		c0-0.1,0.1-0.1,0.2-0.2c0.2-0.2,0.4-0.3,0.6-0.3l0,0c0,0,0.1,0,0.1,0c0.1-0.1,0.3-0.1,0.4-0.2c0.2-0.1,0.3-0.2,0.4-0.4
		c0-0.1,0.1-0.1,0.1-0.2c0-0.1,0-0.2,0-0.2l0,0c0,0-0.1-0.1-0.1-0.1c0,0-0.1,0-0.1,0c-0.1,0-0.2,0.1-0.3,0.1
		c-0.3,0.2-0.6,0.4-0.8,0.6c-0.5,0.4-1,0.8-1.5,1.1c-0.2,0.1-0.4,0.2-0.5,0.3c-0.1,0-0.2,0.1-0.2,0.1c-0.1,0-0.1,0-0.2,0
		c0,0-0.1,0-0.1-0.1c-0.1-0.1-0.1-0.2-0.1-0.3c0-0.1,0-0.2,0.1-0.3c0.1-0.1,0.2-0.2,0.3-0.2c0.2-0.1,0.5-0.2,0.7-0.3
		c0,0,0.1,0,0.1,0c0,0,0-0.1,0-0.1c0,0,0-0.1,0-0.1l0-0.2c0,0,0-0.1,0-0.1c0-0.1,0-0.1,0.1-0.2c0,0,0.1,0,0.2-0.1l0.1,0
		c0.1,0,0.3,0,0.4,0c0.1,0,0.3,0,0.4,0c0.2,0,0.4-0.2,0.6-0.4c0,0,0.1-0.1,0.1-0.1c0-0.1,0.1-0.1,0.1-0.2c0-0.1,0.1-0.1,0.2-0.2
		c0.1,0,0.2-0.1,0.2-0.1c0.2,0,0.3,0,0.5,0l0,0c0,0,0.1,0,0.1,0c0,0,0.1,0,0.1-0.1l0.1-0.1c0,0,0.1,0,0.1-0.1l0.1,0
		c0.1,0,0.1,0,0.2,0c0.1,0,0.1-0.1,0.2-0.2l0.3-0.3l0.1-0.1l0,0c0.1,0,0.1-0.1,0.2-0.1c0.2-0.1,0.5-0.2,0.7-0.3
		c0.1-0.1,0.2-0.1,0.3-0.2c0.1-0.1,0.1-0.1,0.1-0.2c0-0.1,0-0.2,0-0.2l0-0.1c-0.1-0.1-0.1-0.1-0.2-0.1c-0.1,0-0.2,0-0.3,0.1
		c-0.1,0.1-0.3,0.2-0.4,0.4c0,0-0.1,0.1-0.1,0.1c0,0-0.1,0-0.1,0l-0.2,0c0,0-0.1,0-0.1,0l0,0l0,0.1l0,0.1c0,0.1,0,0.1-0.1,0.2
		c-0.1,0.1-0.2,0.2-0.3,0.2l-0.1,0c0,0-0.1,0-0.1,0c0,0-0.1,0-0.1,0l0-0.1l0-0.1c0-0.1-0.1-0.1-0.1-0.1c-0.1,0-0.1,0-0.2,0
		c-0.1,0-0.1,0-0.2,0c-0.1,0-0.2,0-0.2,0c-0.2,0.1-0.5,0.1-0.7,0.1c-0.2,0-0.4,0-0.5-0.1c-0.2-0.1-0.3-0.2-0.4-0.4
		c0-0.1,0-0.1-0.1-0.2c0-0.1-0.1-0.2-0.1-0.3c-0.1-0.2-0.2-0.3-0.4-0.4c-0.3-0.1-0.6-0.3-0.9-0.3c-0.2,0-0.3-0.1-0.5-0.1
		c-0.1,0-0.2,0-0.3,0.1c-0.1,0.1-0.1,0.1-0.2,0.2c0,0.1-0.1,0.1-0.1,0.2c0,0-0.1,0.1-0.1,0.1c-0.1,0-0.1,0-0.2,0l0,0
		c0,0-0.1,0-0.1-0.1c0,0,0-0.1,0-0.1c0-0.1,0-0.2,0-0.2c0.1-0.2,0.2-0.4,0.3-0.6c0.1-0.2,0.2-0.4,0.2-0.5c0-0.1,0-0.1,0-0.2
		c0,0,0-0.1,0-0.1c0,0,0,0,0-0.1l0,0c0,0-0.1,0-0.1,0c0,0-0.1,0-0.1,0.1c0,0-0.1,0.1-0.1,0.2c0,0.1-0.1,0.1-0.2,0.2
		c0,0-0.1,0.1-0.2,0.1c-0.1,0-0.1,0-0.2,0l-0.1,0c0,0-0.1-0.1-0.1-0.1c-0.2-0.2-0.4-0.5-0.5-0.8c-0.1-0.1-0.1-0.3-0.1-0.4
		c0-0.1,0.1-0.3,0.2-0.4l0.1,0c0.1,0,0.1,0,0.2,0l0.6,0c0.2,0,0.4,0,0.6-0.1c0.1,0,0.2-0.1,0.3-0.1l0,0l0.2-0.2c0,0,0.1-0.1,0.1-0.2
		c0-0.1,0-0.1,0-0.2c0-0.1-0.1-0.2-0.1-0.2c0,0-0.1-0.1-0.1-0.1l0,0l0-0.1c0-0.1,0-0.1,0-0.2c0-0.1,0-0.2,0-0.2c0-0.1,0-0.1-0.1-0.2
		c0,0-0.1-0.1-0.1-0.1l-0.1-0.1c-0.1,0-0.2-0.1-0.3-0.2c-0.1-0.1-0.2-0.2-0.2-0.3c0-0.1,0-0.2,0-0.3l0-0.1c0-0.1,0.1-0.1,0.1-0.1
		c0.1,0,0.1,0,0.2,0c0.1,0,0.2,0.2,0.2,0.3c0,0.1,0,0.1,0.1,0.1c0,0,0.1,0,0.1,0c0,0,0.1,0,0.1,0l0,0l0,0l0-0.1c0-0.1,0-0.1,0-0.2
		l-0.1-0.8c0-0.1,0-0.3,0-0.4c0-0.1,0-0.1,0-0.2c0,0,0-0.1,0.1-0.1c0,0,0,0,0.1,0c0,0,0.1,0,0.2,0c0.1,0,0.1,0,0.2,0.1
		c0,0,0.1,0.1,0.1,0.1l0.1,0.2c0,0.1,0.1,0.1,0.1,0.1c0,0,0.1,0.1,0.2,0.1c0.1,0,0.3,0,0.4-0.1c0.1-0.1,0.2-0.1,0.2-0.2
		c0,0,0.1-0.1,0.1-0.1c0,0,0.1-0.1,0.1-0.1c0,0,0.1,0,0.1,0c0,0,0.1,0,0.1,0c0.1,0,0.1,0.1,0.2,0.1l0.3,0.3c0.1,0.1,0.1,0.1,0.2,0.2
		c0,0,0.1,0,0.1,0c0.1,0,0.2,0,0.3,0c0.1,0,0.1-0.1,0.2-0.2c0.1-0.1,0.1-0.2,0.2-0.3c0-0.1,0.1-0.1,0.1-0.2c0,0,0.1-0.1,0.1-0.1l0,0
		c0.2,0,0.4,0,0.5,0.2c0.1,0.1,0.2,0.2,0.3,0.4l0.4,0.6c0.1,0.2,0.2,0.3,0.4,0.4c0.1,0.1,0.3,0.2,0.5,0.2c0.1,0,0.1,0,0.2,0
		c0.1,0.1,0.3,0.2,0.4,0.3c0.4,0.3,0.6,0.8,0.7,1.2c0.1,0.3,0,0.6-0.1,0.8c0,0.1-0.1,0.1-0.1,0.2c0,0-0.1,0.1-0.1,0.1
		c0,0-0.1,0-0.1,0c0,0-0.1,0-0.1-0.1c0-0.1-0.1-0.1-0.1-0.2c0-0.1,0-0.2,0-0.2c0-0.1,0-0.1,0-0.2c-0.1-0.1-0.1-0.2-0.3-0.2
		c-0.1,0-0.2,0-0.3,0c-0.1,0.1-0.2,0.1-0.3,0.2c0,0.1-0.1,0.1-0.1,0.2l0,0.1c0,0,0,0.1-0.1,0.1c0,0-0.1,0-0.1,0c0,0-0.1,0-0.1,0
		c-0.1,0-0.1,0-0.2,0c-0.1,0-0.2,0-0.3,0c-0.1,0.1-0.1,0.1-0.2,0.2c-0.1,0.1-0.1,0.2-0.2,0.3c0,0-0.1,0.1-0.1,0.1
		c-0.1,0-0.1,0-0.2,0.1c-0.1,0-0.3,0-0.4,0c-0.1,0-0.3,0-0.4,0.1c-0.1,0-0.1,0-0.2,0.1c-0.1,0.1-0.3,0.2-0.4,0.3c0,0,0,0.1-0.1,0.1
		c0,0,0,0.1,0,0.1c0,0,0.1,0.1,0.1,0.1c0.1,0,0.1,0,0.2,0.1l0.1,0c0.3,0,0.6,0.1,0.8,0.3c0.1,0.1,0.3,0.2,0.4,0.3
		c0.2,0.2,0.5,0.4,0.7,0.4c0.3,0,0.6,0,0.9-0.1c0.3-0.1,0.5-0.2,0.8-0.4c0.1-0.1,0.1-0.1,0.2-0.2c0-0.1,0-0.2,0-0.3l-0.1-0.4
		c0-0.1,0-0.2,0-0.3c0-0.1,0-0.1,0.1-0.2c0,0,0.1-0.1,0.1-0.1c0,0,0.1,0,0.1,0c0.1,0,0.1,0,0.2,0.1c0.1,0.1,0.3,0.2,0.4,0.3
		c0.2,0.2,0.4,0.4,0.6,0.7c0,0,0,0.1,0.1,0.1l0,0c0,0.3,0.2,0.5,0.4,0.7c0.2,0.2,0.5,0.4,0.8,0.5l0,0c0.1,0,0.1,0.1,0.1,0.1
		c0.3,0.3,0.5,0.7,0.7,1.1c0.1,0.2,0.2,0.5,0.3,0.7C175.2,38.4,175.2,38.5,175.2,38.7C175.2,38.6,175.2,38.6,175.2,38.7 M94.9,74.3
		c15.2-0.6,30.2-4.1,44.1-10.4c5-2.3,9.6-5.4,13.6-9.2c1.7-1.4,3.6-2.5,5.7-3.1c1.1-0.3,2.3-0.4,3.4-0.3c0.1,0,0.3,0,0.4,0
		c0.2,0,0.3,0.1,0.4,0.2c0.2,0.1,0.3,0.3,0.4,0.5c0.2,0.4,0.4,0.7,0.6,1.1c0.2,0.4,0.4,0.7,0.6,1c0.1,0.2,0.3,0.3,0.4,0.4l0,0
		c0.3,0.2,0.8,0.3,1.2,0.3c0.4-0.1,0.7-0.2,1-0.5c0.4-0.3,0.7-0.6,1-0.9c0.1-0.1,0.2-0.2,0.3-0.3c0.3-0.3,0.6-0.7,0.8-1.1
		c0-0.1,0-0.1,0.1-0.2c0,0,0-0.1,0-0.1l0,0c-0.1-0.1-0.1-0.2-0.2-0.3c-0.1-0.4-0.1-0.7,0-1.1c0-0.1,0.1-0.2,0.2-0.2
		c0.1-0.2,0.3-0.3,0.3-0.5c0.1-0.2,0.1-0.4,0-0.6c0-0.2-0.1-0.3-0.1-0.5c0-0.1-0.1-0.2-0.2-0.3c0-0.1-0.1-0.1-0.2-0.1
		c-0.1,0-0.2,0-0.3,0c-0.1,0-0.2,0.1-0.2,0.2c-0.1,0.1-0.1,0.1-0.1,0.2c-0.1,0.2-0.2,0.4-0.4,0.5c-0.1,0.1-0.2,0.1-0.3,0.1
		c-0.1,0-0.1,0-0.2,0.1c-0.2,0.1-0.4,0.3-0.5,0.5c0,0-0.1,0-0.1,0c0,0-0.1,0-0.1,0c-0.1,0-0.2-0.1-0.3-0.2c-0.1-0.1-0.1-0.2-0.2-0.2
		c0,0,0-0.1,0-0.1c0,0,0-0.1,0-0.1c0.1-0.1,0.1-0.3,0.1-0.4c0-0.1,0-0.2,0-0.3c0,0,0-0.1-0.1-0.1c0,0-0.1,0-0.1,0
		c-0.1,0-0.3,0-0.4,0.1c-0.1,0.1-0.2,0.2-0.2,0.3l0,0c0,0.1-0.1,0.1-0.1,0.1c0,0-0.1,0-0.1,0c-0.1,0-0.1,0-0.1-0.1c0,0,0-0.1,0-0.2
		l0-0.1c0-0.1,0-0.3-0.1-0.4c-0.1-0.1-0.1-0.1-0.2-0.2l-0.3-0.2c-0.1,0-0.2-0.1-0.2-0.2s0-0.2,0.1-0.3l0,0c0.1-0.2,0.2-0.3,0.3-0.5
		c0-0.2,0-0.3-0.1-0.5c-0.1-0.2-0.1-0.5-0.1-0.8c0-0.2,0.1-0.4,0.3-0.6c0.2-0.2,0.4-0.2,0.6-0.3c0.1,0,0.1,0,0.2,0
		c0,0,0.1,0,0.1-0.1c0,0,0-0.1,0.1-0.1l0-0.1c0-0.1,0.1-0.2,0.1-0.2c0-0.1,0.1-0.1,0.2-0.1c0.1-0.1,0.3-0.1,0.5-0.2
		c0.7-0.1,1.4-0.1,2.1,0.1c0.1,0,0.2,0.1,0.3,0.1c0.6,0.3,1,0.9,1.1,1.6c0.1,0.4,0.1,0.8-0.1,1.2l-0.1,0.1c-0.1,0.2-0.1,0.3-0.2,0.5
		c0,0.1,0,0.2,0,0.2c0,0.1,0.1,0.2,0.2,0.2c0,0,0.1,0,0.1,0c0.1,0,0.1,0,0.2,0c0.1,0,0.1-0.1,0.2-0.1c0.1-0.1,0.2-0.2,0.3-0.4
		l0.5-0.7c0.1-0.1,0.1-0.2,0.2-0.3c0.1-0.1,0.2-0.1,0.3-0.1c0.1,0,0.3,0,0.4,0l0.5,0c0.2,0,0.5-0.1,0.6-0.2c0.2-0.2,0.4-0.4,0.5-0.6
		c0.2-0.3,0.4-0.6,0.5-0.9l0.1-0.2c0.1-0.2,0.2-0.5,0.2-0.7c0-0.4,0-0.8,0-1.2l0-0.2c0-0.2,0-0.4,0.1-0.6c0.1-0.2,0.2-0.3,0.3-0.4
		c0.1-0.1,0.3-0.2,0.4-0.2l0,0c0.1-0.1,0.2-0.2,0.2-0.3c0-0.1,0.1-0.2,0.1-0.4l0-0.6l0-0.1c0.1-0.6-0.1-1.2-0.4-1.8
		c-0.2-0.3-0.4-0.6-0.7-0.9c-0.1-0.1-0.1-0.1-0.2-0.2c0-0.1-0.1-0.1-0.1-0.2c-0.2-0.3-0.4-0.5-0.7-0.8c-0.1-0.1-0.1-0.1-0.2-0.1l0,0
		c-0.3-0.1-0.5-0.3-0.7-0.5c-0.1-0.1-0.1-0.2-0.2-0.3c0-0.1,0-0.1,0-0.2c0-0.3-0.1-0.5-0.3-0.7c-0.1,0-0.1-0.1-0.1-0.2
		c0-0.1,0-0.1,0-0.2c0-0.1,0-0.3,0.1-0.4l0-0.2c0-0.4-0.1-0.7-0.3-1.1c-0.2-0.3-0.5-0.6-0.7-0.8l-0.1-0.1c-0.2-0.2-0.3-0.4-0.4-0.6
		c-0.1-0.3,0-0.6,0.2-0.8c0,0,0.1-0.1,0.1-0.1c0.2-0.2,0.3-0.4,0.3-0.6c0-0.2,0-0.3,0-0.5c0-0.1,0-0.2,0-0.2c0-0.1,0-0.1,0-0.2l0,0
		c0.1-0.1,0.1-0.2,0.1-0.3c0-0.2,0-0.5,0-0.7c0-0.2-0.1-0.3-0.1-0.4c-0.3-0.6-0.7-1.2-1.2-1.6c-1-0.8-2.1-1.5-3.2-1.9
		c-3.1-1.3-6.2-2.3-9.4-3.1c-2.3-0.6-4.7-1.3-7-2c-0.1,0-0.1-0.1-0.2-0.1c-3.2-2.6-6.6-4.9-10.4-6.6C123.5,3.4,105.8-0.3,87.9,0
		C70.3-0.3,52.8,3.2,36.8,10.5c-4,1.8-7.8,4.2-11.1,7c-0.9,0.4-1.8,0.7-2.8,0.9c-3.9,1-7.8,2.1-11.6,3.4c-1.6,0.5-3.1,1.2-4.5,2.1
		c-0.6,0.4-1.2,0.9-1.7,1.5c-0.2,0.3-0.4,0.5-0.5,0.8c-0.1,0.3-0.2,0.6-0.2,0.9c0,0.2,0.1,0.4,0.1,0.6c0,0.1,0.1,0.1,0,0.2
		c0,0.1,0,0.2,0,0.2c0,0.1,0,0.3,0,0.4c0,0.2,0.1,0.4,0.3,0.6l0.1,0.1c0.2,0.2,0.3,0.4,0.3,0.7c0,0.2-0.1,0.5-0.2,0.7
		c0,0.1-0.1,0.1-0.2,0.2c-0.2,0.2-0.4,0.4-0.7,0.6c-0.2,0.3-0.4,0.6-0.5,0.9c0,0.1,0,0.3,0,0.4c0,0.1,0,0.3,0.1,0.4
		c0,0.1,0,0.2,0,0.3c0,0.1,0,0.1-0.1,0.2c0,0-0.1,0.1-0.1,0.1c-0.2,0.1-0.3,0.4-0.3,0.6l0,0.1c0,0.1,0,0.1-0.1,0.2
		c-0.1,0.1-0.2,0.2-0.3,0.3c-0.2,0.2-0.4,0.3-0.6,0.5c-0.1,0-0.1,0.1-0.1,0.1c-0.2,0.2-0.3,0.3-0.5,0.5c-0.1,0.1-0.2,0.3-0.3,0.4
		l0,0c-0.1,0.1-0.2,0.2-0.3,0.3c-0.3,0.4-0.6,0.8-0.8,1.2C0.1,38.3,0,38.7,0,39.1c0,0.1,0,0.2,0,0.3c0,0.2,0,0.4,0,0.7
		c0,0.1,0,0.3,0,0.4c0,0.1,0.1,0.2,0.1,0.3l0.1,0.1l0.4,0.2C0.8,41,1,41.2,1,41.3c0.1,0.2,0.1,0.4,0.1,0.6l0,0c0,0.4,0,0.8,0,1.2
		c0,0.3,0.1,0.5,0.2,0.7l0,0.1c0.1,0.2,0.2,0.4,0.3,0.6c0.1,0.3,0.3,0.6,0.5,0.9c0.1,0.2,0.3,0.3,0.5,0.4c0.1,0,0.2,0.1,0.3,0.1
		l0.8,0c0.1,0,0.2,0,0.3,0c0.1,0,0.2,0.1,0.3,0.2c0,0,0.1,0.1,0.1,0.1L5.2,47c0.1,0.1,0.2,0.2,0.3,0.3c0,0,0.1,0.1,0.2,0.1
		c0.1,0,0.1,0,0.2,0c0.1,0,0.1-0.1,0.2-0.1C6,47.3,6,47.2,6,47.1c0-0.1,0-0.2,0-0.3c0-0.1-0.1-0.3-0.2-0.4c-0.1-0.3-0.2-0.6-0.2-0.9
		c0-0.7,0.3-1.3,0.8-1.7c0.1-0.1,0.2-0.1,0.3-0.2c0.3-0.1,0.6-0.2,0.9-0.2c0.5-0.1,1,0,1.6,0.1c0.1,0,0.3,0.1,0.4,0.1
		c0.1,0,0.1,0.1,0.1,0.1c0.1,0.1,0.1,0.2,0.1,0.2l0,0.1c0,0.1,0.1,0.1,0.1,0.1c0.1,0,0.1,0,0.2,0l0.1,0c0.2,0,0.4,0.1,0.6,0.3
		c0.2,0.2,0.2,0.4,0.2,0.6c0,0.2,0,0.5-0.1,0.7C11,46,11,46.2,11,46.4c0,0.1,0.1,0.3,0.2,0.4c0.1,0.1,0.1,0.3,0,0.4
		c0,0.1-0.1,0.1-0.1,0.1l-0.3,0.2c-0.1,0.1-0.1,0.1-0.2,0.2c-0.1,0.1-0.1,0.2-0.1,0.4c0,0.1,0,0.1,0,0.2c0,0,0,0.1-0.1,0.1
		c0,0-0.1,0-0.1,0c0,0-0.1,0-0.1-0.1l0-0.1c-0.1-0.1-0.1-0.2-0.2-0.3C10,48,9.9,48,9.8,48c0,0-0.1,0-0.1,0c0,0-0.1,0-0.1,0.1
		c0,0-0.1,0.1-0.1,0.1c-0.1,0.2,0,0.4,0.1,0.6l0,0c0,0,0,0.1,0,0.2c0,0.1,0,0.1-0.1,0.2c-0.1,0.1-0.2,0.3-0.4,0.3c0,0-0.1,0-0.1,0
		c0,0-0.1,0-0.1,0l0,0c-0.1-0.2-0.3-0.4-0.6-0.5c0,0-0.1,0-0.1,0c-0.1,0-0.3-0.1-0.4-0.2c-0.1-0.1-0.2-0.3-0.3-0.4
		c-0.1-0.1-0.2-0.3-0.3-0.4c-0.1,0-0.1-0.1-0.2-0.1c-0.1,0-0.1,0-0.2,0.1c-0.1,0.1-0.1,0.1-0.2,0.2c0,0.1-0.1,0.1-0.1,0.2
		c-0.1,0.2-0.1,0.4-0.2,0.6c0,0.3,0,0.6,0.2,0.8c0,0.1,0.1,0.1,0.2,0.2c0.1,0.1,0.2,0.3,0.2,0.4c0.1,0.3,0.1,0.6,0,0.9
		c0,0.1-0.1,0.2-0.2,0.3l0,0.1c0,0,0,0.1,0,0.1C6.9,51.9,7,52,7,52.2c0.2,0.3,0.4,0.6,0.7,0.9c0.1,0.1,0.2,0.1,0.2,0.2
		c0.3,0.3,0.6,0.6,0.9,0.9c0.3,0.2,0.6,0.4,0.9,0.5c0.4,0.1,0.9,0.1,1.3-0.2l0,0c0.2-0.1,0.4-0.3,0.5-0.5c0.2-0.3,0.4-0.7,0.6-1
		c0.2-0.4,0.4-0.7,0.6-1.1c0.1-0.2,0.2-0.3,0.4-0.5c0.1-0.1,0.3-0.2,0.4-0.2l1,0c1.7,0,3.4,0.4,4.9,1.2c1.3,0.7,2.5,1.4,3.7,2.3
		c3.8,3.6,8.1,6.5,12.8,8.8C50.1,70,65.3,73.7,80.8,74.3H94.9z M170.7,34c0,0.1,0,0.3-0.1,0.4c0,0.1-0.1,0.1-0.2,0.1
		c-0.2,0.1-0.5,0-0.6-0.2c-0.1-0.1-0.1-0.3-0.1-0.4c0-0.1,0.1-0.2,0.2-0.3c0.1,0,0.1-0.1,0.2-0.1c0.1,0,0.3,0,0.4,0
		C170.6,33.6,170.7,33.8,170.7,34"/>
	<path class="st0" d="M151.8,37.2c-0.1,3.7-1.5,7.3-3.9,10.2c-3.3,3.9-7.4,7.1-12.1,9.4c-11.7,5.7-24.5,9-37.5,9.7
		c-3.5,0.3-6.9,0.4-10.4,0.4c-15.5,0.3-30.9-2.7-45.2-8.7c-4.9-2.2-9.4-5.2-13.3-9c-2.6-2.6-4.4-5.9-5.2-9.5
		C24.1,38.8,24,38,24,37.2c0.1-3.7,1.5-7.3,3.9-10.2c3.3-3.9,7.5-7.1,12.1-9.4c11.8-5.7,24.5-9,37.5-9.7c3.5-0.3,6.9-0.4,10.4-0.4
		c15.5-0.3,30.9,2.7,45.2,8.7c4.9,2.2,9.4,5.2,13.3,9c2.6,2.6,4.4,5.9,5.2,9.5C151.7,35.6,151.8,36.4,151.8,37.2 M152.1,37.2
		c0-0.8-0.1-1.7-0.2-2.5c-0.8-3.7-2.6-7-5.3-9.7c-3.9-3.8-8.4-6.9-13.4-9.1c-14.3-6.1-29.8-9.1-45.4-8.7c-3.5,0-6.9,0.1-10.4,0.4
		c-13.1,0.7-25.9,4-37.7,9.7c-4.7,2.3-8.8,5.5-12.2,9.5c-2.5,2.9-3.9,6.6-4,10.4c0,0.8,0.1,1.7,0.2,2.5c0.8,3.7,2.6,7,5.3,9.7
		c3.9,3.8,8.4,6.9,13.4,9.1c14.3,6.1,29.8,9.1,45.4,8.8c3.5,0,6.9-0.1,10.4-0.4c13.1-0.7,25.9-4,37.7-9.7c4.7-2.3,8.8-5.5,12.2-9.5
		C150.6,44.7,152,41,152.1,37.2"/>
	<path class="st0" d="M155.5,37.2c-0.1,4-1.5,7.8-4,10.9c-3.6,4.5-8.2,8.1-13.4,10.6c-12.9,6.3-27,9.9-41.4,10.4
		c-3,0.2-5.9,0.3-8.9,0.3c-16.5,0.3-32.9-3-48.1-9.6c-5.4-2.5-10.3-6-14.4-10.3c-2.9-3.1-4.7-7.1-5.1-11.3c0-0.3,0-0.7,0-1
		c0.1-4,1.5-7.8,4-10.9c3.6-4.5,8.2-8.1,13.4-10.6C50.6,9.3,64.6,5.8,79,5.2c3-0.2,5.9-0.3,8.9-0.3c16.5-0.3,32.9,3,48.1,9.6
		c5.4,2.5,10.3,6,14.4,10.3c2.9,3.1,4.7,7.1,5.1,11.3C155.5,36.5,155.5,36.9,155.5,37.2 M157.2,37.2L157.2,37.2c0-0.4,0-0.8,0-1.2
		c0,0,0,0,0,0c-0.4-4.6-2.4-8.9-5.6-12.3c-4.2-4.5-9.3-8.2-15-10.7c-15.4-6.8-32-10.1-48.8-9.8c-3,0-6,0.1-9,0.3
		C64.3,4.1,50,7.7,36.9,14.1c-5.4,2.7-10.2,6.4-14,11.1c-2.8,3.4-4.3,7.6-4.4,12c0,0.4,0,0.8,0,1.2c0,0,0,0,0,0
		C19,43,21,47.3,24.1,50.7c4.2,4.5,9.3,8.2,15,10.7c15.4,6.8,32,10.1,48.8,9.8c3,0,6-0.1,9-0.3c14.6-0.6,28.9-4.2,42-10.6
		c5.4-2.7,10.2-6.4,14-11.1C155.6,45.8,157.1,41.6,157.2,37.2"/>
	<path class="st0" d="M75.4,46.8c-3.2-0.1-6.1-1.9-7.5-4.8c-0.9-1.7-1.3-3.7-1.3-5.6c-0.1-3.1,1.1-6.1,3.4-8.3
		c1.5-1.4,3.4-2.1,5.4-2.1c3.2,0.1,6.1,1.9,7.5,4.8c0.9,1.7,1.3,3.7,1.3,5.6c0.1,3.2-1.2,6.2-3.5,8.4C79.2,46,77.3,46.8,75.4,46.8
		 M75.4,24.1c-3.3-0.1-6.6,1.1-9,3.5c-2.4,2.3-3.8,5.5-3.8,8.9c0,3.3,1.4,6.5,3.8,8.9c2.4,2.3,5.6,3.6,9,3.5c3.3,0.1,6.6-1.1,9-3.5
		c2.4-2.3,3.8-5.5,3.8-8.9c0-3.3-1.4-6.5-3.8-8.9C82,25.2,78.7,24,75.4,24.1"/>
	<path class="st0" d="M65,24.6H46.1c0,0.3,0,0.7-0.1,1c-0.2,0.9-0.4,1.8-0.7,2.6c0.9-0.9,2.2-1.5,3.6-1.4h4.4v19.3
		c0,0.3-0.1,0.6-0.3,0.9c-0.3,0.5-0.8,0.9-1.3,1.1h6.1l0,0c-0.4-0.4-0.6-0.9-0.8-1.4c-0.1-0.2-0.1-0.4-0.1-0.6V26.8h3.9
		c0.3,0,0.6,0,1,0.1c0.5,0,1.1,0.2,1.5,0.5c0.3,0.2,0.7,0.5,0.9,0.8c0-0.6,0.1-1.2,0.2-1.8C64.5,25.8,64.7,25.2,65,24.6"/>
	<path class="st0" d="M93.6,46.1V26.8c2.3-0.1,4.6,0,6.8,0.2c1.2,0.1,2.3,0.4,3.4,0.9c1.2,0.6,2.2,1.7,2.7,3
		c0.5,1.4,0.8,2.8,0.8,4.3c0,0.5,0,0.9,0,1.4c0,2-0.5,4.1-1.6,5.8c-1.2,1.8-3,3-5.1,3.5C98.4,46.5,95.9,46.5,93.6,46.1 M100.9,24.6
		H89.1c0.3,0.4,0.6,0.8,0.8,1.2c0.2,0.3,0.2,0.7,0.2,1v19.8c0,0.2-0.1,0.4-0.2,0.5c-0.1,0.2-0.3,0.4-0.5,0.5
		c-0.2,0.1-0.3,0.3-0.5,0.4h10.8c4.5,0.2,8.7-2.5,10.6-6.6c0.6-1.6,1-3.3,0.9-5.1c0.1-2.3-0.4-4.6-1.4-6.7c-1.8-3.1-5.1-5-8.6-5.1
		C101.1,24.6,101,24.6,100.9,24.6"/>
	<path class="st0" d="M110.7,27c0,0.1,0,0.3,0.1,0.4c0.1,0.2,0.2,0.4,0.4,0.5c0.2,0.1,0.4,0.2,0.6,0.3c0.1,0,0.2,0.1,0.3,0.1
		c0,0,0.1,0,0.1,0.1l0.1,0.1c0.2,0.2,0.3,0.6,0.3,0.9c0,0.5,0,1-0.1,1.4c0,0.2-0.1,0.3-0.2,0.5c0,0.1,0,0.1,0,0.2c0,0,0,0.1,0,0.1
		l0,0l0,0l0,0l0.1,0c0.1,0,0.1-0.1,0.2-0.2l0.1-0.1c0.1-0.2,0.3-0.4,0.4-0.6c0.5-1.1,0.9-2.3,1.2-3.5c0-0.2,0-0.3,0.1-0.5
		c0-0.1,0-0.3,0-0.4c-0.1-0.7-0.7-1.3-1.4-1.5c-0.7-0.2-1.5,0.2-1.9,0.8C110.8,26.1,110.7,26.6,110.7,27"/>
	<path class="st0" d="M115.4,46.7c1,0.7,2.1,1.3,3.2,1.8c1.7,0.7,3.7,0.8,5.4,0.2c2.2-0.9,4.1-2.6,5-4.8c0.2-0.5,0.3-1,0.4-1.5
		c0.4-1.7-0.1-3.4-1.2-4.7c-0.9-1-2-1.8-3.3-2.3c-1.3-0.6-2.5-1.2-3.7-1.9c-0.6-0.3-1.1-0.7-1.5-1.1c-0.4-0.4-0.7-0.9-0.7-1.5
		c0-0.5,0-1.1,0.2-1.6c0-0.1,0.1-0.2,0.1-0.3c0.5-1,1.4-1.8,2.4-2.1c1.1-0.3,2.2-0.2,3.2,0.4c0.8,0.6,1.5,1.4,1.9,2.3h0.8
		c0.1-1.1,0.4-2.2,0.8-3.2c-2.2-2-5.3-2.5-8.1-1.4c-2.9,1-4.8,3.7-4.6,6.8c0,0.6,0.1,1.3,0.4,1.9c0.5,1.1,1.3,2,2.3,2.7
		c1.6,1.1,3.3,1.9,5.2,2.4c0.3,0.1,0.6,0.2,0.9,0.4c1.2,0.6,1.9,1.8,1.8,3.1c-0.1,2-1.4,3.7-3.2,4.4c-1.2,0.4-2.6,0.3-3.7-0.4
		c-1-0.7-1.9-1.5-2.6-2.6h-0.8c0,0.2,0,0.4,0,0.6C116,45,115.8,45.9,115.4,46.7"/>
</g>
</svg>
