<?xml version="1.0" encoding="UTF-8"?>
<svg version="1.1" xmlns="http://www.w3.org/2000/svg" width="300" height="300">
<path d="M0 0 C99 0 198 0 300 0 C300 99 300 198 300 300 C201 300 102 300 0 300 C0 201 0 102 0 0 Z " fill="#FDFDFD" transform="translate(0,0)"/>
<path d="M0 0 C1.98 0 3.96 0 6 0 C6.19916016 1.37285156 6.19916016 1.37285156 6.40234375 2.7734375 C6.57894531 3.96195313 6.75554687 5.15046875 6.9375 6.375 C7.11152344 7.55835938 7.28554687 8.74171875 7.46484375 9.9609375 C7.83462786 12.90702381 7.83462786 12.90702381 9 15 C9.70125 14.67 10.4025 14.34 11.125 14 C14.26820306 12.90671198 16.69794492 12.92682426 20 13 C20.50567374 17.20767175 21.0035354 21.41623253 21.5 25.625 C21.64308594 26.81480469 21.78617188 28.00460938 21.93359375 29.23046875 C22.13662109 30.96103516 22.13662109 30.96103516 22.34375 32.7265625 C22.46943359 33.78439941 22.59511719 34.84223633 22.72460938 35.93212891 C22.99759627 38.97322227 23.04799174 41.94852512 23 45 C19.70297188 44.43154688 18.11120454 43.60250253 16 41 C15.3840332 38.79516602 15.3840332 38.79516602 15.05078125 36.25390625 C14.92509766 35.33416016 14.79941406 34.41441406 14.66992188 33.46679688 C14.55197266 32.50837891 14.43402344 31.54996094 14.3125 30.5625 C14.18294922 29.60794922 14.05339844 28.65339844 13.91992188 27.66992188 C13.39803885 23.72404443 13 19.98921482 13 16 C11.68 16.33 10.36 16.66 9 17 C9.09087891 17.70608398 9.18175781 18.41216797 9.27539062 19.13964844 C9.68618267 22.34277311 10.09313224 25.54637459 10.5 28.75 C10.64308594 29.86117187 10.78617188 30.97234375 10.93359375 32.1171875 C11.06894531 33.18710938 11.20429687 34.25703125 11.34375 35.359375 C11.46943359 36.34389648 11.59511719 37.32841797 11.72460938 38.34277344 C12 41 12 41 12 45 C7.05 45 2.1 45 -3 45 C-4.65670821 37.29990835 -5.74613856 29.63705719 -6.625 21.8125 C-6.7590625 20.67619141 -6.893125 19.53988281 -7.03125 18.36914062 C-7.65864396 12.87944344 -8.17593251 7.52588006 -8 2 C-9.32 1.67 -10.64 1.34 -12 1 C-8.7 1 -5.4 1 -2 1 C-0.66666667 10.33333333 0.66666667 19.66666667 2 29 C1.93941406 28.44127197 1.87882812 27.88254395 1.81640625 27.30688477 C1.53937038 24.72592274 1.26965281 22.14424343 1 19.5625 C0.90460937 18.68400391 0.80921875 17.80550781 0.7109375 16.90039062 C0.12531604 11.23241145 -0.09274645 5.69811032 0 0 Z " fill="#191919" transform="translate(63,127)"/>
<path d="M0 0 C2.31 0 4.62 0 7 0 C7.33 5.28 7.66 10.56 8 16 C9.98 15.01 11.96 14.02 14 13 C17.45222623 12.33032002 20.5440673 12.33650708 24 13 C27.94125292 15.79172082 28.67240101 17.56480441 29.73828125 22.234375 C30.72667741 28.5009411 31.25351547 34.66211332 31 41 C31.66 41 32.32 41 33 41 C33.66 38.36 34.32 35.72 35 33 C35.33 33 35.66 33 36 33 C36.35288435 36.7935068 36.28393415 38.55941253 34.1875 41.8125 C31.16815714 44.83184286 29.3164652 44.97488371 25.0625 45.3125 C21.88184641 45.28326605 21.1978691 45.152207 18.5625 43.125 C15.80235364 39.37120095 15.48797644 35.83456202 14.9375 31.3125 C14.84662109 30.61705078 14.75574219 29.92160156 14.66210938 29.20507812 C14.11100854 24.76726615 13.91209699 20.47133321 14 16 C12.02 16.99 12.02 16.99 10 18 C10.06058594 18.77601563 10.12117187 19.55203125 10.18359375 20.3515625 C10.82071714 28.56555329 11.42090107 36.78172371 12 45 C9.69 45 7.38 45 5 45 C4.91959473 44.32122803 4.83918945 43.64245605 4.75634766 42.94311523 C4.38034445 39.77444343 4.00291474 36.6059444 3.625 33.4375 C3.48924561 32.29829102 3.35349121 31.15908203 3.21362305 29.98535156 C2.32891127 22.60839349 1.3839847 15.2457467 0.33203125 7.890625 C0.02612634 5.22745281 -0.06445241 2.67725395 0 0 Z " fill="#0A0A0A" transform="translate(212,127)"/>
<path d="M0 0 C0.33 0.66 0.66 1.32 1 2 C1.495 1.649375 1.99 1.29875 2.5 0.9375 C6.14222603 -0.42833476 9.27416904 0.03286941 13 1 C15.3473645 2.59015015 15.84241144 3.49858184 16.6875 6.1875 C16.790625 6.785625 16.89375 7.38375 17 8 C18.32 6.68 19.64 5.36 21 4 C21.50870533 7.186173 22.00536581 10.37411475 22.5 13.5625 C22.64308594 14.45775391 22.78617188 15.35300781 22.93359375 16.27539062 C23.69892388 21.25003648 24.16568252 25.96739357 24 31 C20.26477691 30.06619423 19.06727423 29.0915677 16.75 25.9375 C14.58276439 21.79528355 14.20927294 17.61446829 14 13 C13.34 13.66 12.68 14.32 12 15 C8.89652746 15.33015665 6.84218824 15.50531294 4.125 13.875 C2.52343199 11.20571998 2.80495146 9.05576049 3 6 C3 5.34 3 4.68 3 4 C0.62005632 5.94332332 0.62005632 5.94332332 0.75 9.5 C0.83996652 13.6384598 1.66869011 17.49277333 2.5546875 21.5234375 C3.19266157 25.07146875 3.1331938 28.40376729 3 32 C0.69 32 -1.62 32 -4 32 C-4.50723149 28.14674943 -5.00448199 24.29227297 -5.5 20.4375 C-5.64308594 19.35146484 -5.78617188 18.26542969 -5.93359375 17.14648438 C-6.62631236 11.72018862 -7.18838153 6.47091369 -7 1 C-4 0 -4 0 0 0 Z " fill="#0C0C0C" transform="translate(159,140)"/>
<path d="M0 0 C3.14803131 0.67688204 3.14803131 0.67688204 6.125 -0.5625 C8.07521536 5.89758837 8.34762303 11.7093373 8.125 18.4375 C4.97026998 15.28276998 3.54405165 11.19619815 1.66015625 7.1875 C0.2688436 4.20396486 0.2688436 4.20396486 -2.875 2.4375 C-5.185 2.1075 -7.495 1.7775 -9.875 1.4375 C-8.225 14.9675 -6.575 28.4975 -4.875 42.4375 C-0.04317334 41.22954333 4.4688436 40.06715474 9.125 38.4375 C9.125 39.0975 9.125 39.7575 9.125 40.4375 C2.07412244 44.42587518 -3.86073769 44.92567841 -11.875 44.4375 C-13.35905416 41.46939169 -13.47039368 38.31061499 -13.84765625 35.05078125 C-13.93502548 34.31554733 -14.02239471 33.58031342 -14.1124115 32.82279968 C-14.29661648 31.26367776 -14.47890148 29.70432799 -14.65942383 28.14477539 C-14.93446578 25.77613055 -15.21776656 23.40857855 -15.50195312 21.04101562 C-15.68019058 19.5234965 -15.85794023 18.00591999 -16.03515625 16.48828125 C-16.11951431 15.78697586 -16.20387238 15.08567047 -16.29078674 14.3631134 C-16.78686831 10.01441231 -16.95148204 5.80409067 -16.875 1.4375 C-11.4644534 -1.65249614 -5.99853434 -0.87075498 0 0 Z " fill="#121212" transform="translate(42.875,127.5625)"/>
<path d="M0 0 C2.31 0 4.62 0 7 0 C9.06627421 9.28820348 9.57800555 18.52733516 10 28 C10.99 27.67 11.98 27.34 13 27 C14.10943634 24.17768263 14.03732619 21.81893622 13.66015625 18.84765625 C13.56669922 18.07099609 13.47324219 17.29433594 13.37695312 16.49414062 C13.27318359 15.69169922 13.16941406 14.88925781 13.0625 14.0625 C11.84992791 4.36974629 11.84992791 4.36974629 12 0 C14.31 0 16.62 0 19 0 C19.50869827 3.6655138 20.00536408 7.33256427 20.5 11 C20.64308594 12.02996094 20.78617188 13.05992187 20.93359375 14.12109375 C21.69403874 19.80632532 22.16544234 25.26466539 22 31 C19.03824877 30.38722388 17.61941217 29.74627478 15 28 C14.29875 28.495 13.5975 28.99 12.875 29.5 C9.60592505 31.20560432 7.62663232 31.12055287 4 31 C3.32713781 26.77179486 2.66279461 22.54229401 2 18.3125 C1.80921875 17.11431641 1.6184375 15.91613281 1.421875 14.68164062 C1.24140625 13.52470703 1.0609375 12.36777344 0.875 11.17578125 C0.70742187 10.11270752 0.53984375 9.04963379 0.3671875 7.9543457 C0.03259931 5.26229003 -0.07006305 2.70837469 0 0 Z " fill="#101010" transform="translate(108,141)"/>
<path d="M0 0 C2.76879824 2.76879824 2.58450195 4.90006785 3.0703125 8.765625 C3.19924393 9.77215118 3.19924393 9.77215118 3.33078003 10.79901123 C3.51118108 12.2208067 3.68743378 13.64313373 3.85986328 15.06591797 C4.12243033 17.22883219 4.39794541 19.38978103 4.67578125 21.55078125 C5.40941348 27.38788693 6.11656 33.10410099 6 39 C0.15654402 37.45320283 -2.98509819 33.10089974 -6.15234375 28.2265625 C-8.33705329 22.48792453 -7.95585647 14.20188375 -6.20703125 8.34375 C-4.60442887 5.0525819 -2.62947395 2.50139069 0 0 Z " fill="#0A0A0A" transform="translate(23,132)"/>
<path d="M0 0 C6.00347276 2.24077107 11.27807195 5.57841512 16.75 8.875 C17.81605469 9.50019531 18.88210938 10.12539062 19.98046875 10.76953125 C20.99238281 11.37925781 22.00429688 11.98898438 23.046875 12.6171875 C23.97338867 13.17003418 24.89990234 13.72288086 25.85449219 14.29248047 C28 16 28 16 28.80957031 18.21142578 C28.87241211 18.80165527 28.93525391 19.39188477 29 20 C22.82207849 25.47588498 18.98848627 26.30012604 10.69921875 26.22265625 C7.21428347 25.93518691 4.86777378 24.98538185 2 23 C0 20 0 20 0.25 17.9375 C1 16 1 16 3 14 C5.5 13.75 5.5 13.75 8 14 C10 16 10 16 10.125 18.625 C10.08375 19.40875 10.0425 20.1925 10 21 C9.01 21.33 8.02 21.66 7 22 C7 22.66 7 23.32 7 24 C12.28 23.67 17.56 23.34 23 23 C20.18773378 20.18773378 18.43475227 18.46307554 15.21484375 16.52734375 C14.51939453 16.10259766 13.82394531 15.67785156 13.10742188 15.24023438 C12.39134766 14.81033203 11.67527344 14.38042969 10.9375 13.9375 C9.5067782 13.07548051 8.0783031 12.20971867 6.65234375 11.33984375 C5.70862915 10.77317993 5.70862915 10.77317993 4.74584961 10.19506836 C2.89450487 8.92778651 1.43102202 7.73154482 0 6 C-0.1875 2.8125 -0.1875 2.8125 0 0 Z " fill="#0C0C0C" transform="translate(253,147)"/>
<path d="M0 0 C3.3 0 6.6 0 10 0 C10.19335938 1.36511719 10.38671875 2.73023438 10.5859375 4.13671875 C10.84893208 5.9869829 11.11195482 7.83724304 11.375 9.6875 C11.51075439 10.64688477 11.64650879 11.60626953 11.78637695 12.59472656 C12.37425293 16.72619797 12.96216287 20.85559152 13.64453125 24.97265625 C14.65716074 31.0848587 15.2101021 36.80198811 15 43 C13.00045254 43.04254356 10.99958364 43.04080783 9 43 C7.03319736 41.03319736 7.33733165 37.40889962 7.02734375 34.7109375 C6.93997452 33.97428864 6.85260529 33.23763977 6.7625885 32.47866821 C6.57811937 30.91360021 6.39584758 29.34827192 6.21557617 27.78271484 C5.94098133 25.40514303 5.65755287 23.02874744 5.37304688 20.65234375 C5.19477502 19.13027119 5.01702455 17.60813745 4.83984375 16.0859375 C4.75548569 15.38149506 4.67112762 14.67705261 4.58421326 13.95126343 C4.0895506 9.59422622 3.92331878 5.3747526 4 1 C2.68 0.67 1.36 0.34 0 0 Z " fill="#0A0A0A" transform="translate(51,128)"/>
<path d="M0 0 C3.3 0 6.6 0 10 0 C10.71443641 5.64138754 11.42645684 11.28307273 12.13623047 16.92504883 C12.37807741 18.84472921 12.62058678 20.76432627 12.86376953 22.68383789 C13.2130025 25.44135291 13.55985971 28.19915789 13.90625 30.95703125 C14.07030334 32.24623222 14.07030334 32.24623222 14.2376709 33.56147766 C14.33777466 34.36208115 14.43787842 35.16268463 14.54101562 35.98754883 C14.62984009 36.6914827 14.71866455 37.39541656 14.81018066 38.12068176 C15 40 15 40 15 43 C13.02 43 11.04 43 9 43 C7.49951826 38.1334454 6.55008602 33.49578044 5.9296875 28.421875 C5.84373322 27.72862122 5.75777893 27.03536743 5.66921997 26.32110596 C5.49025082 24.86933769 5.31391966 23.41724195 5.14013672 21.96484375 C4.873975 19.7414376 4.59979816 17.51913168 4.32421875 15.296875 C3 4.49348373 3 4.49348373 3 1 C2.01 0.67 1.02 0.34 0 0 Z " fill="#0A0A0A" transform="translate(201,128)"/>
<path d="M0 0 C1.27746094 -0.01933594 2.55492187 -0.03867188 3.87109375 -0.05859375 C8.2937764 0.53577736 10.10134663 1.73598153 13.5625 4.4375 C12.6875 9.3125 12.6875 9.3125 11.5625 10.4375 C9.125 10.625 9.125 10.625 6.5625 10.4375 C5.9025 9.7775 5.2425 9.1175 4.5625 8.4375 C4.9375 4.8125 4.9375 4.8125 5.5625 1.4375 C3.91583797 1.5510629 2.27013918 1.67867381 0.625 1.8125 C-0.29152344 1.88210937 -1.20804687 1.95171875 -2.15234375 2.0234375 C-3.28349609 2.22839844 -3.28349609 2.22839844 -4.4375 2.4375 C-4.7675 3.0975 -5.0975 3.7575 -5.4375 4.4375 C-4.74914062 4.68628906 -4.06078125 4.93507812 -3.3515625 5.19140625 C0.04066315 6.64196923 3.0483996 8.43741734 6.1875 10.375 C6.75984375 10.72240234 7.3321875 11.06980469 7.921875 11.42773438 C14.04980973 15.2113778 14.04980973 15.2113778 15.5625 17.4375 C15.75 20.625 15.75 20.625 15.5625 23.4375 C5.67721484 18.19686026 -4.12299705 12.64716863 -13.4375 6.4375 C-12.4375 3.4375 -12.4375 3.4375 -10.33984375 1.77734375 C-6.72256217 0.10745468 -3.9758148 0.00400384 0 0 Z " fill="#0B0B0B" transform="translate(267.4375,139.5625)"/>
<path d="M0 0 C0.66 4.95 1.32 9.9 2 15 C0.35 15 -1.3 15 -3 15 C-5.31332486 11.53001271 -5.33957563 10.07490752 -5 6 C-4.34 5.01 -3.68 4.02 -3 3 C-5.97 2.505 -5.97 2.505 -9 2 C-8.90912109 2.73637695 -8.81824219 3.47275391 -8.72460938 4.23144531 C-8.31392032 7.57066326 -7.9069203 10.91032079 -7.5 14.25 C-7.35691406 15.40886719 -7.21382812 16.56773437 -7.06640625 17.76171875 C-6.93105469 18.87675781 -6.79570312 19.99179688 -6.65625 21.140625 C-6.53056641 22.16704102 -6.40488281 23.19345703 -6.27539062 24.25097656 C-6 27 -6 27 -6 31 C0.435 28.525 0.435 28.525 7 26 C6 29 6 29 3.625 30.6875 C-1.30649297 32.47304056 -5.81116953 32.24928545 -11 32 C-12.83402901 22.04941708 -13.94967756 12.0562787 -15 2 C-9.78350961 -0.38736677 -5.67550331 -0.15134676 0 0 Z " fill="#101010" transform="translate(196,140)"/>
<path d="M0 0 C2.31 0 4.62 0 7 0 C8.32 8.58 9.64 17.16 11 26 C11.66 23.36 12.32 20.72 13 18 C13.66 18 14.32 18 15 18 C15.32521241 22.6613779 14.81951666 25.24064446 12 29 C8.77208445 31.1519437 7.71599191 31.20086443 4 31 C3.32713781 26.77179486 2.66279461 22.54229401 2 18.3125 C1.80921875 17.11431641 1.6184375 15.91613281 1.421875 14.68164062 C1.24140625 13.52470703 1.0609375 12.36777344 0.875 11.17578125 C0.70742187 10.11270752 0.53984375 9.04963379 0.3671875 7.9543457 C0.03259931 5.26229003 -0.07006305 2.70837469 0 0 Z " fill="#111111" transform="translate(128,141)"/>
<path d="M0 0 C2.62901288 1.52206009 4.84365964 2.84365964 7 5 C7.48657227 7.03125 7.48657227 7.03125 7.81640625 9.5 C7.94080078 10.386875 8.06519531 11.27375 8.19335938 12.1875 C8.37608398 13.5796875 8.37608398 13.5796875 8.5625 15 C8.81081893 16.83373977 9.0619844 18.66709701 9.31640625 20.5 C9.47798218 21.72203125 9.47798218 21.72203125 9.64282227 22.96875 C9.91081869 25.05960006 9.91081869 25.05960006 11 27 C11.66 24.36 12.32 21.72 13 19 C13.66 19 14.32 19 15 19 C15.32521241 23.6613779 14.81951666 26.24064446 12 30 C8.77208445 32.1519437 7.71599191 32.20086443 4 32 C2.07556194 21.32481528 0.50591399 10.85098273 0 0 Z " fill="#121212" transform="translate(84,140)"/>
<path d="M0 0 C2.97 0 5.94 0 9 0 C10.99225129 10.34968279 12.51529965 20.45358894 13 31 C10.69 31 8.38 31 6 31 C5.4935767 27.29251453 4.99600845 23.58389201 4.5 19.875 C4.35691406 18.82828125 4.21382812 17.7815625 4.06640625 16.703125 C3.41114246 11.77304508 2.79292599 6.98703253 3 2 C2.01 2 1.02 2 0 2 C0 1.34 0 0.68 0 0 Z " fill="#0F0F0F" transform="translate(141,141)"/>
<path d="M0 0 C3.3 0 6.6 0 10 0 C11.32 10.23 12.64 20.46 14 31 C9 30 9 30 7.24682617 28.2265625 C5.91283198 25.84433673 5.42522314 24.06988437 5.05078125 21.375 C4.92509766 20.50359375 4.79941406 19.6321875 4.66992188 18.734375 C4.49299805 17.38085938 4.49299805 17.38085938 4.3125 16 C4.11817383 14.64648438 4.11817383 14.64648438 3.91992188 13.265625 C3.38584893 9.4451667 3 5.86948268 3 2 C2.01 2 1.02 2 0 2 C0 1.34 0 0.68 0 0 Z " fill="#0A0A0A" transform="translate(97,141)"/>
<path d="M0 0 C0.50567374 4.20767175 1.0035354 8.41623253 1.5 12.625 C1.64308594 13.81480469 1.78617188 15.00460938 1.93359375 16.23046875 C2.13662109 17.96103516 2.13662109 17.96103516 2.34375 19.7265625 C2.46943359 20.78439941 2.59511719 21.84223633 2.72460938 22.93212891 C2.99759627 25.97322227 3.04799174 28.94852512 3 32 C-0.30746092 31.42974812 -1.95885526 30.69009566 -4 28 C-4.73046875 24.8125 -4.73046875 24.8125 -5.1875 21 C-5.26790527 20.33734131 -5.34831055 19.67468262 -5.43115234 18.99194336 C-6.07240872 13.31566227 -6.21342397 7.70316267 -6 2 C-6.66 1.67 -7.32 1.34 -8 1 C-5.29120665 -0.35439668 -2.99066732 -0.06501451 0 0 Z " fill="#0B0B0B" transform="translate(83,140)"/>
<path d="M0 0 C2.375 0.3125 2.375 0.3125 5 1 C9.27820883 7.41731324 8.87395733 18.48812868 8 26 C6.609375 27.8828125 6.609375 27.8828125 5 29 C4.34 29 3.68 29 3 29 C0.82188403 19.39937232 0.40962538 9.79867033 0 0 Z " fill="#070707" transform="translate(234,142)"/>
<path d="M0 0 C0.33 0 0.66 0 1 0 C1.50870533 3.186173 2.00536581 6.37411475 2.5 9.5625 C2.64308594 10.45775391 2.78617188 11.35300781 2.93359375 12.27539062 C3.69892388 17.25003648 4.16568252 21.96739357 4 27 C0.26401391 26.06600348 -0.95359478 25.06145556 -3.3125 21.9375 C-5.48549464 17.66246566 -5.82768308 13.70091849 -5 9 C-3.80127695 5.81236427 -2.44219437 2.44219437 0 0 Z " fill="#0F0F0F" transform="translate(179,144)"/>
<path d="M0 0 C4.51526198 1.58854341 8.31517942 3.92294266 12.3125 6.5 C12.95767578 6.90347656 13.60285156 7.30695313 14.26757812 7.72265625 C15.88281262 8.75845742 17.44672883 9.87340548 19 11 C19 11.66 19 12.32 19 13 C15.99686252 14.50156874 13.20932478 14.09281204 9.875 14.0625 C8.59367187 14.05347656 7.31234375 14.04445312 5.9921875 14.03515625 C4.51105469 14.01775391 4.51105469 14.01775391 3 14 C3 13.34 3 12.68 3 12 C3.66 11.67 4.32 11.34 5 11 C5 9.35 5 7.7 5 6 C4.360625 5.7525 3.72125 5.505 3.0625 5.25 C1 4 1 4 0.25 1.875 C0.1675 1.25625 0.085 0.6375 0 0 Z " fill="#EFEFEF" transform="translate(257,157)"/>
<path d="M0 0 C2.5 0.25 2.5 0.25 4.5 2.25 C4.625 4.875 4.625 4.875 4.5 7.25 C3.51 7.58 2.52 7.91 1.5 8.25 C1.5 8.91 1.5 9.57 1.5 10.25 C4.14680904 10.13660796 6.79177518 10.00987127 9.4375 9.875 C10.19224609 9.8440625 10.94699219 9.813125 11.72460938 9.78125 C13.65507395 9.6773685 15.57942081 9.47104386 17.5 9.25 C17.83 8.59 18.16 7.93 18.5 7.25 C18.83 8.24 19.16 9.23 19.5 10.25 C12.88921125 13.10871946 5.67819805 13.42091507 -1.0625 10.9375 C-3.5 9.25 -3.5 9.25 -5.5 6.25 C-5.04523279 2.49817053 -4.00542288 0.40054229 0 0 Z " fill="#181818" transform="translate(258.5,160.75)"/>
<path d="M0 0 C4.37399868 -0.08926528 8.53427278 -0.06760556 12.875 0.5625 C16.02303131 1.23938204 16.02303131 1.23938204 19 0 C20.95021536 6.46008837 21.22262303 12.2718373 21 19 C17.84526998 15.84526998 16.41905165 11.75869815 14.53515625 7.75 C13.1438436 4.76646486 13.1438436 4.76646486 10 3 C7.67612053 2.60612212 5.34206251 2.26513915 3 2 C2.67 3.32 2.34 4.64 2 6 C2 4.35 2 2.7 2 1 C1.34 0.67 0.68 0.34 0 0 Z " fill="#141414" transform="translate(30,127)"/>
<path d="M0 0 C3.3 0 6.6 0 10 0 C10.66 4.95 11.32 9.9 12 15 C10.35 15 8.7 15 7 15 C4.68667514 11.53001271 4.66042437 10.07490752 5 6 C5.66 5.01 6.32 4.02 7 3 C4.03 2.505 4.03 2.505 1 2 C0.67 3.32 0.34 4.64 0 6 C0 4.02 0 2.04 0 0 Z " fill="#1E1E1E" transform="translate(186,140)"/>
<path d="M0 0 C2.91517292 1.07401108 4.77810176 1.77810176 7 4 C7.75 7.5 7.75 7.5 8 11 C6 13 6 13 3 15 C2.01 15 1.02 15 0 15 C-0.19601608 13.25093341 -0.38147403 11.50068154 -0.5625 9.75 C-0.66691406 8.77546875 -0.77132812 7.8009375 -0.87890625 6.796875 C-0.98974468 4.2368648 -0.77738092 2.41851841 0 0 Z " fill="#343434" transform="translate(168,140)"/>
<path d="M0 0 C1.30453125 -0.03738281 2.6090625 -0.07476562 3.953125 -0.11328125 C8.49702374 0.39627118 10.22467873 1.53713062 13.75 4.3125 C12.875 9.1875 12.875 9.1875 11.75 10.3125 C9.3125 10.5 9.3125 10.5 6.75 10.3125 C6.09 9.6525 5.43 8.9925 4.75 8.3125 C5.125 4.6875 5.125 4.6875 5.75 1.3125 C4.1245692 1.45345064 2.49965949 1.60042087 0.875 1.75 C-0.02992188 1.83121094 -0.93484375 1.91242188 -1.8671875 1.99609375 C-4.26110861 2.18239285 -4.26110861 2.18239285 -6.25 3.3125 C-7.24 2.6525 -8.23 1.9925 -9.25 1.3125 C-6.21843143 -0.20328428 -3.37033386 0.06278073 0 0 Z " fill="#0F0F0F" transform="translate(267.25,139.6875)"/>
<path d="M0 0 C2.16874252 0.50603992 3.99967627 0.99983813 6 2 C7.48101266 8.83544304 7.48101266 8.83544304 5.8125 12.875 C3.97605244 15.02807645 2.624338 16.00456145 0 17 C0.185625 16.443125 0.37125 15.88625 0.5625 15.3125 C1.08460703 12.5527914 0.562597 10.75047422 0 8 C-0.08961137 5.32659425 -0.04535771 2.6761048 0 0 Z " fill="#101010" transform="translate(249,126)"/>
<path d="M0 0 C1.32 0 2.64 0 4 0 C4.33 0.66 4.66 1.32 5 2 C5.598125 1.67 6.19625 1.34 6.8125 1 C9 0 9 0 12 0 C12.33 4.95 12.66 9.9 13 15 C9 14 9 14 7 12 C6.875 9 6.875 9 7 6 C7 5.34 7 4.68 7 4 C6.01 4.495 6.01 4.495 5 5 C4.34 4.67 3.68 4.34 3 4 C3 3.01 3 2.02 3 1 C2.01 0.67 1.02 0.34 0 0 Z " fill="#0E0E0E" transform="translate(155,140)"/>
<path d="M0 0 C3.96 0 7.92 0 12 0 C12 0.33 12 0.66 12 1 C10.02 1.33 8.04 1.66 6 2 C6.33 5.63 6.66 9.26 7 13 C6.01 13.66 5.02 14.32 4 15 C3.27034634 17.56282742 3.27034634 17.56282742 3 20 C2.34 19.67 1.68 19.34 1 19 C1.01160156 18.29875 1.02320313 17.5975 1.03515625 16.875 C1.08971184 11.13886898 0.85618377 5.67221747 0 0 Z " fill="#DFDEDF" transform="translate(49,127)"/>
<path d="M0 0 C3.3 0 6.6 0 10 0 C10 2.31 10 4.62 10 7 C12.475 7.99 12.475 7.99 15 9 C14.01 9.66 13.02 10.32 12 11 C5.565 7.04 5.565 7.04 -1 3 C-0.67 2.01 -0.34 1.02 0 0 Z " fill="#CECECE" transform="translate(263,141)"/>
<path d="M0 0 C5.6373057 2.99481865 5.6373057 2.99481865 8 5 C8.5 8.3125 8.5 8.3125 8 11 C7.34 11 6.68 11 6 11 C5.34 12.65 4.68 14.3 4 16 C3.34 16 2.68 16 2 16 C1.34 10.72 0.68 5.44 0 0 Z " fill="#DADADA" transform="translate(241,152)"/>
<path d="M0 0 C1.3271261 3.9813783 1.06915913 7.85045227 1 12 C-0.65 11.67 -2.3 11.34 -4 11 C-5.34516765 4.64102564 -5.34516765 4.64102564 -3.6875 1.5625 C-2 0 -2 0 0 0 Z " fill="#151515" transform="translate(247,127)"/>
<path d="M0 0 C0.33 0 0.66 0 1 0 C1.33 3.63 1.66 7.26 2 11 C6.04605973 8.58537435 6.04605973 8.58537435 6.609375 5.95703125 C6.67898437 4.89548828 6.67898437 4.89548828 6.75 3.8125 C6.8325 2.554375 6.915 1.29625 7 0 C7.33 0 7.66 0 8 0 C8 2.64 8 5.28 8 8 C8.66 8 9.32 8 10 8 C10.66 5.36 11.32 2.72 12 0 C12.33 0 12.66 0 13 0 C13.33419641 3.59261138 13.21511245 5.59666415 11.5 8.8125 C8.00777845 11.86819385 5.58057515 11.77097124 1 12 C-0.3271261 8.0186217 -0.06915913 4.14954773 0 0 Z " fill="#373737" transform="translate(235,160)"/>
<path d="M0 0 C2.31 0 4.62 0 7 0 C6.505 0.7425 6.505 0.7425 6 1.5 C4.56363642 5.09090894 4.87148538 8.14456127 5 12 C2.525 11.01 2.525 11.01 0 10 C0 6.7 0 3.4 0 0 Z " fill="#D9D9D9" transform="translate(187,142)"/>
<path d="M0 0 C0.33 0 0.66 0 1 0 C2.03590199 5.05002222 2.10251672 9.87416389 2 15 C1.67 14.01 1.34 13.02 1 12 C-0.65 12.33 -2.3 12.66 -4 13 C-3.34 10.03 -2.68 7.06 -2 4 C-1.34 4 -0.68 4 0 4 C0 2.68 0 1.36 0 0 Z M-7 14 C-6.01 14.495 -6.01 14.495 -5 15 C-5.99 15.495 -5.99 15.495 -7 16 C-7 15.34 -7 14.68 -7 14 Z " fill="#E4E4E4" transform="translate(145,156)"/>
<path d="M0 0 C2.475 0.99 2.475 0.99 5 2 C5.25 5.25 5.25 5.25 5 9 C3.68 10.32 2.36 11.64 1 13 C0.67 8.71 0.34 4.42 0 0 Z " fill="#0E0E0E" transform="translate(198,142)"/>
<path d="M0 0 C0.33 2.64 0.66 5.28 1 8 C0.360625 8.103125 -0.27875 8.20625 -0.9375 8.3125 C-1.9584375 8.6528125 -1.9584375 8.6528125 -3 9 C-3.33 9.99 -3.66 10.98 -4 12 C-4 8.37 -4 4.74 -4 1 C-2 0 -2 0 0 0 Z " fill="#EBEBEB" transform="translate(76,143)"/>
<path d="M0 0 C0.66 0.33 1.32 0.66 2 1 C1.67 1.66 1.34 2.32 1 3 C0.75212983 7.14503661 0.75212983 7.14503661 2 11 C1.01 11 0.02 11 -1 11 C-1.33 12.32 -1.66 13.64 -2 15 C-3.34346122 10.96961634 -3.26676927 7.20161608 -3 3 C-1.5 1 -1.5 1 0 0 Z " fill="#C2C2C2" transform="translate(162,143)"/>
<path d="M0 0 C2.475 0.495 2.475 0.495 5 1 C4.01 1.33 3.02 1.66 2 2 C2.165 2.928125 2.33 3.85625 2.5 4.8125 C3.23700282 9.85733621 3.08276815 14.91435711 3 20 C2.67 20 2.34 20 2 20 C1.34 13.4 0.68 6.8 0 0 Z " fill="#616161" transform="translate(232,140)"/>
<path d="M0 0 C0.68964844 -0.01224609 1.37929688 -0.02449219 2.08984375 -0.03710938 C3.89477494 -0.04238695 5.69917842 0.06565542 7.5 0.1875 C8.16 0.8475 8.82 1.5075 9.5 2.1875 C7.85 3.1775 6.2 4.1675 4.5 5.1875 C4.83 3.8675 5.16 2.5475 5.5 1.1875 C3.8745692 1.32845064 2.24965949 1.47542087 0.625 1.625 C-0.27992188 1.70621094 -1.18484375 1.78742188 -2.1171875 1.87109375 C-4.51110861 2.05739285 -4.51110861 2.05739285 -6.5 3.1875 C-7.49 2.5275 -8.48 1.8675 -9.5 1.1875 C-6.46576019 -0.3296199 -3.32495206 0.00310743 0 0 Z " fill="#1C1C1C" transform="translate(267.5,139.8125)"/>
<path d="M0 0 C5.4389165 -0.21755666 9.87080814 -0.10428384 15 2 C13.02 2.99 13.02 2.99 11 4 C10.67 3.67 10.34 3.34 10 3 C7.67182036 2.63239269 5.3381615 2.29758419 3 2 C2.67 3.32 2.34 4.64 2 6 C2 4.35 2 2.7 2 1 C1.34 0.67 0.68 0.34 0 0 Z " fill="#3B3B3B" transform="translate(30,127)"/>
<path d="M0 0 C0.33 0 0.66 0 1 0 C1.66 4.62 2.32 9.24 3 14 C2.01 14.495 2.01 14.495 1 15 C-1.125 14.0625 -1.125 14.0625 -3 13 C-2.01 13 -1.02 13 0 13 C-0.08378906 12.22914063 -0.16757813 11.45828125 -0.25390625 10.6640625 C-0.35574219 9.66117188 -0.45757812 8.65828125 -0.5625 7.625 C-0.66691406 6.62726563 -0.77132812 5.62953125 -0.87890625 4.6015625 C-1 2 -1 2 0 0 Z " fill="#A6A6A6" transform="translate(248,126)"/>
<path d="M0 0 C3.96 0 7.92 0 12 0 C12 0.33 12 0.66 12 1 C10.02 1.33 8.04 1.66 6 2 C5.67 3.32 5.34 4.64 5 6 C3.68 5.67 2.36 5.34 1 5 C0.67 3.35 0.34 1.7 0 0 Z " fill="#A7A7A7" transform="translate(49,127)"/>
<path d="M0 0 C-0.66 3.3 -1.32 6.6 -2 10 C-2.33 10 -2.66 10 -3 10 C-3 7.69 -3 5.38 -3 3 C-4.65 3.66 -6.3 4.32 -8 5 C-8.33 4.34 -8.66 3.68 -9 3 C-3.375 0 -3.375 0 0 0 Z " fill="#2F2F2F" transform="translate(229,140)"/>
<path d="M0 0 C2.31 0 4.62 0 7 0 C6.01 1.98 5.02 3.96 4 6 C2.62437146 4.71034824 1.29233607 3.37310707 0 2 C0 1.34 0 0.68 0 0 Z " fill="#F4F4F4" transform="translate(187,142)"/>
<path d="M0 0 C0.66 0 1.32 0 2 0 C2.3227506 4.62609198 1.84450614 7.28026121 -1 11 C-1.66 11 -2.32 11 -3 11 C-2.690625 10.29875 -2.38125 9.5975 -2.0625 8.875 C-0.96697322 5.91063343 -0.43577008 3.12301892 0 0 Z " fill="#3F3F3F" transform="translate(141,159)"/>
<path d="M0 0 C0.66 0.33 1.32 0.66 2 1 C2.125 6.75 2.125 6.75 1 9 C0.34 9 -0.32 9 -1 9 C-1.09765625 2.84765625 -1.09765625 2.84765625 -1 1 C-0.67 0.67 -0.34 0.34 0 0 Z " fill="#EEEEEE" transform="translate(244,159)"/>
<path d="M0 0 C3.3 0 6.6 0 10 0 C7 2 7 2 5 3 C4.01 4.485 4.01 4.485 3 6 C3 4.68 3 3.36 3 2 C2.01 2 1.02 2 0 2 C0 1.34 0 0.68 0 0 Z " fill="#444444" transform="translate(97,141)"/>
<path d="M0 0 C2.475 0.495 2.475 0.495 5 1 C5 2.65 5 4.3 5 6 C4.01 6 3.02 6 2 6 C1.34 4.02 0.68 2.04 0 0 Z " fill="#E2E2E2" transform="translate(248,146)"/>
<path d="M0 0 C4.75 1.875 4.75 1.875 7 3 C6.67 3.99 6.34 4.98 6 6 C3.5625 5.25 3.5625 5.25 1 4 C0.1875 1.875 0.1875 1.875 0 0 Z " fill="#E3E3E3" transform="translate(257,157)"/>
<path d="M0 0 C0.33 0 0.66 0 1 0 C1.36923077 6.52307692 1.36923077 6.52307692 -0.5 8.9375 C-0.995 9.288125 -1.49 9.63875 -2 10 C-2.17942163 6.05272412 -2.09350689 3.4019487 0 0 Z " fill="#DADADA" transform="translate(205,140)"/>
<path d="M0 0 C1.32 0 2.64 0 4 0 C4.33 0.66 4.66 1.32 5 2 C5.99 1.67 6.98 1.34 8 1 C8.66 1.66 9.32 2.32 10 3 C7.625 4.0625 7.625 4.0625 5 5 C4.34 4.67 3.68 4.34 3 4 C3 3.01 3 2.02 3 1 C2.01 0.67 1.02 0.34 0 0 Z " fill="#505050" transform="translate(155,140)"/>
</svg>
